SplineFontDB: 3.0
FontName: Samian5
FullName: Samian5
FamilyName: Samian5
Weight: Book
Copyright: Developed by Paul Tyers with FontForge (http://fontforge.sf.net), 2006, 2007, 2008.\n$Id: Samian5.sfd,v 2.31 2014/02/14 10:08:31 paul Exp paul $\nSome glyphs derived from Vera font (c) 2003 by Bitstream, Inc. and DejaVu font (c) 2004-2007 DejaVu fonts team.
UComments: "2006-2-7: Created." 
Version: 2.31
ItalicAngle: 0
UnderlinePosition: -223
UnderlineWidth: 100
Ascent: 1638
Descent: 410
LayerCount: 2
Layer: 0 1 "Back"  1
Layer: 1 1 "Fore"  0
XUID: [1021 531 1726671065 6425836]
FSType: 0
OS2Version: 0
OS2_WeightWidthSlopeOnly: 0
OS2_UseTypoMetrics: 0
CreationTime: 1157902552
ModificationTime: 1330884411
PfmFamily: 17
TTFWeight: 400
TTFWidth: 5
LineGap: 153
VLineGap: 0
OS2TypoAscent: 0
OS2TypoAOffset: 1
OS2TypoDescent: 0
OS2TypoDOffset: 1
OS2TypoLinegap: 168
OS2WinAscent: 0
OS2WinAOffset: 1
OS2WinDescent: 0
OS2WinDOffset: 1
HheadAscent: 0
HheadAOffset: 1
HheadDescent: 0
HheadDOffset: 1
OS2Vendor: 'PfEd'
MarkAttachClasses: 1
DEI: 91125
ShortTable: cvt  2
  68
  1297
EndShort

StartChar: exclam
Encoding: 33 33 1
Width: 753
VWidth: 1875
Flags: W
LayerCount: 2
Fore
SplineSet
255 95 m 0,0,1
 255 145 255 145 290 182 c 0,2,3
 324.5 218 324.5 218 377 218 c 0,4,5
 427 218 427 218 463 182 c 128,-1,6
 499 146 499 146 499 95 c 0,7,8
 499 45 499 45 463 9 c 128,-1,9
 427 -27 427 -27 377 -27 c 0,10,11
 324.5 -27 324.5 -27 290 9 c 0,12,13
 255 44 255 44 255 95 c 0,0,1
259 1367 m 1,14,-1
 495 1367 l 1,15,-1
 433 615 l 1,16,-1
 433 385 l 1,17,-1
 320 385 l 1,18,-1
 320 615 l 1,19,-1
 259 1367 l 1,14,-1
EndSplineSet
Validated: 1
EndChar

StartChar: quotedbl
Encoding: 34 34 2
Width: 862
VWidth: 1875
Flags: W
LayerCount: 2
Fore
SplineSet
330 1367 m 1,0,-1
 330 859 l 1,1,-1
 184 859 l 1,2,-1
 184 1367 l 1,3,-1
 330 1367 l 1,0,-1
678 1367 m 1,4,-1
 678 859 l 1,5,-1
 533 859 l 1,6,-1
 533 1367 l 1,7,-1
 678 1367 l 1,4,-1
EndSplineSet
Validated: 1
EndChar

StartChar: numbersign
Encoding: 35 35 3
Width: 1571
VWidth: 1875
Flags: W
LayerCount: 2
Fore
SplineSet
954 825 m 1,0,-1
 696 825 l 1,1,-1
 619 519 l 1,2,-1
 880 519 l 1,3,-1
 954 825 l 1,0,-1
825 1346 m 1,4,-1
 732 966 l 1,5,-1
 990 966 l 1,6,-1
 1084 1346 l 1,7,-1
 1241 1346 l 1,8,-1
 1145 966 l 1,9,-1
 1427 966 l 1,10,-1
 1427 825 l 1,11,-1
 1110 825 l 1,12,-1
 1035 519 l 1,13,-1
 1322 519 l 1,14,-1
 1322 379 l 1,15,-1
 1000 379 l 1,16,-1
 905 0 l 1,17,-1
 748 0 l 1,18,-1
 844 379 l 1,19,-1
 585 379 l 1,20,-1
 490 0 l 1,21,-1
 334 0 l 1,22,-1
 428 379 l 1,23,-1
 145 379 l 1,24,-1
 145 519 l 1,25,-1
 463 519 l 1,26,-1
 538 825 l 1,27,-1
 249 825 l 1,28,-1
 249 966 l 1,29,-1
 574 966 l 1,30,-1
 669 1346 l 1,31,-1
 825 1346 l 1,4,-1
EndSplineSet
Validated: 1
EndChar

StartChar: dollar
Encoding: 36 36 4
Width: 1192
VWidth: 1875
Flags: W
LayerCount: 2
Fore
SplineSet
632 62 m 1,0,1
 734 71 734 71 790 122 c 0,2,3
 844 172 844 172 844 259 c 0,4,5
 844 338 844 338 790 393 c 128,-1,6
 736 448 736 448 632 476 c 1,7,-1
 632 62 l 1,0,1
540 1087 m 1,8,9
 444 1079 444 1079 394 1032 c 0,10,11
 341 984 341 984 341 904 c 0,12,13
 341 831 341 831 390 782 c 128,-1,14
 439 733 439 733 540 703 c 1,15,-1
 540 1087 l 1,8,9
161 66 m 1,16,-1
 161 319 l 1,17,-1
 260 319 l 1,18,19
 263 194 263 194 333 129 c 0,20,21
 403 65 403 65 540 62 c 1,22,-1
 540 506 l 1,23,24
 329 565 329 565 244 641 c 0,25,26
 159 718 159 718 159 844 c 0,27,28
 159 990 159 990 260 1079 c 0,29,30
 360 1168 360 1168 540 1179 c 1,31,-1
 540 1425 l 1,32,-1
 632 1425 l 1,33,-1
 632 1179 l 1,34,35
 725 1171 725 1171 810 1149 c 0,36,37
 897 1128 897 1128 977 1089 c 1,38,-1
 977 850 l 1,39,-1
 877 850 l 1,40,41
 866 955 866 955 803 1017 c 0,42,43
 741 1078 741 1078 632 1087 c 1,44,-1
 632 673 l 1,45,46
 857 611.5 857 611.5 947 532 c 0,47,48
 1037 454 1037 454 1037 320 c 0,49,50
 1037 168 1037 168 931 77 c 128,-1,51
 825 -14 825 -14 632 -28 c 1,52,-1
 632 -276 l 1,53,-1
 540 -276 l 1,54,-1
 540 -28 l 1,55,56
 450 -26 450 -26 358 -3 c 0,57,58
 262 20 262 20 161 66 c 1,16,-1
EndSplineSet
Validated: 1
EndChar

StartChar: percent
Encoding: 37 37 5
Width: 1781
VWidth: 1875
Flags: W
LayerCount: 2
Fore
SplineSet
420 1306 m 0,0,1
 340 1306 340 1306 294 1230 c 0,2,3
 249 1155 249 1155 249 1018 c 0,4,5
 249 883 249 883 295 807 c 0,6,7
 341 730 341 730 420 730 c 0,8,9
 498 730 498 730 543 806 c 0,10,11
 589 882 589 882 589 1018 c 128,-1,12
 589 1154 589 1154 543 1230 c 0,13,14
 498 1306 498 1306 420 1306 c 0,0,1
1363 635 m 0,15,16
 1282 635 1282 635 1238 558 c 0,17,18
 1193 481.5 1193 481.5 1193 345 c 0,19,20
 1193 210 1193 210 1239 134 c 0,21,22
 1284 58 1284 58 1363 58 c 128,-1,23
 1442 58 1442 58 1487 134 c 128,-1,24
 1532 210 1532 210 1532 345 c 0,25,26
 1532 481 1532 481 1486 558 c 0,27,28
 1442 635 1442 635 1363 635 c 0,15,16
1363 718 m 0,29,30
 1507 718 1507 718 1593 617 c 0,31,32
 1678 517 1678 517 1678 345 c 0,33,34
 1678 174 1678 174 1593 74 c 0,35,36
 1506 -27 1506 -27 1363 -27 c 0,37,38
 1216 -27 1216 -27 1132 74 c 0,39,40
 1046 175 1046 175 1046 345 c 0,41,42
 1046 517 1046 517 1132 618 c 0,43,44
 1218 718 1218 718 1363 718 c 0,29,30
1249 1392 m 1,45,-1
 1388 1392 l 1,46,-1
 533 -27 l 1,47,-1
 394 -27 l 1,48,-1
 1249 1392 l 1,45,-1
418 1392 m 128,-1,50
 563 1392 563 1392 649 1291 c 0,51,52
 735 1191 735 1191 735 1020 c 0,53,54
 735 847 735 847 650 747 c 0,55,56
 562 647 562 647 418 647 c 128,-1,57
 274 647 274 647 188 748 c 0,58,59
 103 848 103 848 103 1020 c 0,60,61
 103 1190 103 1190 189 1291 c 0,62,49
 273 1392 273 1392 418 1392 c 128,-1,50
EndSplineSet
Validated: 1
EndChar

StartChar: ampersand
Encoding: 38 38 6
Width: 1669
VWidth: 1875
Flags: W
LayerCount: 2
Fore
SplineSet
1013 211 m 1,0,-1
 480 773 l 1,1,2
 400 700 400 700 360 618 c 0,3,4
 320 533 320 533 320 442 c 0,5,6
 320 291 320 291 426 187 c 0,7,8
 532 84 532 84 688 84 c 0,9,10
 781 84 781 84 865 117 c 0,11,12
 945 147 945 147 1013 211 c 1,0,-1
1580 0 m 1,13,-1
 1213 0 l 1,14,-1
 1088 133 l 1,15,16
 993 53 993 53 883 13 c 0,17,18
 771 -27 771 -27 647 -27 c 0,19,20
 412 -27 412 -27 273 94 c 0,21,22
 135 216 135 216 135 422 c 0,23,24
 135 544 135 544 205 650 c 0,25,26
 274 754 274 754 417 848 c 1,27,28
 372 900 372 900 348 959 c 0,29,30
 326 1013 326 1013 326 1075 c 0,31,32
 326 1220.5 326 1220.5 431 1306 c 0,33,34
 537 1392 537 1392 716 1392 c 0,35,36
 773 1392 773 1392 859 1376 c 0,37,38
 936 1362 936 1362 1046 1329 c 1,39,-1
 1046 1093 l 1,40,-1
 943 1093 l 1,41,42
 929 1192 929 1192 872 1242 c 0,43,44
 814 1294 814 1294 712 1294 c 0,45,46
 619 1294 619 1294 559 1242 c 0,47,48
 501 1190 501 1190 501 1108 c 0,49,50
 501 1050 501 1050 532 997 c 0,51,52
 564 940 564 940 662 838 c 2,53,-1
 1134 340 l 1,54,55
 1199 414 1199 414 1234 498 c 0,56,57
 1270 582 1270 582 1279 678 c 1,58,-1
 1114 678 l 1,59,-1
 1114 776 l 1,60,-1
 1547 776 l 1,61,-1
 1547 678 l 1,62,-1
 1390 678 l 1,63,64
 1373 558 1373 558 1329 456 c 128,-1,65
 1285 354 1285 354 1208 265 c 1,66,-1
 1365 97 l 1,67,-1
 1580 97 l 1,68,-1
 1580 0 l 1,13,-1
EndSplineSet
Validated: 1
EndChar

StartChar: quotesingle
Encoding: 39 39 7
Width: 515
VWidth: 1875
Flags: W
LayerCount: 2
Fore
SplineSet
330 1367 m 1,0,-1
 330 859 l 1,1,-1
 184 859 l 1,2,-1
 184 1367 l 1,3,-1
 330 1367 l 1,0,-1
EndSplineSet
Validated: 1
EndChar

StartChar: parenleft
Encoding: 40 40 8
Width: 731
VWidth: 1875
Flags: W
TeX: 112 0
LayerCount: 2
Fore
SplineSet
598 -292 m 1,0,1
 377 -193 377 -193 262 24 c 0,2,3
 148 242 148 242 148 566 c 0,4,5
 148 892 148 892 262 1108 c 0,6,7
 375 1324 375 1324 598 1425 c 1,8,-1
 598 1335 l 1,9,10
 456 1237 456 1237 396 1062 c 0,11,12
 334 884 334 884 334 566 c 128,-1,13
 334 248 334 248 396 71 c 0,14,15
 456 -105 456 -105 598 -202 c 1,16,-1
 598 -292 l 1,0,1
EndSplineSet
Validated: 1
EndChar

StartChar: parenright
Encoding: 41 41 9
Width: 731
VWidth: 1875
Flags: W
TeX: 112 0
LayerCount: 2
Fore
SplineSet
133 -292 m 1,0,-1
 133 -202 l 1,1,2
 273 -107 273 -107 336 71 c 0,3,4
 397 245 397 245 397 566 c 0,5,6
 397 886 397 886 336 1062 c 0,7,8
 273 1238 273 1238 133 1335 c 1,9,-1
 133 1425 l 1,10,11
 357 1324 357 1324 470 1108 c 0,12,13
 583 891 583 891 583 566 c 0,14,15
 583 242 583 242 470 24 c 0,16,17
 355 -194 355 -194 133 -292 c 1,0,-1
EndSplineSet
Validated: 1
EndChar

StartChar: asterisk
Encoding: 42 42 10
Width: 937
VWidth: 1875
Flags: W
LayerCount: 2
Fore
SplineSet
907 1133 m 1,0,-1
 549 966 l 1,1,-1
 907 797 l 1,2,-1
 838 688 l 1,3,-1
 519 887 l 1,4,-1
 531 538 l 1,5,-1
 406 538 l 1,6,-1
 418 887 l 1,7,-1
 100 688 l 1,8,-1
 30 797 l 1,9,-1
 388 964 l 1,10,-1
 30 1133 l 1,11,-1
 100 1241 l 1,12,-1
 418 1043 l 1,13,-1
 406 1392 l 1,14,-1
 531 1392 l 1,15,-1
 519 1043 l 1,16,-1
 838 1241 l 1,17,-1
 907 1133 l 1,0,-1
EndSplineSet
Validated: 1
EndChar

StartChar: plus
Encoding: 43 43 11
Width: 1571
VWidth: 1875
Flags: W
LayerCount: 2
Fore
SplineSet
859 1176 m 1,0,-1
 859 662 l 1,1,-1
 1372 662 l 1,2,-1
 1372 514 l 1,3,-1
 859 514 l 1,4,-1
 859 0 l 1,5,-1
 712 0 l 1,6,-1
 712 514 l 1,7,-1
 199 514 l 1,8,-1
 199 662 l 1,9,-1
 712 662 l 1,10,-1
 712 1176 l 1,11,-1
 859 1176 l 1,0,-1
EndSplineSet
Validated: 1
EndChar

StartChar: comma
Encoding: 44 44 12
Width: 596
VWidth: 1875
Flags: W
LayerCount: 2
Fore
SplineSet
68 -182 m 1,0,1
 153 -119 153 -119 194 -33 c 0,2,3
 234 51 234 51 234 174 c 2,4,-1
 234 208 l 1,5,-1
 415 208 l 1,6,7
 408 53 408 53 341 -61 c 0,8,9
 276 -171 276 -171 141 -255 c 1,10,-1
 68 -182 l 1,0,1
EndSplineSet
Validated: 1
EndChar

StartChar: hyphen
Encoding: 45 45 13
Width: 633
VWidth: 1875
Flags: W
LayerCount: 2
Fore
SplineSet
82 574 m 1,0,-1
 551 574 l 1,1,-1
 551 431 l 1,2,-1
 82 431 l 1,3,-1
 82 574 l 1,0,-1
EndSplineSet
Validated: 1
EndChar

StartChar: period
Encoding: 46 46 14
Width: 596
VWidth: 1875
Flags: W
TeX: 112 0
LayerCount: 2
Fore
SplineSet
177 95 m 128,-1,1
 177 147 177 147 211 182 c 0,2,3
 247 218 247 218 298 218 c 128,-1,4
 349 218 349 218 385 182 c 0,5,6
 420 145 420 145 420 95 c 0,7,8
 420 46 420 46 385 9 c 0,9,10
 349 -27 349 -27 298 -27 c 128,-1,11
 247 -27 247 -27 211 9 c 0,12,0
 177 43 177 43 177 95 c 128,-1,1
EndSplineSet
Validated: 1
EndChar

StartChar: slash
Encoding: 47 47 15
Width: 631
VWidth: 1875
Flags: W
TeX: 115 0
LayerCount: 2
Fore
SplineSet
485 1367 m 1,0,-1
 632 1367 l 1,1,-1
 146 -174 l 1,2,-1
 0 -174 l 1,3,-1
 485 1367 l 1,0,-1
EndSplineSet
Validated: 1
EndChar

StartChar: zero
Encoding: 48 48 16
Width: 1192
VWidth: 1875
Flags: W
LayerCount: 2
Fore
SplineSet
596 64 m 128,-1,1
 736 64 736 64 806 218 c 0,2,3
 875 371 875 371 875 682 c 0,4,5
 875 994 875 994 806 1147 c 0,6,7
 736 1301 736 1301 596 1301 c 128,-1,8
 456 1301 456 1301 386 1147 c 0,9,10
 317 994 317 994 317 682 c 0,11,12
 317 371 317 371 386 218 c 0,13,0
 456 64 456 64 596 64 c 128,-1,1
596 -27 m 0,14,15
 374 -27 374 -27 249 160 c 0,16,17
 124 346 124 346 124 682 c 0,18,19
 124 1019 124 1019 249 1205 c 0,20,21
 374 1392 374 1392 596 1392 c 0,22,23
 819 1392 819 1392 944 1205 c 0,24,25
 1068 1018 1068 1018 1068 682 c 0,26,27
 1068 347 1068 347 944 160 c 0,28,29
 819 -27 819 -27 596 -27 c 0,14,15
EndSplineSet
Validated: 1
EndChar

StartChar: one
Encoding: 49 49 17
Width: 1192
VWidth: 1875
Flags: W
LayerCount: 2
Fore
SplineSet
266 0 m 1,0,-1
 266 97 l 1,1,-1
 504 97 l 1,2,-1
 504 1234 l 1,3,-1
 229 1056 l 1,4,-1
 229 1176 l 1,5,-1
 562 1392 l 1,6,-1
 688 1392 l 1,7,-1
 688 97 l 1,8,-1
 927 97 l 1,9,-1
 927 0 l 1,10,-1
 266 0 l 1,0,-1
EndSplineSet
Validated: 1
EndChar

StartChar: two
Encoding: 50 50 18
Width: 1192
VWidth: 1875
Flags: W
LayerCount: 2
Fore
SplineSet
240 1041 m 1,0,-1
 137 1041 l 1,1,-1
 137 1284 l 1,2,3
 239 1338 239 1338 335 1364 c 0,4,5
 438 1392 438 1392 529 1392 c 0,6,7
 742 1392 742 1392 866 1288 c 128,-1,8
 990 1184 990 1184 990 1007 c 0,9,10
 990 809 990 809 710 527 c 2,11,-1
 677 495 l 1,12,-1
 331 150 l 1,13,-1
 902 150 l 1,14,-1
 902 319 l 1,15,-1
 1009 319 l 1,16,-1
 1009 0 l 1,17,-1
 127 0 l 1,18,-1
 127 100 l 1,19,-1
 542 514 l 2,20,21
 679 650 679 650 738 766 c 0,22,23
 797 881 797 881 797 1007 c 0,24,25
 797 1145 797 1145 725 1223 c 128,-1,26
 653 1301 653 1301 526 1301 c 0,27,28
 397 1301 397 1301 324 1236 c 0,29,30
 252 1171.5 252 1171.5 240 1041 c 1,0,-1
EndSplineSet
Validated: 1
EndChar

StartChar: three
Encoding: 51 51 19
Width: 1192
VWidth: 1875
Flags: W
LayerCount: 2
Fore
SplineSet
182 1309 m 1,0,1
 294 1351 294 1351 388 1371 c 0,2,3
 486 1392 486 1392 572 1392 c 0,4,5
 772 1392 772 1392 885 1305 c 128,-1,6
 998 1218 998 1218 998 1065 c 0,7,8
 998 942 998 942 920 858 c 0,9,10
 842 776 842 776 699 746 c 1,11,12
 869 722 869 722 961 624 c 0,13,14
 1054 525 1054 525 1054 369 c 0,15,16
 1054 178 1054 178 925 76 c 0,17,18
 797 -27 797 -27 555 -27 c 0,19,20
 450 -27 450 -27 346 -4 c 0,21,22
 241 21 241 21 143 66 c 1,23,-1
 143 331 l 1,24,-1
 245 331 l 1,25,26
 254 200 254 200 334 132 c 128,-1,27
 414 64 414 64 558 64 c 0,28,29
 699 64 699 64 780 145 c 128,-1,30
 861 226 861 226 861 367 c 0,31,32
 861 528 861 528 777 611 c 0,33,34
 694 694 694 694 533 694 c 2,35,-1
 446 694 l 1,36,-1
 446 787 l 1,37,-1
 492 787 l 2,38,39
 653 787 653 787 732 854 c 0,40,41
 812 920 812 920 812 1054 c 0,42,43
 812 1174 812 1174 746 1237 c 0,44,45
 681 1301 681 1301 557 1301 c 128,-1,46
 433 1301 433 1301 365 1242 c 0,47,48
 297 1184 297 1184 285 1068 c 1,49,-1
 182 1068 l 1,50,-1
 182 1309 l 1,0,1
EndSplineSet
Validated: 1
EndChar

StartChar: four
Encoding: 52 52 20
Width: 1192
VWidth: 1875
Flags: W
LayerCount: 2
Fore
SplineSet
655 463 m 1,0,-1
 655 1190 l 1,1,-1
 188 463 l 1,2,-1
 655 463 l 1,0,-1
1057 0 m 1,3,-1
 435 0 l 1,4,-1
 435 97 l 1,5,-1
 655 97 l 1,6,-1
 655 365 l 1,7,-1
 58 365 l 1,8,-1
 58 465 l 1,9,-1
 656 1392 l 1,10,-1
 838 1392 l 1,11,-1
 838 463 l 1,12,-1
 1099 463 l 1,13,-1
 1099 365 l 1,14,-1
 838 365 l 1,15,-1
 838 97 l 1,16,-1
 1057 97 l 1,17,-1
 1057 0 l 1,3,-1
EndSplineSet
Validated: 1
EndChar

StartChar: five
Encoding: 53 53 21
Width: 1192
VWidth: 1875
Flags: W
LayerCount: 2
Fore
SplineSet
943 1367 m 1,0,-1
 943 1217 l 1,1,-1
 317 1217 l 1,2,-1
 317 825 l 1,3,4
 364 857 364 857 428 874 c 0,5,6
 493 891 493 891 570 891 c 0,7,8
 792 891 792 891 920 768 c 0,9,10
 1048 646 1048 646 1048 433 c 0,11,12
 1048 216 1048 216 919 95 c 0,13,14
 788 -27 788 -27 555 -27 c 0,15,16
 463 -27 463 -27 362 -4 c 0,17,18
 259 21 259 21 159 66 c 1,19,-1
 159 331 l 1,20,-1
 263 331 l 1,21,22
 270 202 270 202 346 133 c 0,23,24
 420 64 420 64 555 64 c 0,25,26
 699 64 699 64 777 159 c 0,27,28
 855 255 855 255 855 433 c 0,29,30
 855 610 855 610 778 705 c 128,-1,31
 701 800 701 800 555 800 c 0,32,33
 474 800 474 800 410 771 c 0,34,35
 347 741 347 741 298 680 c 1,36,-1
 220 680 l 1,37,-1
 220 1367 l 1,38,-1
 943 1367 l 1,0,-1
EndSplineSet
Validated: 1
EndChar

StartChar: six
Encoding: 54 54 22
Width: 1192
VWidth: 1875
Flags: W
LayerCount: 2
Fore
SplineSet
613 64 m 0,0,1
 743 64 743 64 812 159 c 0,2,3
 882 255 882 255 882 431 c 128,-1,4
 882 607 882 607 812 704 c 0,5,6
 743 798 743 798 613 798 c 128,-1,7
 483 798 483 798 414 707 c 128,-1,8
 345 616 345 616 345 442 c 0,9,10
 345 259 345 259 415 162 c 0,11,12
 484 64 484 64 613 64 c 0,0,1
315 753 m 1,13,14
 379 823 379 823 456 855 c 0,15,16
 533 889 533 889 634 889 c 0,17,18
 838 889 838 889 956 766 c 0,19,20
 1075 644 1075 644 1075 431 c 0,21,22
 1075 224 1075 224 947 98 c 0,23,24
 819 -27 819 -27 606 -27 c 0,25,26
 375 -27 375 -27 250 146 c 128,-1,27
 125 319 125 319 125 639 c 0,28,29
 125 997 125 997 273 1195 c 0,30,31
 420 1392 420 1392 688 1392 c 0,32,33
 758 1392 758 1392 840 1378 c 0,34,35
 917 1365 917 1365 1003 1337 c 1,36,-1
 1003 1111 l 1,37,-1
 900 1111 l 1,38,39
 890 1204 890 1204 829 1252 c 0,40,41
 771 1301 771 1301 669 1301 c 0,42,43
 492 1301 492 1301 405 1166 c 0,44,45
 318 1033 318 1033 315 753 c 1,13,14
EndSplineSet
Validated: 1
EndChar

StartChar: seven
Encoding: 55 55 23
Width: 1192
VWidth: 1875
Flags: W
LayerCount: 2
Fore
SplineSet
1057 1273 m 1,0,-1
 523 0 l 1,1,-1
 386 0 l 1,2,-1
 896 1217 l 1,3,-1
 265 1217 l 1,4,-1
 265 1048 l 1,5,-1
 157 1048 l 1,6,-1
 157 1367 l 1,7,-1
 1057 1367 l 1,8,-1
 1057 1273 l 1,0,-1
EndSplineSet
Validated: 1
EndChar

StartChar: eight
Encoding: 56 56 24
Width: 1192
VWidth: 1875
Flags: W
LayerCount: 2
Fore
SplineSet
873 374 m 0,0,1
 873 520 873 520 801 601 c 0,2,3
 728 682 728 682 596 682 c 128,-1,4
 464 682 464 682 391 601 c 0,5,6
 319 520 319 520 319 374 c 0,7,8
 319 226 319 226 391 145 c 0,9,10
 464 64 464 64 596 64 c 128,-1,11
 728 64 728 64 801 145 c 0,12,13
 873 226 873 226 873 374 c 0,0,1
836 1037 m 0,14,15
 836 1162 836 1162 773 1231 c 0,16,17
 710 1301 710 1301 596 1301 c 0,18,19
 483 1301 483 1301 420 1231 c 0,20,21
 356 1163 356 1163 356 1037 c 0,22,23
 356 912 356 912 420 842 c 0,24,25
 483 773 483 773 596 773 c 0,26,27
 710 773 710 773 773 842 c 0,28,29
 836 912.5 836 912.5 836 1037 c 0,14,15
737 728 m 1,30,31
 894 707 894 707 980 613 c 0,32,33
 1067 518 1067 518 1067 374 c 0,34,35
 1067 182 1067 182 945 77 c 0,36,37
 823 -27 823 -27 596 -27 c 0,38,39
 370 -27 370 -27 248 77 c 0,40,41
 125 182 125 182 125 374 c 0,42,43
 125 518 125 518 212 613 c 0,44,45
 298 707 298 707 456 728 c 1,46,47
 317 752 317 752 244 833 c 0,48,49
 170 913 170 913 170 1037 c 0,50,51
 170 1202 170 1202 284 1297 c 0,52,53
 397 1392 397 1392 596 1392 c 128,-1,54
 795 1392 795 1392 908 1297 c 0,55,56
 1022 1202 1022 1202 1022 1037 c 0,57,58
 1022 913 1022 913 948 833 c 0,59,60
 874 752 874 752 737 728 c 1,30,31
EndSplineSet
Validated: 1
EndChar

StartChar: nine
Encoding: 57 57 25
Width: 1192
VWidth: 1875
Flags: W
LayerCount: 2
Fore
SplineSet
877 612 m 1,0,1
 815.5 544.5 815.5 544.5 736 510 c 0,2,3
 658 476 658 476 557 476 c 0,4,5
 353 476 353 476 236 599 c 0,6,7
 118 721 118 721 118 934 c 0,8,9
 118 1141 118 1141 246 1267 c 0,10,11
 374 1392 374 1392 587 1392 c 0,12,13
 818 1392 818 1392 943 1219 c 0,14,15
 1067 1045 1067 1045 1067 726 c 0,16,17
 1067 369 1067 369 919 170 c 0,18,19
 772 -27 772 -27 504 -27 c 0,20,21
 436 -27 436 -27 352 -13 c 0,22,23
 276 -0 276 -0 190 28 c 1,24,-1
 190 255 l 1,25,-1
 292 255 l 1,26,27
 304 162 304 162 363 114 c 0,28,29
 424 64 424 64 523 64 c 0,30,31
 700 64 700 64 787 198 c 0,32,33
 874 333 874 333 877 612 c 1,0,1
580 1301 m 0,34,35
 449 1301 449 1301 380 1206 c 0,36,37
 311 1112 311 1112 311 934 c 0,38,39
 311 755.5 311 755.5 380 661 c 0,40,41
 449 566 449 566 580 566 c 128,-1,42
 711 566 711 566 779 658 c 0,43,44
 848 750 848 750 848 923 c 0,45,46
 848 1106 848 1106 778 1203 c 0,47,48
 709 1301 709 1301 580 1301 c 0,34,35
EndSplineSet
Validated: 1
EndChar

StartChar: colon
Encoding: 58 58 26
Width: 631
VWidth: 1875
Flags: W
TeX: 99 0
LayerCount: 2
Fore
SplineSet
195 95 m 0,0,1
 195 145 195 145 230 182 c 0,2,3
 266 218 266 218 317 218 c 128,-1,4
 368 218 368 218 403 182 c 0,5,6
 439 146 439 146 439 95 c 128,-1,7
 439 44 439 44 404 9 c 0,8,9
 369.5 -27 369.5 -27 317 -27 c 128,-1,10
 264.5 -27 264.5 -27 230 9 c 0,11,12
 195 44 195 44 195 95 c 0,0,1
195 692 m 0,13,14
 195 742 195 742 230 779 c 0,15,16
 267 814 267 814 317 814 c 0,17,18
 369 814 369 814 404 779 c 128,-1,19
 439 744 439 744 439 692 c 128,-1,20
 439 640 439 640 404 605 c 128,-1,21
 369 570 369 570 317 570 c 0,22,23
 266 570 266 570 230 606 c 0,24,25
 195 641 195 641 195 692 c 0,13,14
EndSplineSet
Validated: 1
EndChar

StartChar: semicolon
Encoding: 59 59 27
Width: 631
VWidth: 1875
Flags: W
LayerCount: 2
Fore
SplineSet
68 -182 m 1,0,1
 153 -119 153 -119 194 -33 c 0,2,3
 234 51 234 51 234 174 c 2,4,-1
 234 208 l 1,5,-1
 415 208 l 1,6,7
 408 53 408 53 341 -61 c 0,8,9
 276 -171 276 -171 141 -255 c 1,10,-1
 68 -182 l 1,0,1
199 692 m 128,-1,12
 199 744 199 744 234 779 c 128,-1,13
 269 814 269 814 320 814 c 128,-1,14
 371 814 371 814 407 778 c 0,15,16
 442 741 442 741 442 692 c 0,17,18
 442 641 442 641 407 606 c 0,19,20
 371 570 371 570 320 570 c 0,21,22
 268 570 268 570 234 606 c 0,23,11
 199 640 199 640 199 692 c 128,-1,12
EndSplineSet
Validated: 1
EndChar

StartChar: less
Encoding: 60 60 28
Width: 1571
VWidth: 1875
Flags: W
LayerCount: 2
Fore
SplineSet
1372 934 m 1,0,-1
 422 587 l 1,1,-1
 1372 242 l 1,2,-1
 1372 86 l 1,3,-1
 199 512 l 1,4,-1
 199 664 l 1,5,-1
 1372 1089 l 1,6,-1
 1372 934 l 1,0,-1
EndSplineSet
Validated: 1
EndChar

StartChar: equal
Encoding: 61 61 29
Width: 1571
VWidth: 1875
Flags: W
LayerCount: 2
Fore
SplineSet
199 848 m 1,0,-1
 1372 848 l 1,1,-1
 1372 701 l 1,2,-1
 199 701 l 1,3,-1
 199 848 l 1,0,-1
199 474 m 1,4,-1
 1372 474 l 1,5,-1
 1372 328 l 1,6,-1
 199 328 l 1,7,-1
 199 474 l 1,4,-1
EndSplineSet
Validated: 1
EndChar

StartChar: greater
Encoding: 62 62 30
Width: 1571
VWidth: 1875
Flags: W
LayerCount: 2
Fore
SplineSet
199 934 m 1,0,-1
 199 1089 l 1,1,-1
 1372 664 l 1,2,-1
 1372 512 l 1,3,-1
 199 86 l 1,4,-1
 199 242 l 1,5,-1
 1149 587 l 1,6,-1
 199 934 l 1,0,-1
EndSplineSet
Validated: 1
EndChar

StartChar: question
Encoding: 63 63 31
Width: 1005
VWidth: 1875
Flags: W
TeX: 113 0
LayerCount: 2
Fore
SplineSet
330 95 m 128,-1,1
 330 147 330 147 365 182 c 0,2,3
 399.5 218 399.5 218 452 218 c 0,4,5
 504 218 504 218 538 182 c 0,6,7
 574 146 574 146 574 95 c 0,8,9
 574 45 574 45 538 9 c 0,10,11
 504 -27 504 -27 452 -27 c 0,12,13
 399.5 -27 399.5 -27 365 9 c 0,14,0
 330 43 330 43 330 95 c 128,-1,1
127 1306 m 1,15,16
 228 1351 228 1351 312 1371 c 0,17,18
 399 1392 399 1392 476 1392 c 0,19,20
 679 1392 679 1392 797 1294 c 0,21,22
 915 1194 915 1194 915 1029 c 0,23,24
 915 859 915 859 813 751 c 0,25,26
 712 643 712 643 508 596 c 1,27,-1
 508 363 l 1,28,-1
 396 363 l 1,29,-1
 396 664 l 1,30,31
 558 703 558 703 639 796 c 0,32,33
 721 887 721 887 721 1031 c 0,34,35
 721 1155.5 721 1155.5 655 1229 c 0,36,37
 587.5 1301 587.5 1301 472 1301 c 0,38,39
 368 1301 368 1301 302 1241 c 0,40,41
 236 1182 236 1182 216 1068 c 1,42,-1
 127 1068 l 1,43,-1
 127 1306 l 1,15,16
EndSplineSet
Validated: 1
EndChar

StartChar: at
Encoding: 64 64 32
Width: 1875
VWidth: 1875
Flags: W
LayerCount: 2
Fore
SplineSet
1185 227 m 1,0,1
 1132 153 1132 153 1063 115 c 0,2,3
 997 79 997 79 911 79 c 0,4,5
 750 79 750 79 651 193 c 0,6,7
 551 306 551 306 551 492 c 0,8,9
 551 677 551 677 651 790 c 0,10,11
 750 904 750 904 911 904 c 0,12,13
 995 904 995 904 1063 867 c 0,14,15
 1130 831 1130 831 1185 755 c 1,16,-1
 1185 885 l 1,17,-1
 1328 885 l 1,18,-1
 1328 179 l 1,19,20
 1483 212 1483 212 1569 327 c 0,21,22
 1655 440 1655 440 1655 613 c 0,23,24
 1655 716 1655 716 1624 806 c 0,25,26
 1591 899 1591 899 1532 973 c 0,27,28
 1435 1094 1435 1094 1295 1160 c 0,29,30
 1157 1224 1157 1224 992 1224 c 0,31,32
 911 1224 911 1224 829 1207 c 0,33,34
 751 1190 751 1190 669 1154 c 0,35,36
 484 1068 484 1068 382 896 c 0,37,38
 279 724 279 724 279 497 c 0,39,40
 279 342 279 342 325 216 c 0,41,42
 372 87 372 87 458 -7 c 0,43,44
 556 -115 556 -115 694 -173 c 0,45,46
 831 -231 831 -231 990 -231 c 0,47,48
 1107 -231 1107 -231 1210 -196 c 0,49,50
 1311 -162 1311 -162 1401 -92 c 1,51,-1
 1449 -156 l 1,52,53
 1347 -242 1347 -242 1225 -283 c 0,54,55
 1100 -326 1100 -326 950 -326 c 0,56,57
 782 -326 782 -326 630 -265 c 0,58,59
 477 -203 477 -203 363 -92 c 0,60,61
 246 26 246 26 184 174 c 0,62,63
 124 324 124 324 124 497 c 0,64,65
 124 666 124 666 185 815 c 0,66,67
 248 966 248 966 363 1080 c 0,68,69
 480 1195 480 1195 638 1258 c 0,70,71
 797 1320 797 1320 973 1320 c 0,72,73
 1170 1320 1170 1320 1331 1244 c 0,74,75
 1494 1168 1494 1168 1601 1025 c 0,76,77
 1671 938 1671 938 1707 830 c 0,78,79
 1742 723 1742 723 1742 612 c 0,80,81
 1742 366 1742 366 1593 224 c 0,82,83
 1445 82 1445 82 1186 79 c 1,84,-1
 1185 227 l 1,0,1
1185 444 m 2,85,-1
 1185 540 l 2,86,87
 1185 654 1185 654 1119 726 c 0,88,89
 1054 797 1054 797 948 797 c 0,90,91
 838 797 838 797 776 716 c 0,92,93
 714 636 714 636 714 492 c 0,94,95
 714 346 714 346 776 266 c 0,96,97
 839 186 839 186 950 186 c 0,98,99
 1054 186 1054 186 1120 258 c 0,100,101
 1185 331 1185 331 1185 444 c 2,85,-1
EndSplineSet
Validated: 1
EndChar

StartChar: A
Encoding: 65 65 33
Width: 1354
VWidth: 1875
Flags: W
TeX: 65 0
LayerCount: 2
Fore
SplineSet
375 495 m 1,0,-1
 877 495 l 1,1,-1
 626 1145 l 1,2,-1
 375 495 l 1,0,-1
-11 0 m 1,3,-1
 -11 97 l 1,4,-1
 109 97 l 1,5,-1
 596 1367 l 1,6,-1
 750 1367 l 1,7,-1
 1238 97 l 1,8,-1
 1372 97 l 1,9,-1
 1372 0 l 1,10,-1
 875 0 l 1,11,-1
 875 97 l 1,12,-1
 1027 97 l 1,13,-1
 913 397 l 1,14,-1
 338 397 l 1,15,-1
 223 97 l 1,16,-1
 374 97 l 1,17,-1
 374 0 l 1,18,-1
 -11 0 l 1,3,-1
EndSplineSet
Validated: 1
EndChar

StartChar: B
Encoding: 66 66 34
Width: 1377
VWidth: 1875
Flags: W
TeX: 66 0
LayerCount: 2
Fore
SplineSet
463 97 m 1,0,-1
 737 97 l 2,1,2
 901 97 901 97 978 168 c 0,3,4
 1054 241 1054 241 1054 396 c 128,-1,5
 1054 551 1054 551 978 621 c 0,6,7
 902 692 902 692 737 692 c 2,8,-1
 463 692 l 1,9,-1
 463 97 l 1,0,-1
463 789 m 1,10,-1
 696 789 l 2,11,12
 847 789 847 789 915 847 c 0,13,14
 984 904 984 904 984 1029 c 0,15,16
 984 1155 984 1155 915 1212 c 128,-1,17
 846 1269 846 1269 696 1269 c 2,18,-1
 463 1269 l 1,19,-1
 463 789 l 1,10,-1
103 0 m 1,20,-1
 103 97 l 1,21,-1
 277 97 l 1,22,-1
 277 1269 l 1,23,-1
 103 1269 l 1,24,-1
 103 1367 l 1,25,-1
 778 1367 l 2,26,27
 986 1367 986 1367 1090 1282 c 0,28,29
 1195 1198 1195 1198 1195 1029 c 0,30,31
 1195 907 1195 907 1122 835 c 0,32,33
 1048 762 1048 762 909 746 c 1,34,35
 1081 725 1081 725 1173 635 c 0,36,37
 1263 545 1263 545 1263 396 c 0,38,39
 1263 191 1263 191 1135 96 c 0,40,41
 1008 0 1008 0 735 0 c 2,42,-1
 103 0 l 1,20,-1
EndSplineSet
Validated: 1
EndChar

StartChar: C
Encoding: 67 67 35
Width: 1434
VWidth: 1875
Flags: W
TeX: 67 0
LayerCount: 2
Fore
SplineSet
1322 362 m 1,0,1
 1262 170 1262 170 1119 72 c 0,2,3
 976.5 -27 976.5 -27 759 -27 c 0,4,5
 628 -27 628 -27 511 19 c 0,6,7
 396 66 396 66 308 154 c 0,8,9
 205 256 205 256 155 387 c 0,10,11
 105 519 105 519 105 682 c 0,12,13
 105 1000 105 1000 289 1196 c 0,14,15
 474 1392 474 1392 775 1392 c 0,16,17
 886 1392 886 1392 1013 1362 c 0,18,19
 1135 1334 1135 1334 1284 1273 c 1,20,-1
 1284 959 l 1,21,-1
 1181 959 l 1,22,23
 1146 1132 1146 1132 1045 1212 c 0,24,25
 942 1294 942 1294 759 1294 c 0,26,27
 540 1294 540 1294 428 1138 c 0,28,29
 315 985 315 985 315 682 c 0,30,31
 315 380 315 380 428 227 c 0,32,33
 540 71 540 71 759 71 c 0,34,35
 911 71 911 71 1011 144 c 0,36,37
 1109 217 1109 217 1154 362 c 1,38,-1
 1322 362 l 1,0,1
EndSplineSet
Validated: 1
EndChar

StartChar: D
Encoding: 68 68 36
Width: 1503
VWidth: 1875
Flags: W
TeX: 68 0
LayerCount: 2
Fore
SplineSet
463 97 m 1,0,-1
 634 97 l 2,1,2
 899 97 899 97 1042 249 c 128,-1,3
 1185 401 1185 401 1185 685 c 0,4,5
 1185 968 1185 968 1043 1119 c 0,6,7
 900 1269 900 1269 634 1269 c 2,8,-1
 463 1269 l 1,9,-1
 463 97 l 1,0,-1
103 0 m 1,10,-1
 103 97 l 1,11,-1
 277 97 l 1,12,-1
 277 1269 l 1,13,-1
 103 1269 l 1,14,-1
 103 1367 l 1,15,-1
 647 1367 l 2,16,17
 1000 1367 1000 1367 1198 1187 c 0,18,19
 1395 1006 1395 1006 1395 685 c 0,20,21
 1395 363 1395 363 1198 181 c 0,22,23
 1001 0 1001 0 647 0 c 2,24,-1
 103 0 l 1,10,-1
EndSplineSet
Validated: 1
EndChar

StartChar: E
Encoding: 69 69 37
Width: 1368
VWidth: 1875
Flags: W
TeX: 69 0
LayerCount: 2
Fore
SplineSet
103 0 m 1,0,-1
 103 97 l 1,1,-1
 277 97 l 1,2,-1
 277 1269 l 1,3,-1
 103 1269 l 1,4,-1
 103 1367 l 1,5,-1
 1204 1367 l 1,6,-1
 1204 1063 l 1,7,-1
 1091 1063 l 1,8,-1
 1091 1254 l 1,9,-1
 463 1254 l 1,10,-1
 463 797 l 1,11,-1
 911 797 l 1,12,-1
 911 968 l 1,13,-1
 1024 968 l 1,14,-1
 1024 514 l 1,15,-1
 911 514 l 1,16,-1
 911 685 l 1,17,-1
 463 685 l 1,18,-1
 463 113 l 1,19,-1
 1106 113 l 1,20,-1
 1106 304 l 1,21,-1
 1219 304 l 1,22,-1
 1219 0 l 1,23,-1
 103 0 l 1,0,-1
EndSplineSet
Validated: 1
EndChar

StartChar: F
Encoding: 70 70 38
Width: 1300
VWidth: 1875
Flags: W
TeX: 70 0
LayerCount: 2
Fore
SplineSet
103 0 m 1,0,-1
 103 97 l 1,1,-1
 277 97 l 1,2,-1
 277 1269 l 1,3,-1
 103 1269 l 1,4,-1
 103 1367 l 1,5,-1
 1222 1367 l 1,6,-1
 1222 1063 l 1,7,-1
 1110 1063 l 1,8,-1
 1110 1254 l 1,9,-1
 463 1254 l 1,10,-1
 463 797 l 1,11,-1
 930 797 l 1,12,-1
 930 968 l 1,13,-1
 1043 968 l 1,14,-1
 1043 514 l 1,15,-1
 930 514 l 1,16,-1
 930 685 l 1,17,-1
 463 685 l 1,18,-1
 463 97 l 1,19,-1
 682 97 l 1,20,-1
 682 0 l 1,21,-1
 103 0 l 1,0,-1
EndSplineSet
Validated: 1
EndChar

StartChar: G
Encoding: 71 71 39
Width: 1497
VWidth: 1875
Flags: W
TeX: 71 0
LayerCount: 2
Fore
SplineSet
1200 959 m 1,0,1
 1169 1128 1169 1128 1067 1212 c 0,2,3
 964 1294 964 1294 784 1294 c 0,4,5
 548 1294 548 1294 431 1142 c 0,6,7
 315 988 315 988 315 682 c 0,8,9
 315 380.5 315 380.5 435 226 c 0,10,11
 555 71 555 71 787 71 c 0,12,13
 889 71 889 71 985 97 c 0,14,15
 1078 122 1078 122 1165 174 c 1,16,-1
 1165 526 l 1,17,-1
 907 526 l 1,18,-1
 907 624 l 1,19,-1
 1350 624 l 1,20,-1
 1350 114 l 1,21,22
 1228 43 1228 43 1088 9 c 0,23,24
 947 -27 947 -27 787 -27 c 0,25,26
 478 -27 478 -27 292 167 c 0,27,28
 105 360 105 360 105 682 c 128,-1,29
 105 1004 105 1004 292 1199 c 0,30,31
 480 1392 480 1392 795 1392 c 0,32,33
 912 1392 912 1392 1037 1365 c 0,34,35
 1157 1339 1157 1339 1303 1283 c 1,36,-1
 1303 959 l 1,37,-1
 1200 959 l 1,0,1
EndSplineSet
Validated: 1
EndChar

StartChar: H
Encoding: 72 72 40
Width: 1635
VWidth: 1875
Flags: W
TeX: 72 0
LayerCount: 2
Fore
SplineSet
103 0 m 1,0,-1
 103 97 l 1,1,-1
 277 97 l 1,2,-1
 277 1269 l 1,3,-1
 103 1269 l 1,4,-1
 103 1367 l 1,5,-1
 637 1367 l 1,6,-1
 637 1269 l 1,7,-1
 463 1269 l 1,8,-1
 463 797 l 1,9,-1
 1172 797 l 1,10,-1
 1172 1269 l 1,11,-1
 998 1269 l 1,12,-1
 998 1367 l 1,13,-1
 1532 1367 l 1,14,-1
 1532 1269 l 1,15,-1
 1358 1269 l 1,16,-1
 1358 97 l 1,17,-1
 1532 97 l 1,18,-1
 1532 0 l 1,19,-1
 998 0 l 1,20,-1
 998 97 l 1,21,-1
 1172 97 l 1,22,-1
 1172 685 l 1,23,-1
 463 685 l 1,24,-1
 463 97 l 1,25,-1
 637 97 l 1,26,-1
 637 0 l 1,27,-1
 103 0 l 1,0,-1
EndSplineSet
Validated: 1
EndChar

StartChar: I
Encoding: 73 73 41
Width: 740
VWidth: 1875
Flags: W
TeX: 73 0
LayerCount: 2
Fore
SplineSet
463 97 m 1,0,-1
 637 97 l 1,1,-1
 637 0 l 1,2,-1
 103 0 l 1,3,-1
 103 97 l 1,4,-1
 277 97 l 1,5,-1
 277 1269 l 1,6,-1
 103 1269 l 1,7,-1
 103 1367 l 1,8,-1
 637 1367 l 1,9,-1
 637 1269 l 1,10,-1
 463 1269 l 1,11,-1
 463 97 l 1,0,-1
EndSplineSet
Validated: 1
EndChar

StartChar: J
Encoding: 74 74 42
Width: 751
VWidth: 1875
Flags: W
TeX: 74 0
LayerCount: 2
Fore
SplineSet
-157 -328 m 1,0,-1
 -157 -113 l 1,1,-1
 -53 -113 l 1,2,3
 -50 -204 -50 -204 -10 -248 c 0,4,5
 31 -292 31 -292 111 -292 c 0,6,7
 220 -292 220 -292 263 -223 c 128,-1,8
 306 -154 306 -154 306 45 c 2,9,-1
 306 1269 l 1,10,-1
 93 1269 l 1,11,-1
 93 1367 l 1,12,-1
 666 1367 l 1,13,-1
 666 1269 l 1,14,-1
 492 1269 l 1,15,-1
 492 38 l 2,16,17
 492 -187 492 -187 401 -289 c 0,18,19
 311 -390 311 -390 109 -390 c 0,20,21
 42 -390 42 -390 -23 -374 c 0,22,23
 -93 -358 -93 -358 -157 -328 c 1,0,-1
EndSplineSet
Validated: 1
EndChar

StartChar: K
Encoding: 75 75 43
Width: 1400
VWidth: 1875
Flags: W
TeX: 75 0
LayerCount: 2
Fore
SplineSet
103 0 m 1,0,-1
 103 97 l 1,1,-1
 277 97 l 1,2,-1
 277 1269 l 1,3,-1
 103 1269 l 1,4,-1
 103 1367 l 1,5,-1
 637 1367 l 1,6,-1
 637 1269 l 1,7,-1
 463 1269 l 1,8,-1
 463 752 l 1,9,-1
 1052 1269 l 1,10,-1
 904 1269 l 1,11,-1
 904 1367 l 1,12,-1
 1358 1367 l 1,13,-1
 1358 1269 l 1,14,-1
 1204 1269 l 1,15,-1
 617 753 l 1,16,-1
 1273 97 l 1,17,-1
 1429 97 l 1,18,-1
 1429 0 l 1,19,-1
 1111 0 l 1,20,-1
 463 649 l 1,21,-1
 463 97 l 1,22,-1
 637 97 l 1,23,-1
 637 0 l 1,24,-1
 103 0 l 1,0,-1
EndSplineSet
Validated: 1
EndChar

StartChar: L
Encoding: 76 76 44
Width: 1245
VWidth: 1875
Flags: W
TeX: 76 0
LayerCount: 2
Fore
SplineSet
103 0 m 1,0,-1
 103 97 l 1,1,-1
 277 97 l 1,2,-1
 277 1269 l 1,3,-1
 103 1269 l 1,4,-1
 103 1367 l 1,5,-1
 637 1367 l 1,6,-1
 637 1269 l 1,7,-1
 463 1269 l 1,8,-1
 463 113 l 1,9,-1
 1088 113 l 1,10,-1
 1088 341 l 1,11,-1
 1200 341 l 1,12,-1
 1200 0 l 1,13,-1
 103 0 l 1,0,-1
EndSplineSet
Validated: 1
EndChar

StartChar: M
Encoding: 77 77 45
Width: 1919
VWidth: 1875
Flags: W
TeX: 77 0
LayerCount: 2
Fore
SplineSet
103 0 m 1,0,-1
 103 97 l 1,1,-1
 277 97 l 1,2,-1
 277 1269 l 1,3,-1
 93 1269 l 1,4,-1
 93 1367 l 1,5,-1
 492 1367 l 1,6,-1
 971 394 l 1,7,-1
 1451 1367 l 1,8,-1
 1825 1367 l 1,9,-1
 1825 1269 l 1,10,-1
 1642 1269 l 1,11,-1
 1642 97 l 1,12,-1
 1817 97 l 1,13,-1
 1817 0 l 1,14,-1
 1283 0 l 1,15,-1
 1283 97 l 1,16,-1
 1457 97 l 1,17,-1
 1457 1154 l 1,18,-1
 988 200 l 1,19,-1
 859 200 l 1,20,-1
 390 1154 l 1,21,-1
 390 97 l 1,22,-1
 564 97 l 1,23,-1
 564 0 l 1,24,-1
 103 0 l 1,0,-1
EndSplineSet
Validated: 1
EndChar

StartChar: N
Encoding: 78 78 46
Width: 1640
VWidth: 1875
Flags: W
TeX: 78 0
LayerCount: 2
Fore
SplineSet
92 0 m 1,0,-1
 92 97 l 1,1,-1
 276 97 l 1,2,-1
 276 1269 l 1,3,-1
 92 1269 l 1,4,-1
 92 1367 l 1,5,-1
 442 1367 l 1,6,-1
 1262 288 l 1,7,-1
 1262 1269 l 1,8,-1
 1078 1269 l 1,9,-1
 1078 1367 l 1,10,-1
 1558 1367 l 1,11,-1
 1558 1269 l 1,12,-1
 1374 1269 l 1,13,-1
 1374 -27 l 1,14,-1
 1263 -27 l 1,15,-1
 388 1125 l 1,16,-1
 388 97 l 1,17,-1
 572 97 l 1,18,-1
 572 0 l 1,19,-1
 92 0 l 1,0,-1
EndSplineSet
Validated: 1
EndChar

StartChar: O
Encoding: 79 79 47
Width: 1537
VWidth: 1875
Flags: W
TeX: 79 0
LayerCount: 2
Fore
SplineSet
769 71 m 0,0,1
 992 71 992 71 1108 226 c 0,2,3
 1222 380.5 1222 380.5 1222 682 c 0,4,5
 1222 986 1222 986 1108 1139 c 0,6,7
 992 1294 992 1294 769 1294 c 0,8,9
 545 1294 545 1294 429 1139 c 0,10,11
 315 986 315 986 315 682 c 0,12,13
 315 380.5 315 380.5 429 226 c 0,14,15
 545 71 545 71 769 71 c 0,0,1
769 -27 m 0,16,17
 633 -27 633 -27 513 19 c 0,18,19
 397 65 397 65 308 154 c 0,20,21
 205 255 205 255 155 386 c 0,22,23
 105 518 105 518 105 682 c 128,-1,24
 105 846 105 846 155 978 c 0,25,26
 205 1109 205 1109 308 1211 c 0,27,28
 396 1300 396 1300 513 1346 c 0,29,30
 631 1392 631 1392 769 1392 c 0,31,32
 1067 1392 1067 1392 1250 1197 c 128,-1,33
 1433 1002 1433 1002 1433 682 c 0,34,35
 1433 518 1433 518 1382 387 c 0,36,37
 1333 257 1333 257 1230 154 c 0,38,39
 1140 64 1140 64 1024 19 c 0,40,41
 907 -27 907 -27 769 -27 c 0,16,17
EndSplineSet
Validated: 1
EndChar

StartChar: P
Encoding: 80 80 48
Width: 1261
VWidth: 1875
Flags: W
TeX: 80 0
LayerCount: 2
Fore
SplineSet
463 696 m 1,0,-1
 705 696 l 2,1,2
 842 696 842 696 913 770 c 128,-1,3
 984 844 984 844 984 982 c 0,4,5
 984 1122 984 1122 913 1196 c 0,6,7
 841 1269 841 1269 705 1269 c 2,8,-1
 463 1269 l 1,9,-1
 463 696 l 1,0,-1
103 0 m 1,10,-1
 103 97 l 1,11,-1
 277 97 l 1,12,-1
 277 1269 l 1,13,-1
 103 1269 l 1,14,-1
 103 1367 l 1,15,-1
 750 1367 l 2,16,17
 954 1367 954 1367 1075 1263 c 0,18,19
 1195 1160 1195 1160 1195 982 c 0,20,21
 1195 807 1195 807 1075 702 c 0,22,23
 954 598 954 598 750 598 c 2,24,-1
 463 598 l 1,25,-1
 463 97 l 1,26,-1
 675 97 l 1,27,-1
 675 0 l 1,28,-1
 103 0 l 1,10,-1
EndSplineSet
Validated: 1
EndChar

StartChar: Q
Encoding: 81 81 49
Width: 1537
VWidth: 1875
Flags: W
TeX: 81 0
LayerCount: 2
Fore
SplineSet
791 -27 m 1,0,1
 478 -27 478 -27 291 166 c 0,2,3
 105 359.5 105 359.5 105 682 c 0,4,5
 105 846 105 846 155 978 c 0,6,7
 205 1109 205 1109 308 1211 c 0,8,9
 396 1300 396 1300 513 1346 c 0,10,11
 631 1392 631 1392 769 1392 c 0,12,13
 1067 1392 1067 1392 1250 1197 c 128,-1,14
 1433 1002 1433 1002 1433 682 c 0,15,16
 1433 412 1433 412 1295 227 c 0,17,18
 1158 41 1158 41 916 -11 c 1,19,20
 964 -71 964 -71 1037 -102 c 0,21,22
 1109 -131 1109 -131 1208 -131 c 2,23,-1
 1236 -131 l 1,24,-1
 1236 -300 l 1,25,26
 1080 -292 1080 -292 971 -225 c 0,27,28
 860 -156 860 -156 791 -27 c 1,0,1
769 71 m 0,29,30
 992 71 992 71 1108 226 c 0,31,32
 1222 380.5 1222 380.5 1222 682 c 0,33,34
 1222 986 1222 986 1108 1139 c 0,35,36
 992 1294 992 1294 769 1294 c 0,37,38
 545 1294 545 1294 429 1139 c 0,39,40
 315 986 315 986 315 682 c 0,41,42
 315 380.5 315 380.5 429 226 c 0,43,44
 545 71 545 71 769 71 c 0,29,30
EndSplineSet
Validated: 1
EndChar

StartChar: R
Encoding: 82 82 50
Width: 1411
VWidth: 1875
Flags: W
TeX: 82 0
LayerCount: 2
Fore
SplineSet
898 678 m 1,0,1
 962 662 962 662 1008 619 c 0,2,3
 1055 578 1055 578 1091 503 c 2,4,-1
 1290 97 l 1,5,-1
 1457 97 l 1,6,-1
 1457 0 l 1,7,-1
 1134 0 l 1,8,-1
 921 435 l 2,9,10
 858 564 858 564 808 598 c 0,11,12
 758 635 758 635 667 635 c 2,13,-1
 463 635 l 1,14,-1
 463 97 l 1,15,-1
 656 97 l 1,16,-1
 656 0 l 1,17,-1
 103 0 l 1,18,-1
 103 97 l 1,19,-1
 277 97 l 1,20,-1
 277 1269 l 1,21,-1
 103 1269 l 1,22,-1
 103 1367 l 1,23,-1
 797 1367 l 2,24,25
 995 1367 995 1367 1105 1272 c 0,26,27
 1213 1176 1213 1176 1213 1002 c 0,28,29
 1213 860 1213 860 1134 780 c 0,30,31
 1054 699 1054 699 898 678 c 1,0,1
463 733 m 1,32,-1
 733 733 l 2,33,34
 872 733 872 733 938 799 c 0,35,36
 1003 864 1003 864 1003 1002 c 0,37,38
 1003 1139 1003 1139 938 1204 c 0,39,40
 871 1269 871 1269 733 1269 c 2,41,-1
 463 1269 l 1,42,-1
 463 733 l 1,32,-1
EndSplineSet
Validated: 1
EndChar

StartChar: S
Encoding: 83 83 51
Width: 1284
VWidth: 1875
Flags: W
TeX: 83 0
LayerCount: 2
Fore
SplineSet
174 66 m 1,0,-1
 174 377 l 1,1,-1
 279 376 l 1,2,3
 284 221 284 221 369 146 c 0,4,5
 454.5 71 454.5 71 630 71 c 0,6,7
 792 71 792 71 878 136 c 0,8,9
 964 200 964 200 964 324 c 0,10,11
 964 424 964 424 912 476 c 0,12,13
 861 529 861 529 694 580 c 2,14,-1
 514 634 l 2,15,16
 319 692 319 692 238 782 c 0,17,18
 157 870.5 157 870.5 157 1025 c 0,19,20
 157 1198 157 1198 281 1295 c 0,21,22
 403 1392 403 1392 628 1392 c 0,23,24
 723 1392 723 1392 837 1371 c 0,25,26
 952 1350 952 1350 1078 1311 c 1,27,-1
 1078 1020 l 1,28,-1
 975 1020 l 1,29,30
 960 1164 960 1164 878 1229 c 128,-1,31
 796 1294 796 1294 632 1294 c 0,32,33
 488 1294 488 1294 412 1235 c 0,34,35
 336 1175 336 1175 336 1063 c 0,36,37
 336 964 336 964 393 909 c 0,38,39
 450 853 450 853 634 798 c 2,40,-1
 803 748 l 2,41,42
 987 693 987 693 1068 606 c 0,43,44
 1147 520 1147 520 1147 374 c 0,45,46
 1147 174 1147 174 1020 74 c 0,47,48
 892 -27 892 -27 641 -27 c 0,49,50
 530 -27 530 -27 412 -4 c 0,51,52
 293 20 293 20 174 66 c 1,0,-1
EndSplineSet
Validated: 1
EndChar

StartChar: T
Encoding: 84 84 52
Width: 1250
VWidth: 1875
Flags: W
TeX: 84 0
LayerCount: 2
Fore
SplineSet
358 0 m 1,0,-1
 358 97 l 1,1,-1
 533 97 l 1,2,-1
 533 1258 l 1,3,-1
 131 1258 l 1,4,-1
 131 1045 l 1,5,-1
 18 1045 l 1,6,-1
 18 1367 l 1,7,-1
 1232 1367 l 1,8,-1
 1232 1045 l 1,9,-1
 1120 1045 l 1,10,-1
 1120 1258 l 1,11,-1
 718 1258 l 1,12,-1
 718 97 l 1,13,-1
 893 97 l 1,14,-1
 893 0 l 1,15,-1
 358 0 l 1,0,-1
EndSplineSet
Validated: 1
EndChar

StartChar: U
Encoding: 85 85 53
Width: 1580
VWidth: 1875
Flags: W
TeX: 85 0
LayerCount: 2
Fore
SplineSet
263 1269 m 1,0,-1
 88 1269 l 1,1,-1
 88 1367 l 1,2,-1
 623 1367 l 1,3,-1
 623 1269 l 1,4,-1
 448 1269 l 1,5,-1
 448 562 l 2,6,7
 448 300 448 300 533 197 c 0,8,9
 619 93 619 93 829 93 c 0,10,11
 1038 93 1038 93 1124 197 c 0,12,13
 1209 300 1209 300 1209 562 c 2,14,-1
 1209 1269 l 1,15,-1
 1035 1269 l 1,16,-1
 1035 1367 l 1,17,-1
 1496 1367 l 1,18,-1
 1496 1269 l 1,19,-1
 1322 1269 l 1,20,-1
 1322 544 l 2,21,22
 1322 232 1322 232 1202 103 c 0,23,24
 1082 -27 1082 -27 795 -27 c 0,25,26
 507 -27 507 -27 385 103 c 0,27,28
 263 232 263 232 263 544 c 2,29,-1
 263 1269 l 1,0,-1
EndSplineSet
Validated: 1
EndChar

StartChar: V
Encoding: 86 86 54
Width: 1354
VWidth: 1875
Flags: W
TeX: 86 0
LayerCount: 2
Fore
SplineSet
328 1269 m 1,0,-1
 732 220 l 1,1,-1
 1134 1269 l 1,2,-1
 981 1269 l 1,3,-1
 981 1367 l 1,4,-1
 1382 1367 l 1,5,-1
 1382 1269 l 1,6,-1
 1249 1269 l 1,7,-1
 761 0 l 1,8,-1
 603 0 l 1,9,-1
 118 1269 l 1,10,-1
 -18 1269 l 1,11,-1
 -18 1367 l 1,12,-1
 480 1367 l 1,13,-1
 480 1269 l 1,14,-1
 328 1269 l 1,0,-1
EndSplineSet
Validated: 1
EndChar

StartChar: W
Encoding: 87 87 55
Width: 1927
VWidth: 1875
Flags: W
TeX: 87 0
LayerCount: 2
Fore
SplineSet
1429 0 m 1,0,-1
 1279 0 l 1,1,-1
 966 1111 l 1,2,-1
 653 0 l 1,3,-1
 503 0 l 1,4,-1
 145 1269 l 1,5,-1
 9 1269 l 1,6,-1
 9 1367 l 1,7,-1
 508 1367 l 1,8,-1
 508 1269 l 1,9,-1
 338 1269 l 1,10,-1
 623 259 l 1,11,-1
 934 1367 l 1,12,-1
 1082 1367 l 1,13,-1
 1399 247 l 1,14,-1
 1685 1269 l 1,15,-1
 1528 1269 l 1,16,-1
 1528 1367 l 1,17,-1
 1922 1367 l 1,18,-1
 1922 1269 l 1,19,-1
 1787 1269 l 1,20,-1
 1429 0 l 1,0,-1
EndSplineSet
Validated: 1
EndChar

StartChar: X
Encoding: 88 88 56
Width: 1334
VWidth: 1875
Flags: W
TeX: 88 0
LayerCount: 2
Fore
SplineSet
621 585 m 1,0,-1
 287 97 l 1,1,-1
 463 97 l 1,2,-1
 463 0 l 1,3,-1
 11 0 l 1,4,-1
 11 97 l 1,5,-1
 168 97 l 1,6,-1
 562 671 l 1,7,-1
 163 1269 l 1,8,-1
 16 1269 l 1,9,-1
 16 1367 l 1,10,-1
 558 1367 l 1,11,-1
 558 1269 l 1,12,-1
 397 1269 l 1,13,-1
 690 829 l 1,14,-1
 992 1269 l 1,15,-1
 816 1269 l 1,16,-1
 816 1367 l 1,17,-1
 1263 1367 l 1,18,-1
 1263 1269 l 1,19,-1
 1110 1269 l 1,20,-1
 748 742 l 1,21,-1
 1179 97 l 1,22,-1
 1326 97 l 1,23,-1
 1326 0 l 1,24,-1
 784 0 l 1,25,-1
 784 97 l 1,26,-1
 947 97 l 1,27,-1
 621 585 l 1,0,-1
EndSplineSet
Validated: 1
EndChar

StartChar: Y
Encoding: 89 89 57
Width: 1237
VWidth: 1875
Flags: W
TeX: 89 0
LayerCount: 2
Fore
SplineSet
354 0 m 1,0,-1
 354 97 l 1,1,-1
 529 97 l 1,2,-1
 529 589 l 1,3,-1
 107 1269 l 1,4,-1
 -21 1269 l 1,5,-1
 -21 1367 l 1,6,-1
 487 1367 l 1,7,-1
 487 1269 l 1,8,-1
 328 1269 l 1,9,-1
 669 716 l 1,10,-1
 1011 1269 l 1,11,-1
 857 1269 l 1,12,-1
 857 1367 l 1,13,-1
 1254 1367 l 1,14,-1
 1254 1269 l 1,15,-1
 1125 1269 l 1,16,-1
 714 606 l 1,17,-1
 714 97 l 1,18,-1
 889 97 l 1,19,-1
 889 0 l 1,20,-1
 354 0 l 1,0,-1
EndSplineSet
Validated: 1
EndChar

StartChar: Z
Encoding: 90 90 58
Width: 1302
VWidth: 1875
Flags: W
TeX: 90 0
LayerCount: 2
Fore
SplineSet
84 0 m 1,0,-1
 84 66 l 1,1,-1
 936 1254 l 1,2,-1
 229 1254 l 1,3,-1
 229 1050 l 1,4,-1
 116 1050 l 1,5,-1
 116 1367 l 1,6,-1
 1197 1367 l 1,7,-1
 1197 1301 l 1,8,-1
 345 113 l 1,9,-1
 1118 113 l 1,10,-1
 1118 304 l 1,11,-1
 1230 304 l 1,12,-1
 1230 0 l 1,13,-1
 84 0 l 1,0,-1
EndSplineSet
Validated: 1
EndChar

StartChar: bracketleft
Encoding: 91 91 59
Width: 731
VWidth: 1875
Flags: W
TeX: 98 0
LayerCount: 2
Fore
SplineSet
161 1425 m 1,0,-1
 587 1425 l 1,1,-1
 587 1328 l 1,2,-1
 336 1328 l 1,3,-1
 336 -150 l 1,4,-1
 587 -150 l 1,5,-1
 587 -247 l 1,6,-1
 161 -247 l 1,7,-1
 161 1425 l 1,0,-1
EndSplineSet
Validated: 1
EndChar

StartChar: backslash
Encoding: 92 92 60
Width: 631
VWidth: 1875
Flags: W
TeX: 98 0
LayerCount: 2
Fore
SplineSet
146 1367 m 1,0,-1
 632 -174 l 1,1,-1
 485 -174 l 1,2,-1
 0 1367 l 1,3,-1
 146 1367 l 1,0,-1
EndSplineSet
Validated: 1
EndChar

StartChar: bracketright
Encoding: 93 93 61
Width: 731
VWidth: 1875
Flags: W
TeX: 98 0
LayerCount: 2
Fore
SplineSet
570 1425 m 1,0,-1
 570 -247 l 1,1,-1
 145 -247 l 1,2,-1
 145 -150 l 1,3,-1
 396 -150 l 1,4,-1
 396 1328 l 1,5,-1
 145 1328 l 1,6,-1
 145 1425 l 1,7,-1
 570 1425 l 1,0,-1
EndSplineSet
Validated: 1
EndChar

StartChar: asciicircum
Encoding: 94 94 62
Width: 1571
VWidth: 1875
Flags: W
LayerCount: 2
Fore
SplineSet
875 1367 m 1,0,-1
 1372 857 l 1,1,-1
 1232 857 l 1,2,-1
 786 1206 l 1,3,-1
 340 857 l 1,4,-1
 199 857 l 1,5,-1
 696 1367 l 1,6,-1
 875 1367 l 1,0,-1
EndSplineSet
Validated: 1
EndChar

StartChar: underscore
Encoding: 95 95 63
Width: 937
VWidth: 1875
Flags: W
LayerCount: 2
Fore
SplineSet
938 -369 m 1,0,-1
 938 -442 l 1,1,-1
 0 -442 l 1,2,-1
 0 -369 l 1,3,-1
 938 -369 l 1,0,-1
EndSplineSet
Validated: 1
EndChar

StartChar: grave
Encoding: 96 96 64
Width: 937
VWidth: 1875
Flags: W
LayerCount: 2
Fore
SplineSet
336 1498 m 1,0,-1
 574 1154 l 1,1,-1
 467 1154 l 1,2,-1
 156 1498 l 1,3,-1
 336 1498 l 1,0,-1
EndSplineSet
Validated: 1
EndChar

StartChar: a
Encoding: 97 97 65
Width: 1117
VWidth: 1875
Flags: W
TeX: 97 0
LayerCount: 2
Fore
SplineSet
746 306 m 2,0,-1
 746 512 l 1,1,-1
 529 512 l 2,2,3
 404 512 404 512 342 458 c 0,4,5
 281 403 281 403 281 292 c 0,6,7
 281 191 281 191 343 131 c 0,8,9
 406 71 406 71 512 71 c 0,10,11
 617 71 617 71 682 136 c 0,12,13
 746 201 746 201 746 306 c 2,0,-1
915 608 m 2,14,-1
 915 97 l 1,15,-1
 1065 97 l 1,16,-1
 1065 0 l 1,17,-1
 746 0 l 1,18,-1
 746 105 l 1,19,20
 691 38 691 38 617 5 c 0,21,22
 542 -27 542 -27 446 -27 c 0,23,24
 284 -27 284 -27 189 60 c 0,25,26
 93 146 93 146 93 292 c 0,27,28
 93 443 93 443 202 526 c 0,29,30
 312 610 312 610 510 610 c 2,31,-1
 746 610 l 1,32,-1
 746 677 l 2,33,34
 746 788 746 788 679 848 c 0,35,36
 612 909 612 909 490 909 c 0,37,38
 388 909 388 909 330 863 c 0,39,40
 270 818 270 818 255 728 c 1,41,-1
 168 728 l 1,42,-1
 168 925 l 1,43,44
 251 960 251 960 339 981 c 0,45,46
 419 1000 419 1000 501 1000 c 0,47,48
 701 1000 701 1000 809 900 c 0,49,50
 915 799 915 799 915 608 c 2,14,-1
EndSplineSet
Validated: 1
EndChar

StartChar: b
Encoding: 98 98 66
Width: 1200
VWidth: 1875
Flags: W
TeX: 98 0
LayerCount: 2
Fore
SplineSet
216 97 m 1,0,-1
 216 1328 l 1,1,-1
 54 1328 l 1,2,-1
 54 1425 l 1,3,-1
 385 1425 l 1,4,-1
 385 821 l 1,5,6
 433 912 433 912 510 956 c 128,-1,7
 587 1000 587 1000 699 1000 c 0,8,9
 879 1000 879 1000 992 858 c 0,10,11
 1106 716 1106 716 1106 487 c 128,-1,12
 1106 258 1106 258 992 116 c 0,13,14
 879 -27 879 -27 699 -27 c 0,15,16
 587 -27 587 -27 510 17 c 128,-1,17
 433 61 433 61 385 152 c 1,18,-1
 385 0 l 1,19,-1
 54 0 l 1,20,-1
 54 97 l 1,21,-1
 216 97 l 1,0,-1
385 439 m 2,22,23
 385 262 385 262 452 171 c 0,24,25
 519 79 519 79 647 79 c 0,26,27
 776 79 776 79 843 182 c 0,28,29
 909 286 909 286 909 487 c 0,30,31
 909 690 909 690 843 792 c 0,32,33
 776 894 776 894 647 894 c 0,34,35
 519 894 519 894 452 802 c 128,-1,36
 385 710 385 710 385 535 c 2,37,-1
 385 439 l 2,22,23
EndSplineSet
Validated: 1
EndChar

StartChar: c
Encoding: 99 99 67
Width: 1050
VWidth: 1875
Flags: W
TeX: 99 0
LayerCount: 2
Fore
SplineSet
964 292 m 1,0,1
 928 136 928 136 827 55 c 0,2,3
 724 -27 724 -27 564 -27 c 0,4,5
 352 -27 352 -27 222 114 c 0,6,7
 93 255 93 255 93 487 c 0,8,9
 93 720 93 720 222 860 c 0,10,11
 353 1000 353 1000 564 1000 c 0,12,13
 659 1000 659 1000 748 978 c 0,14,15
 836 958 836 958 932 913 c 1,16,-1
 932 664 l 1,17,-1
 834 664 l 1,18,19
 815 791 815 791 750 851 c 0,20,21
 686 909 686 909 566 909 c 0,22,23
 429 909 429 909 360 803 c 0,24,25
 290 699 290 699 290 487 c 0,26,27
 290 276 290 276 359 170 c 128,-1,28
 428 64 428 64 566 64 c 0,29,30
 674 64 674 64 740 121 c 0,31,32
 805 179 805 179 829 292 c 1,33,-1
 964 292 l 1,0,1
EndSplineSet
Validated: 1
EndChar

StartChar: d
Encoding: 100 100 68
Width: 1200
VWidth: 1875
Flags: W
TeX: 100 0
LayerCount: 2
Fore
SplineSet
984 97 m 1,0,-1
 1145 97 l 1,1,-1
 1145 0 l 1,2,-1
 816 0 l 1,3,-1
 816 152 l 1,4,5
 766.5 60.5 766.5 60.5 690 17 c 0,6,7
 613 -27 613 -27 501 -27 c 0,8,9
 321 -27 321 -27 207 116 c 0,10,11
 93 258 93 258 93 487 c 128,-1,12
 93 716 93 716 207 858 c 0,13,14
 322 1000 322 1000 501 1000 c 0,15,16
 613 1000 613 1000 690 956 c 0,17,18
 766.5 912.5 766.5 912.5 816 821 c 1,19,-1
 816 1328 l 1,20,-1
 656 1328 l 1,21,-1
 656 1425 l 1,22,-1
 984 1425 l 1,23,-1
 984 97 l 1,0,-1
816 439 m 2,24,-1
 816 535 l 2,25,26
 816 708 816 708 748 802 c 0,27,28
 683 894 683 894 553 894 c 128,-1,29
 423 894 423 894 357 792 c 0,30,31
 290 691 290 691 290 487 c 0,32,33
 290 285 290 285 357 182 c 0,34,35
 423 79 423 79 553 79 c 128,-1,36
 683 79 683 79 748 171 c 0,37,38
 816 263 816 263 816 439 c 2,24,-1
EndSplineSet
Validated: 1
EndChar

StartChar: e
Encoding: 101 101 69
Width: 1109
VWidth: 1875
Flags: W
TeX: 101 0
LayerCount: 2
Fore
SplineSet
1016 469 m 1,0,-1
 290 469 l 1,1,-1
 290 461 l 2,2,3
 290 265 290 265 364 164 c 0,4,5
 440 64 440 64 583 64 c 0,6,7
 695 64 695 64 765 122 c 128,-1,8
 835 180 835 180 864 295 c 1,9,-1
 1000 295 l 1,10,11
 960 136 960 136 851 54 c 0,12,13
 743 -27 743 -27 566 -27 c 0,14,15
 352 -27 352 -27 223 114 c 0,16,17
 93 256 93 256 93 487 c 0,18,19
 93 717 93 717 221 859 c 0,20,21
 347 1000 347 1000 555 1000 c 0,22,23
 775 1000 775 1000 894 864 c 0,24,25
 1012 727 1012 727 1016 469 c 1,0,-1
818 566 m 1,26,27
 812 736 812 736 746 823 c 0,28,29
 678 909 678 909 555 909 c 0,30,31
 438 909 438 909 372 822 c 0,32,33
 305 736 305 736 290 566 c 1,34,-1
 818 566 l 1,26,27
EndSplineSet
Validated: 1
EndChar

StartChar: f
Encoding: 102 102 70
Width: 693
VWidth: 1875
Flags: W
TeX: 102 0
LayerCount: 2
Fore
SplineSet
807 1195 m 1,0,-1
 718 1195 l 1,1,2
 717 1263 717 1263 679 1299 c 0,3,4
 642 1335 642 1335 569 1335 c 0,5,6
 473 1335 473 1335 436 1283 c 0,7,8
 397 1232 397 1232 397 1099 c 2,9,-1
 397 973 l 1,10,-1
 669 973 l 1,11,-1
 669 875 l 1,12,-1
 397 875 l 1,13,-1
 397 97 l 1,14,-1
 613 97 l 1,15,-1
 613 0 l 1,16,-1
 68 0 l 1,17,-1
 68 97 l 1,18,-1
 229 97 l 1,19,-1
 229 875 l 1,20,-1
 68 875 l 1,21,-1
 68 973 l 1,22,-1
 229 973 l 1,23,-1
 229 1095 l 2,24,25
 229 1259 229 1259 314 1341 c 0,26,27
 398 1425 398 1425 562 1425 c 0,28,29
 621 1425 621 1425 685 1414 c 0,30,31
 747 1402 747 1402 807 1380 c 1,32,-1
 807 1195 l 1,0,-1
EndSplineSet
Validated: 1
EndChar

StartChar: g
Encoding: 103 103 71
Width: 1200
VWidth: 1875
Flags: W
TeX: 103 0
LayerCount: 2
Fore
SplineSet
984 875 m 1,0,-1
 984 21 l 2,1,2
 984 -189 984 -189 869 -303 c 128,-1,3
 754 -417 754 -417 540 -417 c 0,4,5
 444 -417 444 -417 356 -399 c 0,6,7
 270 -383 270 -383 188 -347 c 1,8,-1
 188 -143 l 1,9,-1
 276 -143 l 1,10,11
 293 -239 293 -239 353 -282 c 0,12,13
 415 -326 415 -326 529 -326 c 0,14,15
 678 -326 678 -326 747 -242 c 128,-1,16
 816 -158 816 -158 816 21 c 2,17,-1
 816 152 l 1,18,19
 766.5 60.5 766.5 60.5 690 17 c 0,20,21
 613 -27 613 -27 501 -27 c 0,22,23
 321 -27 321 -27 207 116 c 0,24,25
 93 258 93 258 93 487 c 128,-1,26
 93 716 93 716 207 858 c 0,27,28
 322 1000 322 1000 501 1000 c 0,29,30
 613 1000 613 1000 690 956 c 0,31,32
 766.5 912.5 766.5 912.5 816 821 c 1,33,-1
 816 973 l 1,34,-1
 1145 973 l 1,35,-1
 1145 875 l 1,36,-1
 984 875 l 1,0,-1
816 535 m 2,37,38
 816 708 816 708 748 802 c 0,39,40
 683 894 683 894 553 894 c 128,-1,41
 423 894 423 894 357 792 c 0,42,43
 290 691 290 691 290 487 c 0,44,45
 290 285 290 285 357 182 c 0,46,47
 423 79 423 79 553 79 c 128,-1,48
 683 79 683 79 748 171 c 0,49,50
 816 263 816 263 816 439 c 2,51,-1
 816 535 l 2,37,38
EndSplineSet
Validated: 1
EndChar

StartChar: h
Encoding: 104 104 72
Width: 1207
VWidth: 1875
Flags: W
TeX: 104 0
LayerCount: 2
Fore
SplineSet
77 0 m 1,0,-1
 77 97 l 1,1,-1
 229 97 l 1,2,-1
 229 1328 l 1,3,-1
 68 1328 l 1,4,-1
 68 1425 l 1,5,-1
 397 1425 l 1,6,-1
 397 800 l 1,7,8
 444 899 444 899 519 949 c 0,9,10
 592 1000 592 1000 692 1000 c 0,11,12
 854 1000 854 1000 929 907 c 0,13,14
 1005 816 1005 816 1005 619 c 2,15,-1
 1005 97 l 1,16,-1
 1155 97 l 1,17,-1
 1155 0 l 1,18,-1
 690 0 l 1,19,-1
 690 97 l 1,20,-1
 836 97 l 1,21,-1
 836 566 l 2,22,23
 836 743 836 743 792 810 c 0,24,25
 748 875 748 875 637 875 c 0,26,27
 520 875 520 875 459 790 c 0,28,29
 397 704 397 704 397 542 c 2,30,-1
 397 97 l 1,31,-1
 544 97 l 1,32,-1
 544 0 l 1,33,-1
 77 0 l 1,0,-1
EndSplineSet
Validated: 1
EndChar

StartChar: i
Encoding: 105 105 73
Width: 599
VWidth: 1875
Flags: W
TeX: 105 0
LayerCount: 2
Fore
SplineSet
182 1275 m 128,-1,1
 182 1318 182 1318 213 1349 c 128,-1,2
 244 1380 244 1380 287 1380 c 0,3,4
 328 1380 328 1380 359 1349 c 128,-1,5
 390 1318 390 1318 390 1275 c 128,-1,6
 390 1232 390 1232 360 1202 c 128,-1,7
 330 1172 330 1172 287 1172 c 0,8,9
 243 1172 243 1172 213 1202 c 0,10,0
 182 1232 182 1232 182 1275 c 128,-1,1
397 97 m 1,11,-1
 557 97 l 1,12,-1
 557 0 l 1,13,-1
 68 0 l 1,14,-1
 68 97 l 1,15,-1
 229 97 l 1,16,-1
 229 875 l 1,17,-1
 68 875 l 1,18,-1
 68 973 l 1,19,-1
 397 973 l 1,20,-1
 397 97 l 1,11,-1
EndSplineSet
Validated: 1
EndChar

StartChar: j
Encoding: 106 106 74
Width: 581
VWidth: 1875
Flags: W
TeX: 106 0
LayerCount: 2
Fore
SplineSet
188 1275 m 128,-1,1
 188 1318 188 1318 218 1349 c 0,2,3
 251 1380 251 1380 292 1380 c 0,4,5
 332 1380 332 1380 365 1349 c 0,6,7
 396 1316 396 1316 396 1275 c 0,8,9
 396 1232 396 1232 366 1202 c 128,-1,10
 336 1172 336 1172 292 1172 c 0,11,12
 250 1172 250 1172 218 1202 c 0,13,0
 188 1232 188 1232 188 1275 c 128,-1,1
229 875 m 1,14,-1
 70 875 l 1,15,-1
 70 973 l 1,16,-1
 397 973 l 1,17,-1
 397 -95 l 2,18,19
 397 -246 397 -246 308 -331 c 0,20,21
 219 -417 219 -417 62 -417 c 0,22,23
 -6 -417 -6 -417 -64 -401 c 0,24,25
 -125 -386 -125 -386 -180 -356 c 1,26,-1
 -180 -156 l 1,27,-1
 -93 -156 l 1,28,29
 -87 -243 -87 -243 -48 -285 c 0,30,31
 -9 -326 -9 -326 66 -326 c 0,32,33
 150 -326 150 -326 189 -270 c 0,34,35
 229 -214 229 -214 229 -95 c 2,36,-1
 229 875 l 1,14,-1
EndSplineSet
Validated: 1
EndChar

StartChar: k
Encoding: 107 107 75
Width: 1136
VWidth: 1875
Flags: W
TeX: 107 0
LayerCount: 2
Fore
SplineSet
536 0 m 1,0,-1
 64 0 l 1,1,-1
 64 97 l 1,2,-1
 216 97 l 1,3,-1
 216 1328 l 1,4,-1
 54 1328 l 1,5,-1
 54 1425 l 1,6,-1
 385 1425 l 1,7,-1
 385 497 l 1,8,-1
 795 875 l 1,9,-1
 655 875 l 1,10,-1
 655 973 l 1,11,-1
 1095 973 l 1,12,-1
 1095 875 l 1,13,-1
 928 875 l 1,14,-1
 639 608 l 1,15,-1
 1009 97 l 1,16,-1
 1149 97 l 1,17,-1
 1149 0 l 1,18,-1
 669 0 l 1,19,-1
 669 97 l 1,20,-1
 808 97 l 1,21,-1
 517 497 l 1,22,-1
 385 374 l 1,23,-1
 385 97 l 1,24,-1
 536 97 l 1,25,-1
 536 0 l 1,0,-1
EndSplineSet
Validated: 1
EndChar

StartChar: l
Encoding: 108 108 76
Width: 599
VWidth: 1875
Flags: W
TeX: 108 0
LayerCount: 2
Fore
SplineSet
385 97 m 1,0,-1
 544 97 l 1,1,-1
 544 0 l 1,2,-1
 54 0 l 1,3,-1
 54 97 l 1,4,-1
 216 97 l 1,5,-1
 216 1328 l 1,6,-1
 54 1328 l 1,7,-1
 54 1425 l 1,8,-1
 385 1425 l 1,9,-1
 385 97 l 1,0,-1
EndSplineSet
Validated: 1
EndChar

StartChar: m
Encoding: 109 109 77
Width: 1777
VWidth: 1875
Flags: W
TeX: 109 0
CounterMasks: 1 00
LayerCount: 2
Fore
SplineSet
971 784 m 1,0,1
 1021 892 1021 892 1095 945 c 0,2,3
 1171 1000 1171 1000 1272 1000 c 0,4,5
 1425 1000 1425 1000 1500 905 c 128,-1,6
 1575 810 1575 810 1575 619 c 2,7,-1
 1575 97 l 1,8,-1
 1727 97 l 1,9,-1
 1727 0 l 1,10,-1
 1260 0 l 1,11,-1
 1260 97 l 1,12,-1
 1406 97 l 1,13,-1
 1406 600 l 2,14,15
 1406 750 1406 750 1362 812 c 0,16,17
 1318 875 1318 875 1217 875 c 0,18,19
 1103 875 1103 875 1045 790 c 0,20,21
 986 704 986 704 986 542 c 2,22,-1
 986 97 l 1,23,-1
 1133 97 l 1,24,-1
 1133 0 l 1,25,-1
 671 0 l 1,26,-1
 671 97 l 1,27,-1
 818 97 l 1,28,-1
 818 606 l 2,29,30
 818 751 818 751 774 813 c 128,-1,31
 730 875 730 875 628 875 c 0,32,33
 516 875 516 875 456 790 c 0,34,35
 397 704 397 704 397 542 c 2,36,-1
 397 97 l 1,37,-1
 544 97 l 1,38,-1
 544 0 l 1,39,-1
 77 0 l 1,40,-1
 77 97 l 1,41,-1
 229 97 l 1,42,-1
 229 877 l 1,43,-1
 68 877 l 1,44,-1
 68 973 l 1,45,-1
 397 973 l 1,46,-1
 397 800 l 1,47,48
 443 896 443 896 516 948 c 128,-1,49
 589 1000 589 1000 680 1000 c 0,50,51
 794 1000 794 1000 870 943 c 0,52,53
 946 887 946 887 971 784 c 1,0,1
EndSplineSet
Validated: 1
EndChar

StartChar: n
Encoding: 110 110 78
Width: 1207
VWidth: 1875
Flags: W
TeX: 110 0
LayerCount: 2
Fore
SplineSet
77 0 m 1,0,-1
 77 97 l 1,1,-1
 229 97 l 1,2,-1
 229 875 l 1,3,-1
 68 875 l 1,4,-1
 68 973 l 1,5,-1
 397 973 l 1,6,-1
 397 800 l 1,7,8
 444 899 444 899 519 949 c 0,9,10
 592 1000 592 1000 692 1000 c 0,11,12
 854 1000 854 1000 929 907 c 0,13,14
 1005 816 1005 816 1005 619 c 2,15,-1
 1005 97 l 1,16,-1
 1155 97 l 1,17,-1
 1155 0 l 1,18,-1
 690 0 l 1,19,-1
 690 97 l 1,20,-1
 836 97 l 1,21,-1
 836 566 l 2,22,23
 836 743 836 743 792 811 c 0,24,25
 748 877 748 877 637 877 c 0,26,27
 520 877 520 877 459 791 c 0,28,29
 397 705 397 705 397 542 c 2,30,-1
 397 97 l 1,31,-1
 544 97 l 1,32,-1
 544 0 l 1,33,-1
 77 0 l 1,0,-1
EndSplineSet
Validated: 1
EndChar

StartChar: o
Encoding: 111 111 79
Width: 1128
VWidth: 1875
Flags: W
TeX: 111 0
LayerCount: 2
Fore
SplineSet
564 64 m 0,0,1
 700 64 700 64 769 171 c 0,2,3
 838 279 838 279 838 487 c 0,4,5
 838 695.5 838 695.5 769 802 c 0,6,7
 701 909 701 909 564 909 c 128,-1,8
 427 909 427 909 359 802 c 0,9,10
 290 695.5 290 695.5 290 487 c 0,11,12
 290 278 290 278 360 171 c 0,13,14
 429 64 429 64 564 64 c 0,0,1
564 -27 m 0,15,16
 352 -27 352 -27 222 114 c 0,17,18
 93 255 93 255 93 487 c 128,-1,19
 93 719 93 719 222 860 c 0,20,21
 351 1000 351 1000 564 1000 c 128,-1,22
 777 1000 777 1000 906 860 c 0,23,24
 1035 719 1035 719 1035 487 c 128,-1,25
 1035 255 1035 255 906 114 c 128,-1,26
 777 -27 777 -27 564 -27 c 0,15,16
EndSplineSet
Validated: 1
EndChar

StartChar: p
Encoding: 112 112 80
Width: 1200
VWidth: 1875
Flags: W
TeX: 112 0
LayerCount: 2
Fore
SplineSet
385 535 m 2,0,-1
 385 439 l 2,1,2
 385 262 385 262 452 171 c 0,3,4
 519 79 519 79 647 79 c 0,5,6
 776 79 776 79 843 182 c 0,7,8
 909 286 909 286 909 487 c 0,9,10
 909 690 909 690 843 792 c 0,11,12
 776 894 776 894 647 894 c 0,13,14
 519 894 519 894 452 802 c 128,-1,15
 385 710 385 710 385 535 c 2,0,-1
216 875 m 1,16,-1
 54 875 l 1,17,-1
 54 973 l 1,18,-1
 385 973 l 1,19,-1
 385 821 l 1,20,21
 433 912 433 912 510 956 c 128,-1,22
 587 1000 587 1000 699 1000 c 0,23,24
 879 1000 879 1000 992 858 c 0,25,26
 1106 716 1106 716 1106 487 c 128,-1,27
 1106 258 1106 258 992 116 c 0,28,29
 879 -27 879 -27 699 -27 c 0,30,31
 587 -27 587 -27 510 17 c 128,-1,32
 433 61 433 61 385 152 c 1,33,-1
 385 -292 l 1,34,-1
 544 -292 l 1,35,-1
 544 -390 l 1,36,-1
 54 -390 l 1,37,-1
 54 -292 l 1,38,-1
 216 -292 l 1,39,-1
 216 875 l 1,16,-1
EndSplineSet
Validated: 1
EndChar

StartChar: q
Encoding: 113 113 81
Width: 1200
VWidth: 1875
Flags: W
TeX: 113 0
LayerCount: 2
Fore
SplineSet
984 875 m 1,0,-1
 984 -292 l 1,1,-1
 1145 -292 l 1,2,-1
 1145 -390 l 1,3,-1
 656 -390 l 1,4,-1
 656 -292 l 1,5,-1
 816 -292 l 1,6,-1
 816 152 l 1,7,8
 766.5 60.5 766.5 60.5 690 17 c 0,9,10
 613 -27 613 -27 501 -27 c 0,11,12
 321 -27 321 -27 207 116 c 0,13,14
 93 258 93 258 93 487 c 128,-1,15
 93 716 93 716 207 858 c 0,16,17
 322 1000 322 1000 501 1000 c 0,18,19
 613 1000 613 1000 690 956 c 0,20,21
 766.5 912.5 766.5 912.5 816 821 c 1,22,-1
 816 973 l 1,23,-1
 1145 973 l 1,24,-1
 1145 875 l 1,25,-1
 984 875 l 1,0,-1
816 535 m 2,26,27
 816 708 816 708 748 802 c 0,28,29
 683 894 683 894 553 894 c 128,-1,30
 423 894 423 894 357 792 c 0,31,32
 290 691 290 691 290 487 c 0,33,34
 290 285 290 285 357 182 c 0,35,36
 423 79 423 79 553 79 c 128,-1,37
 683 79 683 79 748 171 c 0,38,39
 816 263 816 263 816 439 c 2,40,-1
 816 535 l 2,26,27
EndSplineSet
Validated: 1
EndChar

StartChar: r
Encoding: 114 114 82
Width: 896
VWidth: 1875
Flags: W
TeX: 114 0
LayerCount: 2
Fore
SplineSet
896 975 m 1,0,-1
 896 732 l 1,1,-1
 799 732 l 1,2,3
 794 805 794 805 759 840 c 0,4,5
 722 875 722 875 655 875 c 0,6,7
 529 875 529 875 464 789 c 0,8,9
 397 704 397 704 397 542 c 2,10,-1
 397 97 l 1,11,-1
 592 97 l 1,12,-1
 592 0 l 1,13,-1
 77 0 l 1,14,-1
 77 97 l 1,15,-1
 229 97 l 1,16,-1
 229 877 l 1,17,-1
 68 877 l 1,18,-1
 68 973 l 1,19,-1
 397 973 l 1,20,-1
 397 800 l 1,21,22
 446 901 446 901 525 951 c 0,23,24
 603 1000 603 1000 714 1000 c 0,25,26
 758 1000 758 1000 801 993 c 0,27,28
 847 987 847 987 896 975 c 1,0,-1
EndSplineSet
Validated: 1
EndChar

StartChar: s
Encoding: 115 115 83
Width: 962
VWidth: 1875
Flags: W
TeX: 115 0
LayerCount: 2
Fore
SplineSet
105 54 m 1,0,-1
 105 281 l 1,1,-1
 202 281 l 1,2,3
 206 172 206 172 271 118 c 128,-1,4
 336 64 336 64 461 64 c 0,5,6
 576 64 576 64 634 107 c 0,7,8
 694 149 694 149 694 231 c 0,9,10
 694 295 694 295 650 334 c 0,11,12
 606.5 373 606.5 373 467 418 c 2,13,-1
 345 460 l 2,14,15
 221 499 221 499 163 560 c 0,16,17
 107 622 107 622 107 714 c 0,18,19
 107 847 107 847 205 924 c 0,20,21
 304 1000 304 1000 476 1000 c 0,22,23
 550 1000 550 1000 638 980 c 0,24,25
 727 958 727 958 814 921 c 1,26,-1
 814 709 l 1,27,-1
 717 709 l 1,28,29
 712 804 712 804 651 856 c 0,30,31
 587 909 587 909 482 909 c 0,32,33
 374 909 374 909 321 872 c 0,34,35
 266 834 266 834 266 759 c 0,36,37
 266 697 266 697 308 661 c 0,38,39
 347 625 347 625 472 585 c 2,40,-1
 606 544 l 2,41,42
 745 500 745 500 805 436 c 0,43,44
 866 372 866 372 866 270 c 0,45,46
 866 131 866 131 760 53 c 0,47,48
 654 -27 654 -27 469 -27 c 0,49,50
 375 -27 375 -27 285 -6 c 0,51,52
 195 13.5 195 13.5 105 54 c 1,0,-1
EndSplineSet
Validated: 1
EndChar

StartChar: t
Encoding: 116 116 84
Width: 753
VWidth: 1875
Flags: W
TeX: 116 0
LayerCount: 2
Fore
SplineSet
202 875 m 1,0,-1
 54 875 l 1,1,-1
 54 973 l 1,2,-1
 202 973 l 1,3,-1
 202 1275 l 1,4,-1
 372 1275 l 1,5,-1
 372 973 l 1,6,-1
 688 973 l 1,7,-1
 688 875 l 1,8,-1
 372 875 l 1,9,-1
 372 257 l 2,10,11
 372 134 372 134 396 99 c 0,12,13
 419 64 419 64 483 64 c 0,14,15
 548 64 548 64 580 103 c 0,16,17
 609 141 609 141 612 229 c 1,18,-1
 739 229 l 1,19,20
 732 97 732 97 667 35 c 0,21,22
 600 -27 600 -27 469 -27 c 0,23,24
 323 -27 323 -27 263 38 c 0,25,26
 202 102 202 102 202 257 c 2,27,-1
 202 875 l 1,0,-1
EndSplineSet
Validated: 1
EndChar

StartChar: u
Encoding: 117 117 85
Width: 1207
VWidth: 1875
Flags: W
TeX: 117 0
LayerCount: 2
Fore
SplineSet
664 973 m 1,0,-1
 979 973 l 1,1,-1
 979 97 l 1,2,-1
 1138 97 l 1,3,-1
 1138 0 l 1,4,-1
 810 0 l 1,5,-1
 810 172 l 1,6,7
 764 75 764 75 689 24 c 0,8,9
 616 -27 616 -27 517 -27 c 0,10,11
 356 -27 356 -27 279 65 c 0,12,13
 202 159 202 159 202 354 c 2,14,-1
 202 875 l 1,15,-1
 50 875 l 1,16,-1
 50 973 l 1,17,-1
 372 973 l 1,18,-1
 372 406 l 2,19,20
 372 228 372 228 415 163 c 0,21,22
 458 97 458 97 570 97 c 0,23,24
 687 97 687 97 749 183 c 0,25,26
 810 268 810 268 810 433 c 2,27,-1
 810 875 l 1,28,-1
 664 875 l 1,29,-1
 664 973 l 1,0,-1
EndSplineSet
Validated: 1
EndChar

StartChar: v
Encoding: 118 118 86
Width: 1059
VWidth: 1875
Flags: W
TeX: 118 0
LayerCount: 2
Fore
SplineSet
463 0 m 1,0,-1
 105 875 l 1,1,-1
 -5 875 l 1,2,-1
 -5 973 l 1,3,-1
 442 973 l 1,4,-1
 442 875 l 1,5,-1
 287 875 l 1,6,-1
 560 206 l 1,7,-1
 834 875 l 1,8,-1
 688 875 l 1,9,-1
 688 973 l 1,10,-1
 1054 973 l 1,11,-1
 1054 875 l 1,12,-1
 945 875 l 1,13,-1
 587 0 l 1,14,-1
 463 0 l 1,0,-1
EndSplineSet
Validated: 1
EndChar

StartChar: w
Encoding: 119 119 87
Width: 1604
VWidth: 1875
Flags: W
TeX: 119 0
LayerCount: 2
Fore
SplineSet
900 973 m 1,0,-1
 1149 213 l 1,1,-1
 1369 875 l 1,2,-1
 1228 875 l 1,3,-1
 1228 973 l 1,4,-1
 1580 973 l 1,5,-1
 1580 875 l 1,6,-1
 1472 875 l 1,7,-1
 1183 0 l 1,8,-1
 1043 0 l 1,9,-1
 803 728 l 1,10,-1
 562 0 l 1,11,-1
 428 0 l 1,12,-1
 139 875 l 1,13,-1
 30 875 l 1,14,-1
 30 973 l 1,15,-1
 471 973 l 1,16,-1
 471 875 l 1,17,-1
 313 875 l 1,18,-1
 531 213 l 1,19,-1
 782 973 l 1,20,-1
 900 973 l 1,0,-1
EndSplineSet
Validated: 1
EndChar

StartChar: x
Encoding: 120 120 88
Width: 1057
VWidth: 1875
Flags: W
TeX: 120 0
LayerCount: 2
Fore
SplineSet
546 594 m 1,0,-1
 750 875 l 1,1,-1
 619 875 l 1,2,-1
 619 973 l 1,3,-1
 993 973 l 1,4,-1
 993 875 l 1,5,-1
 864 875 l 1,6,-1
 603 515 l 1,7,-1
 907 97 l 1,8,-1
 1035 97 l 1,9,-1
 1035 0 l 1,10,-1
 585 0 l 1,11,-1
 585 97 l 1,12,-1
 709 97 l 1,13,-1
 497 388 l 1,14,-1
 285 97 l 1,15,-1
 411 97 l 1,16,-1
 411 0 l 1,17,-1
 41 0 l 1,18,-1
 41 97 l 1,19,-1
 170 97 l 1,20,-1
 439 467 l 1,21,-1
 143 875 l 1,22,-1
 23 875 l 1,23,-1
 23 973 l 1,24,-1
 458 973 l 1,25,-1
 458 875 l 1,26,-1
 341 875 l 1,27,-1
 546 594 l 1,0,-1
EndSplineSet
Validated: 1
EndChar

StartChar: y
Encoding: 121 121 89
Width: 1059
VWidth: 1875
Flags: W
TeX: 121 0
LayerCount: 2
Fore
SplineSet
405 -179 m 2,0,-1
 469 -16 l 1,1,-1
 105 875 l 1,2,-1
 -5 875 l 1,3,-1
 -5 973 l 1,4,-1
 442 973 l 1,5,-1
 442 875 l 1,6,-1
 287 875 l 1,7,-1
 560 206 l 1,8,-1
 834 875 l 1,9,-1
 688 875 l 1,10,-1
 688 973 l 1,11,-1
 1054 973 l 1,12,-1
 1054 875 l 1,13,-1
 945 875 l 1,14,-1
 499 -220 l 2,15,16
 452 -335 452 -335 397 -375 c 0,17,18
 342 -417 342 -417 240 -417 c 0,19,20
 200 -417 200 -417 152 -409 c 0,21,22
 108 -402 108 -402 60 -388 c 1,23,-1
 60 -202 l 1,24,-1
 146 -202 l 1,25,26
 152 -264 152 -264 178 -292 c 0,27,28
 203.5 -319 203.5 -319 259 -319 c 0,29,30
 309 -319 309 -319 340 -291 c 0,31,32
 370 -264 370 -264 405 -179 c 2,0,-1
EndSplineSet
Validated: 1
EndChar

StartChar: z
Encoding: 122 122 90
Width: 987
VWidth: 1875
Flags: W
TeX: 122 0
LayerCount: 2
Fore
SplineSet
75 0 m 1,0,-1
 75 79 l 1,1,-1
 685 875 l 1,2,-1
 202 875 l 1,3,-1
 202 707 l 1,4,-1
 105 707 l 1,5,-1
 105 973 l 1,6,-1
 902 973 l 1,7,-1
 902 894 l 1,8,-1
 292 97 l 1,9,-1
 821 97 l 1,10,-1
 821 274 l 1,11,-1
 919 274 l 1,12,-1
 919 0 l 1,13,-1
 75 0 l 1,0,-1
EndSplineSet
Validated: 1
EndChar

StartChar: braceleft
Encoding: 123 123 91
Width: 1192
VWidth: 1875
Flags: W
TeX: 98 0
LayerCount: 2
Fore
SplineSet
959 -210 m 1,0,-1
 959 -306 l 1,1,-1
 902 -306 l 2,2,3
 675 -306 675 -306 596 -238 c 0,4,5
 519 -170 519 -170 519 32 c 2,6,-1
 519 268 l 2,7,8
 519 406 519 406 470 459 c 0,9,10
 420 512 420 512 290 512 c 2,11,-1
 234 512 l 1,12,-1
 234 608 l 1,13,-1
 290 608 l 2,14,15
 420 608 420 608 470 661 c 0,16,17
 519 713 519 713 519 851 c 2,18,-1
 519 1088 l 2,19,20
 519 1289 519 1289 596 1357 c 0,21,22
 675 1425 675 1425 902 1425 c 2,23,-1
 959 1425 l 1,24,-1
 959 1329 l 1,25,-1
 896 1329 l 2,26,27
 767 1329 767 1329 728 1289 c 0,28,29
 688 1247 688 1247 688 1120 c 2,30,-1
 688 857 l 2,31,32
 688 713 688 713 643 650 c 0,33,34
 596.5 588.5 596.5 588.5 478 560 c 1,35,36
 599 530 599 530 644 468 c 0,37,38
 688 408 688 408 688 263 c 2,39,-1
 688 0 l 2,40,41
 688 -129 688 -129 728 -169 c 0,42,43
 767 -210 767 -210 896 -210 c 2,44,-1
 959 -210 l 1,0,-1
EndSplineSet
Validated: 1
EndChar

StartChar: bar
Encoding: 124 124 92
Width: 631
VWidth: 1875
Flags: W
LayerCount: 2
Fore
SplineSet
390 1433 m 1,0,-1
 390 -442 l 1,1,-1
 242 -442 l 1,2,-1
 242 1433 l 1,3,-1
 390 1433 l 1,0,-1
EndSplineSet
Validated: 1
EndChar

StartChar: braceright
Encoding: 125 125 93
Width: 1192
VWidth: 1875
Flags: W
TeX: 98 0
LayerCount: 2
Fore
SplineSet
234 -210 m 1,0,-1
 298 -210 l 2,1,2
 426 -210 426 -210 466 -170 c 0,3,4
 504 -129 504 -129 504 0 c 2,5,-1
 504 263 l 2,6,7
 504 406 504 406 549 468 c 128,-1,8
 594 530 594 530 714 560 c 1,9,10
 595 589 595 589 550 650 c 0,11,12
 504 714 504 714 504 857 c 2,13,-1
 504 1120 l 2,14,15
 504 1249 504 1249 466 1290 c 0,16,17
 427 1329 427 1329 298 1329 c 2,18,-1
 234 1329 l 1,19,-1
 234 1425 l 1,20,-1
 292 1425 l 2,21,22
 520 1425 520 1425 596 1357 c 0,23,24
 673 1289 673 1289 673 1088 c 2,25,-1
 673 851 l 2,26,27
 673 713 673 713 722 661 c 0,28,29
 772 608 772 608 902 608 c 2,30,-1
 959 608 l 1,31,-1
 959 512 l 1,32,-1
 902 512 l 2,33,34
 772 512 772 512 722 459 c 0,35,36
 673 406 673 406 673 268 c 2,37,-1
 673 32 l 2,38,39
 673 -170 673 -170 596 -238 c 0,40,41
 520 -306 520 -306 292 -306 c 2,42,-1
 234 -306 l 1,43,-1
 234 -210 l 1,0,-1
EndSplineSet
Validated: 1
EndChar

StartChar: asciitilde
Encoding: 126 126 94
Width: 1571
VWidth: 1875
Flags: W
LayerCount: 2
Fore
SplineSet
1372 739 m 1,0,-1
 1372 603 l 1,1,2
 1279 522 1279 522 1198 484 c 0,3,4
 1114 446 1114 446 1031 446 c 0,5,6
 943 446 943 446 784 506 c 2,7,-1
 775 510 l 2,8,9
 766 513 766 513 744 522 c 0,10,11
 612 574 612 574 523 574 c 0,12,13
 438 574 438 574 359 541 c 0,14,15
 277 505 277 505 199 437 c 1,16,-1
 199 576 l 1,17,18
 290 655 290 655 372 693 c 0,19,20
 457 730 457 730 540 730 c 0,21,22
 629 730 629 730 787 669 c 2,23,-1
 797 666 l 1,24,25
 807 661 807 661 825 655 c 0,26,27
 955 602 955 602 1046 602 c 0,28,29
 1131.5 602 1131.5 602 1211 635 c 0,30,31
 1295 671 1295 671 1372 739 c 1,0,-1
EndSplineSet
Validated: 1
EndChar

StartChar: periodcentered
Encoding: 183 183 95
Width: 624
VWidth: 2250
Flags: W
TeX: 112 0
LayerCount: 2
Fore
SplineSet
313 531 m 0,0,1
 356 531 356 531 388 499 c 0,2,3
 420 468 420 468 420 422 c 0,4,5
 420 377 420 377 388 345 c 128,-1,6
 356 313 356 313 311 313 c 0,7,8
 268 313 268 313 234 345 c 0,9,10
 202 379 202 379 202 422 c 0,11,12
 202 467 202 467 234 499 c 0,13,14
 268 531 268 531 313 531 c 0,0,1
EndSplineSet
Validated: 1
EndChar

StartChar: Gamma
Encoding: 915 915 99
Width: 1300
VWidth: 1875
Flags: W
TeX: 71 0
LayerCount: 2
Fore
SplineSet
463 97 m 1,0,-1
 682 97 l 1,1,-1
 682 0 l 1,2,-1
 103 0 l 1,3,-1
 103 97 l 1,4,-1
 277 97 l 1,5,-1
 277 1269 l 1,6,-1
 103 1269 l 1,7,-1
 103 1367 l 1,8,-1
 1222 1367 l 1,9,-1
 1222 1062 l 1,10,-1
 1110 1062 l 1,11,-1
 1110 1254 l 1,12,-1
 463 1254 l 1,13,-1
 463 97 l 1,0,-1
EndSplineSet
Validated: 1
EndChar

StartChar: Delta
Encoding: 916 916 100
Width: 1354
VWidth: 1875
Flags: W
TeX: 117 0
LayerCount: 2
Fore
SplineSet
1274 0 m 9,0,-1
 71 0 l 1,1,-1
 596 1367 l 1,2,-1
 750 1367 l 1,3,-1
 1274 0 l 9,0,-1
1027 97 m 25,4,-1
 626 1145 l 1,5,-1
 223 97 l 1,6,-1
 1027 97 l 25,4,-1
EndSplineSet
Validated: 1
EndChar

StartChar: Theta
Encoding: 920 920 104
Width: 1537
VWidth: 1875
Flags: W
TeX: 84 0
LayerCount: 2
Fore
SplineSet
542 685 m 1,0,-1
 542 514 l 1,1,-1
 429 514 l 1,2,-1
 429 968 l 1,3,-1
 542 968 l 1,4,-1
 542 797 l 1,5,-1
 996 797 l 1,6,-1
 996 968 l 1,7,-1
 1109 968 l 1,8,-1
 1109 514 l 1,9,-1
 996 514 l 1,10,-1
 996 685 l 1,11,-1
 542 685 l 1,0,-1
769 71 m 0,12,13
 992 71 992 71 1108 226 c 0,14,15
 1222 380.5 1222 380.5 1222 682 c 0,16,17
 1222 986 1222 986 1108 1139 c 0,18,19
 992 1294 992 1294 769 1294 c 0,20,21
 545 1294 545 1294 429 1139 c 0,22,23
 315 986 315 986 315 682 c 0,24,25
 315 380.5 315 380.5 429 226 c 0,26,27
 545 71 545 71 769 71 c 0,12,13
769 -27 m 0,28,29
 633 -27 633 -27 513 19 c 0,30,31
 397 65 397 65 308 154 c 0,32,33
 205 255 205 255 155 386 c 0,34,35
 105 518 105 518 105 682 c 128,-1,36
 105 846 105 846 155 978 c 0,37,38
 205 1109 205 1109 308 1211 c 0,39,40
 396 1300 396 1300 513 1346 c 0,41,42
 631 1392 631 1392 769 1392 c 0,43,44
 1067 1392 1067 1392 1250 1197 c 128,-1,45
 1433 1002 1433 1002 1433 682 c 0,46,47
 1433 518 1433 518 1382 387 c 0,48,49
 1333 257 1333 257 1230 154 c 0,50,51
 1140 64 1140 64 1024 19 c 0,52,53
 907 -27 907 -27 769 -27 c 0,28,29
EndSplineSet
Validated: 1
EndChar

StartChar: Lambda
Encoding: 923 923 107
Width: 1354
VWidth: 1875
Flags: W
TeX: 76 0
LayerCount: 2
Fore
SplineSet
1027 97 m 9,0,-1
 626 1145 l 1,1,-1
 223 97 l 1,2,-1
 374 97 l 1,3,-1
 374 0 l 1,4,-1
 -11 0 l 1,5,-1
 -11 97 l 1,6,-1
 109 97 l 1,7,-1
 596 1367 l 1,8,-1
 750 1367 l 1,9,-1
 1238 97 l 1,10,-1
 1372 97 l 1,11,-1
 1372 0 l 1,12,-1
 875 0 l 1,13,-1
 875 97 l 1,14,-1
 1027 97 l 9,0,-1
EndSplineSet
Validated: 1
EndChar

StartChar: Xi
Encoding: 926 926 110
Width: 1319
VWidth: 1875
Flags: W
TeX: 88 0
LayerCount: 2
Fore
SplineSet
1091 172 m 17,0,-1
 1091 304 l 1,1,-1
 1204 304 l 1,2,-1
 1204 0 l 1,3,-1
 103 0 l 1,4,-1
 103 304 l 1,5,-1
 216 304 l 1,6,-1
 216 172 l 1,7,-1
 1091 172 l 17,0,-1
1091 1195 m 9,8,-1
 216 1195 l 1,9,-1
 216 1063 l 1,10,-1
 103 1063 l 1,11,-1
 103 1367 l 1,12,-1
 1204 1367 l 1,13,-1
 1204 1063 l 1,14,-1
 1091 1063 l 1,15,-1
 1091 1195 l 9,8,-1
439 685 m 1,16,-1
 439 514 l 1,17,-1
 326 514 l 1,18,-1
 326 968 l 1,19,-1
 439 968 l 1,20,-1
 439 797 l 1,21,-1
 869 797 l 1,22,-1
 869 968 l 1,23,-1
 981 968 l 1,24,-1
 981 514 l 1,25,-1
 869 514 l 1,26,-1
 869 685 l 1,27,-1
 439 685 l 1,16,-1
EndSplineSet
Validated: 1
EndChar

StartChar: Pi
Encoding: 928 928 112
Width: 1635
VWidth: 1875
Flags: W
TeX: 80 0
LayerCount: 2
Fore
SplineSet
1532 1367 m 1,0,-1
 1532 1269 l 1,1,-1
 1358 1269 l 1,2,-1
 1358 97 l 1,3,-1
 1532 97 l 1,4,-1
 1532 0 l 1,5,-1
 998 0 l 1,6,-1
 998 97 l 1,7,-1
 1172 97 l 1,8,-1
 1172 1254 l 1,9,-1
 463 1254 l 1,10,-1
 463 97 l 1,11,-1
 637 97 l 1,12,-1
 637 0 l 1,13,-1
 103 0 l 1,14,-1
 103 97 l 1,15,-1
 277 97 l 1,16,-1
 277 1269 l 1,17,-1
 103 1269 l 1,18,-1
 103 1367 l 1,19,-1
 1532 1367 l 1,0,-1
EndSplineSet
Validated: 1
EndChar

StartChar: Sigma
Encoding: 931 931 114
Width: 1325
VWidth: 1875
Flags: W
TeX: 83 0
LayerCount: 2
Fore
SplineSet
879 745 m 1,0,-1
 373 172 l 1,1,-1
 1087 172 l 1,2,-1
 1087 304 l 1,3,-1
 1199 304 l 1,4,-1
 1199 0 l 1,5,-1
 76 0 l 1,6,-1
 684 685 l 1,7,-1
 76 1367 l 1,8,-1
 1199 1367 l 1,9,-1
 1199 1063 l 1,10,-1
 1087 1063 l 1,11,-1
 1087 1254 l 1,12,-1
 450 1254 l 1,13,-1
 879 745 l 1,0,-1
EndSplineSet
Validated: 1
EndChar

StartChar: Phi
Encoding: 934 934 117
Width: 1537
VWidth: 1875
Flags: W
TeX: 80 0
CounterMasks: 1 00
LayerCount: 2
Fore
SplineSet
1384 890 m 152,-1,1
 1434 798 1434 798 1434 682 c 0,2,3
 1434 567 1434 567 1384 475 c 128,-1,4
 1334 383 1334 383 1231 312 c 0,5,6
 1139 248 1139 248 1026 218 c 0,7,8
 931 195 931 195 862 186 c 1,9,-1
 862 97 l 1,10,-1
 1036 97 l 1,11,-1
 1036 0 l 1,12,-1
 503 0 l 1,13,-1
 503 97 l 1,14,-1
 677 97 l 1,15,-1
 677 186 l 1,16,17
 608 195 608 195 513 218 c 0,18,19
 400 248 400 248 308 312 c 0,20,21
 205 383 205 383 155 475 c 128,-1,22
 105 567 105 567 105 682 c 0,23,24
 105 798 105 798 155 890 c 128,-1,25
 205 982 205 982 308 1053 c 0,26,27
 399 1118 399 1118 513 1147 c 0,28,29
 573 1163 573 1163 677 1177 c 1,30,-1
 677 1269 l 1,31,-1
 503 1269 l 1,32,-1
 503 1367 l 1,33,-1
 1036 1367 l 1,34,-1
 1036 1269 l 1,35,-1
 862 1269 l 1,36,-1
 862 1177 l 1,37,38
 966 1163 966 1163 1026 1147 c 0,39,40
 1140 1118 1140 1118 1231 1053 c 0,41,0
 1334 982 1334 982 1384 890 c 152,-1,1
862 260 m 1,42,43
 1020 279 1020 279 1110 363 c 0,44,45
 1224 471 1224 471 1224 682 c 0,46,47
 1224 903 1224 903 1110 1002 c 0,48,49
 1018 1082 1018 1082 862 1107 c 1,50,-1
 862 260 l 1,42,43
677 260 m 1,51,-1
 677 1107 l 1,52,53
 521 1082 521 1082 429 1002 c 0,54,55
 315 903 315 903 315 682 c 0,56,57
 315 471 315 471 429 363 c 0,58,59
 519 279 519 279 677 260 c 1,51,-1
EndSplineSet
Validated: 1
EndChar

StartChar: Psi
Encoding: 936 936 119
Width: 1644
VWidth: 1875
Flags: W
TeX: 80 0
CounterMasks: 1 00
LayerCount: 2
Fore
SplineSet
1212 835 m 2,0,-1
 1212 1100 l 2,1,2
 1211.98 1102.97 1211.98 1102.97 1211.98 1105.9 c 0,3,4
 1211.98 1367 1211.98 1367 1388 1367 c 2,5,-1
 1572 1367 l 1,6,-1
 1572 1269 l 1,7,-1
 1479 1269 l 2,8,9
 1396.99 1269 1396.99 1269 1396.99 1104 c 0,10,-1
 1397 1100 l 2,11,-1
 1397 819 l 2,12,13
 1397 559 1397 559 1275 449 c 0,14,15
 1169 354 1169 354 923 340 c 1,16,-1
 923 97 l 1,17,-1
 1097 97 l 1,18,-1
 1097 0 l 1,19,-1
 563 0 l 1,20,-1
 563 97 l 1,21,-1
 737 97 l 1,22,-1
 737 340 l 1,23,24
 486 354 486 354 385 449 c 0,25,26
 263 565 263 565 263 819 c 2,27,-1
 263 1100 l 2,28,29
 263.012 1102.01 263.012 1102.01 263.012 1104 c 0,30,31
 263.012 1269 263.012 1269 181 1269 c 2,32,-1
 88 1269 l 1,33,-1
 88 1367 l 1,34,-1
 272 1367 l 2,35,36
 448.022 1367 448.022 1367 448.022 1105.9 c 0,37,38
 448.022 1102.97 448.022 1102.97 448 1100 c 2,39,-1
 448 835 l 2,40,41
 448 614 448 614 533 528 c 0,42,43
 592 468 592 468 737 445 c 1,44,-1
 737 1269 l 1,45,-1
 563 1269 l 1,46,-1
 563 1367 l 1,47,-1
 1097 1367 l 1,48,-1
 1097 1269 l 1,49,-1
 923 1269 l 1,50,-1
 923 445 l 1,51,52
 1067 468 1067 468 1127 528 c 0,53,54
 1212 614 1212 614 1212 835 c 2,0,-1
EndSplineSet
Validated: 1
EndChar

StartChar: Omega
Encoding: 937 937 120
Width: 1554
VWidth: 1875
Flags: W
TeX: 117 0
LayerCount: 2
Fore
SplineSet
1025 150 m 1,0,-1
 1333 150 l 1,1,-1
 1333 276 l 1,2,-1
 1440 276 l 1,3,-1
 1440 0 l 1,4,-1
 898 0 l 1,5,-1
 898 167 l 1,6,7
 1062 230 1062 230 1148 373 c 0,8,9
 1232 516 1232 516 1232 728 c 0,10,11
 1232 983 1232 983 1107 1138 c 0,12,13
 981 1294 981 1294 778 1294 c 0,14,15
 574 1294 574 1294 450 1138 c 0,16,17
 324 984 324 984 324 728 c 0,18,19
 324 514 324 514 408 373 c 0,20,21
 492 230 492 230 656 167 c 1,22,-1
 656 0 l 1,23,-1
 116 0 l 1,24,-1
 116 276 l 1,25,-1
 223 276 l 1,26,-1
 223 150 l 1,27,-1
 529 150 l 1,28,29
 339 229 339 229 226 391 c 0,30,31
 114 553 114 553 114 748 c 0,32,33
 114 885 114 885 167 1006 c 0,34,35
 220 1128 220 1128 320 1220 c 0,36,37
 410 1303 410 1303 528 1348 c 0,38,39
 646 1392 646 1392 778 1392 c 128,-1,40
 910 1392 910 1392 1027 1348 c 0,41,42
 1146 1304 1146 1304 1234 1220 c 0,43,44
 1334 1129 1334 1129 1389 1006 c 0,45,46
 1442 883 1442 883 1442 748 c 0,47,48
 1442 552 1442 552 1330 391 c 0,49,50
 1216 229 1216 229 1025 150 c 1,0,-1
EndSplineSet
Validated: 1
EndChar

StartChar: endash
Encoding: 8211 8211 121
Width: 937
VWidth: 1875
Flags: W
TeX: 101 0
LayerCount: 2
Fore
SplineSet
96 497 m 1,0,-1
 96 610 l 1,1,-1
 841 610 l 1,2,-1
 841 497 l 1,3,-1
 96 497 l 1,0,-1
EndSplineSet
Validated: 1
EndChar

StartChar: bullet
Encoding: 8226 8226 122
Width: 1185
VWidth: 1875
Flags: W
TeX: 98 0
LayerCount: 2
Fore
SplineSet
593 367 m 128,-1,1
 523 367 523 367 473 417 c 0,2,3
 424 466 424 466 424 536 c 0,4,5
 424 607 424 607 473 656 c 0,6,7
 523 706 523 706 593 706 c 128,-1,8
 663 706 663 706 713 656 c 128,-1,9
 763 606 763 606 763 536 c 0,10,11
 763 467 763 467 713 417 c 128,-1,0
 663 367 663 367 593 367 c 128,-1,1
EndSplineSet
Validated: 1
EndChar

StartChar: arrowleft
Encoding: 8592 8592 123
Width: 1461
VWidth: 2250
Flags: W
TeX: 97 0
LayerCount: 2
Fore
SplineSet
1508 637 m 1,0,-1
 1508 525 l 1,1,-1
 267 525 l 1,2,3
 318 455 318 455 347 399 c 0,4,5
 360 370 360 370 375 330 c 0,6,7
 385 303 385 303 385 298 c 0,8,9
 385 288 385 288 375 276 c 0,10,11
 366 267 366 267 352 267 c 0,12,13
 332.5 267 332.5 267 316 288 c 0,14,15
 221 403 221 403 103 477 c 0,16,17
 31 524 31 524 -20 553 c 0,18,19
 -43 567 -43 567 -43 586 c 0,20,21
 -43 602 -43 602 8 631 c 0,22,23
 200 740 200 740 301 861 c 0,24,25
 334 898 334 898 351 898 c 128,-1,26
 368 898 368 898 378 885 c 0,27,28
 385 874 385 874 385 868 c 0,29,30
 385 834 385 834 333 741 c 0,31,32
 296 674 296 674 267 637 c 1,33,-1
 1508 637 l 1,0,-1
EndSplineSet
Validated: 1
EndChar

StartChar: arrowup
Encoding: 8593 8593 124
Width: 1463
VWidth: 2250
Flags: W
TeX: 97 0
LayerCount: 2
Fore
SplineSet
776 -62 m 1,0,-1
 687 -62 l 1,1,-1
 687 1052 l 1,2,3
 622 1002 622 1002 560 970 c 0,4,5
 546 961 546 961 491 939 c 0,6,7
 466 930 466 930 459 930 c 0,8,9
 428 930 428 930 428 964 c 0,10,11
 428 982 428 982 449 1000 c 0,12,13
 599 1120 599 1120 701 1323 c 0,14,15
 718 1360 718 1360 734 1360 c 0,16,17
 747 1360 747 1360 771 1308 c 0,18,19
 869 1124 869 1124 1000 1014 c 0,20,21
 1037 981 1037 981 1037 964 c 0,22,23
 1037 946 1037 946 1024 937 c 0,24,25
 1016 930 1016 930 1007 930 c 0,26,27
 974 930 974 930 880 983 c 0,28,29
 811 1023 811 1023 776 1052 c 1,30,-1
 776 -62 l 1,0,-1
EndSplineSet
Validated: 1
EndChar

StartChar: arrowright
Encoding: 8594 8594 125
Width: 1462
VWidth: 2250
Flags: W
TeX: 97 0
LayerCount: 2
Fore
SplineSet
-47 526 m 1,0,-1
 -47 639 l 1,1,-1
 1194 639 l 1,2,3
 1143 707 1143 707 1115 765 c 0,4,5
 1104 790 1104 790 1087 836 c 0,6,7
 1078 860 1078 860 1078 867 c 0,8,9
 1078 898 1078 898 1111 898 c 0,10,11
 1130 898 1130 898 1146 877 c 0,12,13
 1247 757 1247 757 1359 688 c 2,14,-1
 1482 612 l 2,15,16
 1505 599 1505 599 1505 580 c 128,-1,17
 1505 561 1505 561 1454 534 c 0,18,19
 1263 427 1263 427 1161 305 c 0,20,21
 1129 267 1129 267 1111 267 c 128,-1,22
 1093 267 1093 267 1084 281 c 0,23,24
 1078 290 1078 290 1078 298 c 0,25,26
 1078 331 1078 331 1129 424 c 0,27,28
 1174 503 1174 503 1194 526 c 1,29,-1
 -47 526 l 1,0,-1
EndSplineSet
Validated: 1
EndChar

StartChar: arrowdown
Encoding: 8595 8595 126
Width: 1463
VWidth: 2250
Flags: W
TeX: 97 0
LayerCount: 2
Fore
SplineSet
688 1367 m 1,0,-1
 778 1367 l 1,1,-1
 778 248 l 1,2,3
 838 294 838 294 905 328 c 0,4,5
 923 336 923 336 975 355 c 0,6,7
 999 364 999 364 1006 364 c 0,8,9
 1019 364 1019 364 1028 355 c 128,-1,10
 1037 346 1037 346 1037 331 c 0,11,12
 1037 317.5 1037 317.5 1028 307 c 0,13,14
 1026 305 1026 305 1015 295.5 c 128,-1,15
 1004 286 1004 286 995 278 c 0,16,17
 861 166 861 166 764 -26 c 0,18,19
 747.5 -62 747.5 -62 731 -62 c 0,20,21
 718 -62 718 -62 694 -12 c 0,22,23
 594 176 594 176 465 281 c 0,24,25
 428 312 428 312 428 331 c 0,26,27
 428 349 428 349 440 358 c 0,28,29
 449 364 449 364 458 364 c 0,30,31
 494 364 494 364 585 314 c 0,32,33
 655 274 655 274 688 248 c 1,34,-1
 688 1367 l 1,0,-1
EndSplineSet
Validated: 1
EndChar

StartChar: uni2218
Encoding: 8728 8728 127
Width: 1051
VWidth: 1875
Flags: W
TeX: 117 0
LayerCount: 2
Fore
SplineSet
203 542 m 128,-1,1
 203 675 203 675 298 770 c 0,2,3
 391 864 391 864 526 864 c 0,4,5
 660 864 660 864 753 770 c 0,6,7
 848 675 848 675 848 542 c 128,-1,8
 848 409 848 409 753 314 c 0,9,10
 660 220 660 220 526 220 c 0,11,12
 391 220 391 220 298 314 c 0,13,0
 203 409 203 409 203 542 c 128,-1,1
294 542 m 0,14,15
 294 446 294 446 362 379 c 0,16,17
 430 310 430 310 526 310 c 128,-1,18
 622 310 622 310 689 379 c 0,19,20
 757 446 757 446 757 542 c 0,21,22
 757 639 757 639 689 706 c 0,23,24
 622 775 622 775 526 775 c 128,-1,25
 430 775 430 775 362 706 c 0,26,27
 294 639 294 639 294 542 c 0,14,15
EndSplineSet
Validated: 1
EndChar

StartChar: uni223D
Encoding: 8765 8765 128
Width: 1490
VWidth: 1875
Flags: W
TeX: 117 0
LayerCount: 2
Fore
SplineSet
1231 406 m 1,0,1
 1231 491 1231 491 1187 547 c 0,2,3
 1142 605 1142 605 1078 605 c 0,4,5
 1006 605 1006 605 826 523 c 2,6,-1
 743 486 l 1,7,-1
 690 461 l 2,8,9
 518 385 518 385 445 385 c 0,10,11
 221 385 221 385 203 677 c 1,12,-1
 260 677 l 1,13,14
 283 480 283 480 413 480 c 0,15,16
 468 480 468 480 663 567 c 2,17,-1
 742 603 l 2,18,19
 953.5 699 953.5 699 1045 699 c 0,20,21
 1272 699 1272 699 1287 406 c 1,22,-1
 1231 406 l 1,0,1
EndSplineSet
Validated: 1
EndChar

StartChar: uni22C4
Encoding: 8900 8900 129
Width: 1490
VWidth: 1875
Flags: W
TeX: 117 0
LayerCount: 2
Fore
SplineSet
745 0 m 1,0,-1
 203 542 l 1,1,-1
 745 1084 l 1,2,-1
 1287 542 l 1,3,-1
 745 0 l 1,0,-1
745 128 m 1,4,-1
 1160 542 l 1,5,-1
 745 957 l 1,6,-1
 331 542 l 1,7,-1
 745 128 l 1,4,-1
EndSplineSet
Validated: 1
EndChar

StartChar: uni2323
Encoding: 8995 8995 130
Width: 1490
VWidth: 1875
Flags: W
TeX: 117 0
LayerCount: 2
Fore
SplineSet
1231 689 m 1,0,-1
 1287 689 l 1,1,2
 1087 396 1087 396 745 396 c 0,3,4
 405 396 405 396 203 689 c 1,5,-1
 260 689 l 1,6,7
 429 508 429 508 745 508 c 0,8,9
 1064 508 1064 508 1231 689 c 1,0,-1
EndSplineSet
Validated: 1
EndChar

StartChar: uniF500
Encoding: 62720 62720 131
Width: 1354
VWidth: 1875
Flags: W
LayerCount: 2
Fore
SplineSet
375 495 m 1,0,-1
 877 495 l 1,1,-1
 626 1145 l 1,2,-1
 375 495 l 1,0,-1
-11 0 m 1,3,-1
 -11 97 l 1,4,-1
 109 97 l 1,5,-1
 596 1367 l 1,6,-1
 750 1367 l 1,7,-1
 1238 97 l 1,8,-1
 1372 97 l 1,9,-1
 1372 0 l 1,10,-1
 875 0 l 1,11,-1
 875 97 l 1,12,-1
 1027 97 l 1,13,-1
 913 397 l 1,14,-1
 338 397 l 1,15,-1
 223 97 l 1,16,-1
 374 97 l 1,17,-1
 374 0 l 1,18,-1
 -11 0 l 1,3,-1
EndSplineSet
Validated: 1
Comment: "Samian4:uniF429,A" 
Colour: ff0000
EndChar

StartChar: uniF502
Encoding: 62722 62722 132
Width: 1353
VWidth: 1875
Flags: W
TeX: 117 0
LayerCount: 2
Fore
SplineSet
-11 0 m 1,0,-1
 -11 97 l 1,1,-1
 109 97 l 1,2,-1
 596 1367 l 1,3,-1
 750 1367 l 1,4,-1
 1238 97 l 1,5,-1
 1372 97 l 1,6,-1
 1372 0 l 1,7,-1
 875 0 l 1,8,-1
 875 97 l 1,9,-1
 1027 97 l 1,10,-1
 913 397 l 1,11,-1
 673 397 l 1,12,-1
 673 0 l 1,13,-1
 572 0 l 1,14,-1
 572 402 l 1,15,-1
 338 402 l 1,16,-1
 223 97 l 1,17,-1
 374 97 l 1,18,-1
 374 0 l 1,19,-1
 -11 0 l 1,0,-1
375 495 m 1,20,-1
 877 495 l 1,21,-1
 626 1145 l 1,22,-1
 375 495 l 1,20,-1
EndSplineSet
Validated: 1
Comment: "Samian4:uniF432,A" 
EndChar

StartChar: uniF503
Encoding: 62723 62723 133
Width: 1354
VWidth: 1875
Flags: W
TeX: 117 0
LayerCount: 2
Fore
SplineSet
435 645 m 1,0,-1
 636 144 l 1,1,-1
 830 612 l 1,2,-1
 629 1113 l 1,3,-1
 435 645 l 1,0,-1
377 497 m 1,4,-1
 223 97 l 1,5,-1
 374 97 l 1,6,-1
 374 0 l 1,7,-1
 -11 0 l 1,8,-1
 -11 97 l 1,9,-1
 109 97 l 1,10,-1
 596 1367 l 1,11,-1
 750 1367 l 1,12,-1
 1238 97 l 1,13,-1
 1372 97 l 1,14,-1
 1372 0 l 1,15,-1
 875 0 l 1,16,-1
 875 97 l 1,17,-1
 1027 97 l 1,18,-1
 866 518 l 1,19,-1
 655 0 l 1,20,-1
 568 0 l 1,21,-1
 377 497 l 1,4,-1
EndSplineSet
Validated: 1
Comment: "Samian4:uniF434,A" 
EndChar

StartChar: uniF504
Encoding: 62724 62724 134
Width: 1354
VWidth: 1875
Flags: W
TeX: 117 0
LayerCount: 2
Fore
SplineSet
549 471 m 5,0,-1
 710 471 l 5,1,-1
 710 0 l 5,2,-1
 549 0 l 5,3,-1
 549 471 l 5,0,-1
1027 97 m 9,4,-1
 626 1145 l 1,5,-1
 223 97 l 1,6,-1
 374 97 l 1,7,-1
 374 0 l 1,8,-1
 -11 0 l 1,9,-1
 -11 97 l 1,10,-1
 109 97 l 1,11,-1
 596 1367 l 1,12,-1
 750 1367 l 1,13,-1
 1238 97 l 1,14,-1
 1372 97 l 1,15,-1
 1372 0 l 1,16,-1
 875 0 l 1,17,-1
 875 97 l 1,18,-1
 1027 97 l 9,4,-1
EndSplineSet
Validated: 1
Comment: "Samian4:uniF435,A" 
EndChar

StartChar: uniF505
Encoding: 62725 62725 135
Width: 1354
VWidth: 1875
Flags: W
TeX: 117 0
LayerCount: 2
Fore
SplineSet
286 261 m 1,0,-1
 223 97 l 1,1,-1
 374 97 l 1,2,-1
 374 0 l 1,3,-1
 -11 0 l 1,4,-1
 -11 97 l 1,5,-1
 109 97 l 1,6,-1
 596 1367 l 1,7,-1
 750 1367 l 1,8,-1
 1238 97 l 1,9,-1
 1372 97 l 1,10,-1
 1372 0 l 1,11,-1
 875 0 l 1,12,-1
 875 97 l 1,13,-1
 1027 97 l 1,14,-1
 965 261 l 1,15,-1
 286 261 l 1,0,-1
325 362 m 1,16,-1
 926 362 l 1,17,-1
 626 1145 l 1,18,-1
 325 362 l 1,16,-1
EndSplineSet
Validated: 1
Comment: "Samian4:uniF4D4,A" 
EndChar

StartChar: uniF506
Encoding: 62726 62726 136
Width: 1354
VWidth: 1875
Flags: W
TeX: 117 0
LayerCount: 2
Fore
SplineSet
481 728 m 1,0,-1
 792 728 l 1,1,-1
 626 1145 l 1,2,-1
 481 728 l 1,0,-1
-11 0 m 1,3,-1
 -11 97 l 1,4,-1
 109 97 l 1,5,-1
 596 1367 l 1,6,-1
 750 1367 l 1,7,-1
 1238 97 l 1,8,-1
 1372 97 l 1,9,-1
 1372 0 l 1,10,-1
 875 0 l 1,11,-1
 875 97 l 1,12,-1
 1027 97 l 1,13,-1
 833 623 l 1,14,-1
 435 623 l 1,15,-1
 223 97 l 1,16,-1
 374 97 l 1,17,-1
 374 0 l 1,18,-1
 -11 0 l 1,3,-1
EndSplineSet
Validated: 1
Comment: "Samian4:uniF531,A" 
EndChar

StartChar: uniF507
Encoding: 62727 62727 137
Width: 1354
VWidth: 1875
Flags: W
TeX: 117 0
LayerCount: 2
Fore
SplineSet
568 1273 m 1,0,-1
 471 1272 l 1,1,-1
 471 1367 l 1,2,-1
 856 1367 l 1,3,-1
 856 1272 l 1,4,-1
 764 1272 l 1,5,-1
 1238 97 l 1,6,-1
 1372 97 l 1,7,-1
 1372 0 l 1,8,-1
 875 0 l 1,9,-1
 875 97 l 1,10,-1
 1027 97 l 1,11,-1
 913 397 l 1,12,-1
 338 397 l 1,13,-1
 223 97 l 1,14,-1
 374 97 l 1,15,-1
 374 0 l 1,16,-1
 -11 0 l 1,17,-1
 -11 97 l 1,18,-1
 109 97 l 1,19,-1
 568 1273 l 1,0,-1
375 495 m 1,20,-1
 877 495 l 1,21,-1
 626 1145 l 1,22,-1
 375 495 l 1,20,-1
EndSplineSet
Validated: 1
Comment: "Samian4:uniF528,A" 
EndChar

StartChar: uniF508
Encoding: 62728 62728 138
Width: 1354
VWidth: 1875
Flags: W
TeX: 117 0
LayerCount: 2
Fore
SplineSet
1027 97 m 1,0,-1
 626 1145 l 1,1,-1
 223 97 l 1,2,-1
 374 97 l 1,3,-1
 374 0 l 1,4,-1
 -11 0 l 1,5,-1
 -11 97 l 1,6,-1
 109 97 l 1,7,-1
 553 1255 l 1,8,-1
 430 1255 l 1,9,-1
 430 1373 l 1,10,-1
 906 1373 l 1,11,-1
 906 1259 l 1,12,-1
 792 1259 l 1,13,-1
 1238 97 l 1,14,-1
 1372 97 l 1,15,-1
 1372 0 l 1,16,-1
 875 0 l 1,17,-1
 875 97 l 1,18,-1
 1027 97 l 1,0,-1
EndSplineSet
Validated: 1
Comment: "Samian4:uniF529,A" 
EndChar

StartChar: uniF509
Encoding: 62729 62729 139
Width: 1354
VWidth: 1875
Flags: W
TeX: 117 0
LayerCount: 2
Fore
SplineSet
1027 97 m 9,0,-1
 626 1145 l 1,1,-1
 223 97 l 1,2,-1
 374 97 l 1,3,-1
 374 0 l 1,4,-1
 -11 0 l 1,5,-1
 -11 97 l 1,6,-1
 109 97 l 1,7,-1
 596 1367 l 1,8,-1
 750 1367 l 1,9,-1
 1238 97 l 1,10,-1
 1372 97 l 1,11,-1
 1372 0 l 1,12,-1
 875 0 l 1,13,-1
 875 97 l 1,14,-1
 1027 97 l 9,0,-1
EndSplineSet
Validated: 1
Comment: "Samian4:uniF423,A" 
EndChar

StartChar: uniF50A
Encoding: 62730 62730 140
Width: 1354
VWidth: 1875
Flags: W
TeX: 117 0
LayerCount: 2
Fore
SplineSet
627 348 m 4,0,1
 671 348 671 348 703 316 c 4,2,3
 734 285 734 285 734 241 c 4,4,5
 734 194 734 194 704 164 c 132,-1,6
 674 134 674 134 627 134 c 132,-1,7
 580 134 580 134 550 164 c 132,-1,8
 520 194 520 194 520 241 c 4,9,10
 520 284 520 284 552 316 c 132,-1,11
 584 348 584 348 627 348 c 4,0,1
1027 97 m 9,12,-1
 626 1145 l 1,13,-1
 223 97 l 1,14,-1
 374 97 l 1,15,-1
 374 0 l 1,16,-1
 -11 0 l 1,17,-1
 -11 97 l 1,18,-1
 109 97 l 1,19,-1
 596 1367 l 1,20,-1
 750 1367 l 1,21,-1
 1238 97 l 1,22,-1
 1372 97 l 1,23,-1
 1372 0 l 1,24,-1
 875 0 l 1,25,-1
 875 97 l 1,26,-1
 1027 97 l 9,12,-1
EndSplineSet
Validated: 1
Comment: "Samian4:uniF427,A" 
EndChar

StartChar: uniF50B
Encoding: 62731 62731 141
Width: 1354
VWidth: 1875
Flags: W
TeX: 117 0
LayerCount: 2
Fore
SplineSet
1247 1364 m 0,0,1
 1291 1364 1291 1364 1323 1332 c 128,-1,2
 1355 1300 1355 1300 1355 1257 c 0,3,4
 1355 1211 1355 1211 1324 1180 c 128,-1,5
 1293 1149 1293 1149 1247 1149 c 0,6,7
 1202 1149 1202 1149 1171 1180 c 0,8,9
 1140 1210 1140 1210 1140 1257 c 0,10,11
 1140 1300 1140 1300 1172 1332 c 128,-1,12
 1204 1364 1204 1364 1247 1364 c 0,0,1
618 307 m 128,-1,14
 660 307 660 307 694 275 c 0,15,16
 725 244 725 244 725 200 c 0,17,18
 725 153 725 153 695 123 c 0,19,20
 664 92 664 92 618 92 c 128,-1,21
 572 92 572 92 541 123 c 0,22,23
 511 153 511 153 511 200 c 0,24,25
 511 244 511 244 542 275 c 0,26,13
 576 307 576 307 618 307 c 128,-1,14
1027 97 m 9,27,-1
 626 1145 l 1,28,-1
 223 97 l 1,29,-1
 374 97 l 1,30,-1
 374 0 l 1,31,-1
 -11 0 l 1,32,-1
 -11 97 l 1,33,-1
 109 97 l 1,34,-1
 596 1367 l 1,35,-1
 750 1367 l 1,36,-1
 1238 97 l 1,37,-1
 1372 97 l 1,38,-1
 1372 0 l 1,39,-1
 875 0 l 1,40,-1
 875 97 l 1,41,-1
 1027 97 l 9,27,-1
EndSplineSet
Validated: 1
Comment: "Samian4:uniF4EC,A" 
EndChar

StartChar: uniF50C
Encoding: 62732 62732 142
Width: 1354
VWidth: 1875
Flags: W
TeX: 117 0
LayerCount: 2
Fore
SplineSet
786 728 m 5,0,-1
 626 1145 l 1,1,-1
 223 97 l 1,2,-1
 374 97 l 1,3,-1
 374 0 l 1,4,-1
 -11 0 l 1,5,-1
 -11 97 l 1,6,-1
 109 97 l 1,7,-1
 596 1367 l 1,8,-1
 750 1367 l 1,9,-1
 1238 97 l 1,10,-1
 1372 97 l 1,11,-1
 1372 0 l 1,12,-1
 875 0 l 1,13,-1
 875 97 l 1,14,-1
 1027 97 l 1,15,-1
 844 576 l 5,16,-1
 627 0 l 5,17,-1
 513 0 l 5,18,-1
 786 728 l 5,0,-1
EndSplineSet
Validated: 1
Comment: "Samian4:uniF42A,A" 
EndChar

StartChar: uniF50D
Encoding: 62733 62733 143
Width: 1354
VWidth: 1875
Flags: W
TeX: 117 0
LayerCount: 2
Fore
SplineSet
480 764 m 5,0,-1
 764 0 l 5,1,-1
 650 0 l 5,2,-1
 420 610 l 5,3,-1
 223 97 l 1,4,-1
 374 97 l 1,5,-1
 374 0 l 1,6,-1
 -11 0 l 1,7,-1
 -11 97 l 1,8,-1
 109 97 l 1,9,-1
 596 1367 l 1,10,-1
 750 1367 l 1,11,-1
 1238 97 l 1,12,-1
 1372 97 l 1,13,-1
 1372 0 l 1,14,-1
 875 0 l 1,15,-1
 875 97 l 1,16,-1
 1027 97 l 1,17,-1
 626 1145 l 1,18,-1
 480 764 l 5,0,-1
EndSplineSet
Validated: 1
Comment: "Samian4:uniF430,A" 
EndChar

StartChar: uniF50E
Encoding: 62734 62734 144
Width: 1385
VWidth: 1875
Flags: W
TeX: 117 0
LayerCount: 2
Fore
SplineSet
1035 98 m 1,0,-1
 634 1146 l 1,1,-1
 232 98 l 1,2,-1
 382 98 l 1,3,-1
 382 0 l 1,4,-1
 -3 0 l 1,5,-1
 -3 98 l 1,6,-1
 117 98 l 1,7,-1
 604 1367 l 1,8,-1
 607 1367 l 1,9,10
 583 1519 583 1519 455 1617 c 1,11,12
 473 1620 473 1620 491 1620 c 0,13,14
 606 1620 606 1620 689 1521 c 1,15,-1
 758 1367 l 1,16,-1
 1246 98 l 1,17,-1
 1381 98 l 1,18,-1
 1381 0 l 1,19,-1
 883 0 l 1,20,-1
 883 98 l 1,21,-1
 1035 98 l 1,0,-1
EndSplineSet
Validated: 1
Comment: "Samian4:uniF424,A" 
EndChar

StartChar: uniF50F
Encoding: 62735 62735 145
Width: 1385
VWidth: 1875
Flags: W
LayerCount: 2
Fore
SplineSet
1027 97 m 1,0,-1
 626 1145 l 1,1,-1
 223 97 l 1,2,-1
 374 97 l 1,3,-1
 374 0 l 1,4,-1
 -11 0 l 1,5,-1
 -11 97 l 1,6,-1
 109 97 l 1,7,-1
 596 1367 l 1,8,-1
 601 1367 l 1,9,-1
 667 1513 l 1,10,11
 750 1612 750 1612 865 1612 c 0,12,13
 883 1612 883 1612 901 1609 c 1,14,15
 775 1514 775 1514 750 1367 c 1,16,-1
 1238 97 l 1,17,-1
 1372 97 l 1,18,-1
 1372 0 l 1,19,-1
 875 0 l 1,20,-1
 875 97 l 1,21,-1
 1027 97 l 1,0,-1
EndSplineSet
Validated: 1
Comment: "Samian4:uniF425,A" 
EndChar

StartChar: uniF510
Encoding: 62736 62736 146
Width: 1218
VWidth: 1875
Flags: W
LayerCount: 2
Fore
SplineSet
925 97 m 1,0,-1
 211 1126 l 1,1,-1
 211 97 l 1,2,-1
 336 97 l 1,3,-1
 336 0 l 1,4,-1
 -10 0 l 1,5,-1
 -10 97 l 1,6,-1
 92 97 l 1,7,-1
 92 1373 l 1,8,-1
 230 1373 l 1,9,-1
 1114 97 l 1,10,-1
 1235 97 l 1,11,-1
 1235 0 l 1,12,-1
 787 0 l 1,13,-1
 787 97 l 1,14,-1
 925 97 l 1,0,-1
EndSplineSet
Validated: 1
Comment: "Samian4:uniF656,A" 
EndChar

StartChar: uniF511
Encoding: 62737 62737 147
Width: 1354
VWidth: 1875
Flags: W
LayerCount: 2
Fore
SplineSet
560 266 m 0,0,1
 560 318 560 318 595 353 c 0,2,3
 629.5 389 629.5 389 682 389 c 0,4,5
 732 389 732 389 768 353 c 0,6,7
 804 318.5 804 318.5 804 266 c 0,8,9
 804 216 804 216 768 180 c 0,10,11
 731 145 731 145 682 145 c 0,12,13
 629 145 629 145 595 180 c 0,14,15
 560 215 560 215 560 266 c 0,0,1
1035 97 m 1,16,-1
 1035 1117 l 1,17,-1
 223 97 l 1,18,-1
 374 97 l 1,19,-1
 374 0 l 1,20,-1
 -11 0 l 1,21,-1
 -11 97 l 1,22,-1
 109 97 l 1,23,-1
 1087 1337 l 1,24,-1
 1241 1337 l 1,25,-1
 1241 97 l 1,26,-1
 1372 97 l 1,27,-1
 1372 0 l 1,28,-1
 875 0 l 1,29,-1
 875 97 l 1,30,-1
 1035 97 l 1,16,-1
EndSplineSet
Validated: 1
Comment: "Samian4:uniF525,A" 
EndChar

StartChar: uniF517
Encoding: 62743 62743 148
Width: 1354
VWidth: 1875
Flags: W
LayerCount: 2
Fore
SplineSet
986 872 m 1,0,-1
 484 872 l 1,1,-1
 735 222 l 1,2,-1
 986 872 l 1,0,-1
1372 1367 m 1,3,-1
 1372 1270 l 1,4,-1
 1252 1270 l 1,5,-1
 765 0 l 1,6,-1
 612 0 l 1,7,-1
 124 1270 l 1,8,-1
 -11 1270 l 1,9,-1
 -11 1367 l 1,10,-1
 486 1367 l 1,11,-1
 486 1270 l 1,12,-1
 334 1270 l 1,13,-1
 449 970 l 1,14,-1
 1024 970 l 1,15,-1
 1138 1270 l 1,16,-1
 988 1270 l 1,17,-1
 988 1367 l 1,18,-1
 1372 1367 l 1,3,-1
EndSplineSet
Validated: 1
Comment: "Samian4:uniF431,A" 
EndChar

StartChar: uniF518
Encoding: 62744 62744 149
Width: 1936
VWidth: 1875
Flags: W
TeX: 117 0
LayerCount: 2
Fore
SplineSet
1488 7 m 1,0,-1
 875 0 l 1,1,-1
 875 97 l 1,2,-1
 1027 97 l 1,3,-1
 626 1145 l 1,4,-1
 223 97 l 1,5,-1
 374 97 l 1,6,-1
 374 0 l 1,7,-1
 -11 0 l 1,8,-1
 -11 97 l 1,9,-1
 109 97 l 1,10,-1
 596 1374 l 1,11,-1
 1029 1374 l 2,12,13
 1127 1374 1127 1374 1202 1354 c 0,14,15
 1274 1334 1274 1334 1340 1290 c 0,16,17
 1466 1205 1466 1205 1527 1036 c 0,18,19
 1549.83 971.765 1549.83 971.765 1549.83 921.058 c 0,20,21
 1549.83 876.247 1549.83 876.247 1532 842 c 0,22,23
 1493 769 1493 769 1373 753 c 1,24,25
 1539 732 1539 732 1651 642 c 0,26,27
 1764 554 1764 554 1820 403 c 0,28,29
 1854.83 306.144 1854.83 306.144 1854.83 233.418 c 0,30,31
 1854.83 153.719 1854.83 153.719 1813 103 c 0,32,33
 1793 79 1793 79 1762 57 c 0,34,35
 1733.5 36 1733.5 36 1690 18 c 0,36,37
 1645 0 1645 0 1599 -1 c 0,38,39
 1588.93 -1.64286 1588.93 -1.64286 1578.08 -1.64286 c 0,40,41
 1538.29 -1.64286 1538.29 -1.64286 1488 7 c 1,0,-1
785 1276 m 1,42,-1
 969 797 l 1,43,-1
 1165 797 l 2,44,45
 1301.5 797 1301.5 797 1342 854 c 0,46,47
 1361.55 881.174 1361.55 881.174 1361.55 923.804 c 0,48,49
 1361.55 970.593 1361.55 970.593 1338 1036 c 0,50,51
 1291 1166 1291 1166 1209 1221 c 0,52,53
 1130 1276 1130 1276 991 1276 c 2,54,-1
 785 1276 l 1,42,-1
1006 699 m 1,55,-1
 1235 104 l 1,56,-1
 1454 104 l 2,57,58
 1603 104 1603 104 1645 176 c 0,59,60
 1663.49 206.96 1663.49 206.96 1663.49 253.267 c 0,61,62
 1663.49 314.65 1663.49 314.65 1631 403 c 0,63,64
 1574 557 1574 557 1481 629 c 0,65,66
 1387 699 1387 699 1237 699 c 2,67,-1
 1006 699 l 1,55,-1
EndSplineSet
Validated: 1
Comment: "Samian4:uniF521,AB" 
EndChar

StartChar: uniF519
Encoding: 62745 62745 150
Width: 1593
VWidth: 1875
Flags: W
TeX: 117 0
LayerCount: 2
Fore
SplineSet
787 0 m 1,0,-1
 787 97 l 1,1,-1
 925 97 l 1,2,-1
 821 397 l 1,3,-1
 304 397 l 1,4,-1
 201 97 l 1,5,-1
 336 97 l 1,6,-1
 336 0 l 1,7,-1
 -10 0 l 1,8,-1
 -10 97 l 1,9,-1
 98 97 l 1,10,-1
 540 1361 l 1,11,-1
 675 1361 l 1,12,-1
 880 1361 l 2,13,14
 1199 1361 1199 1361 1376 1181 c 0,15,16
 1554 1000 1554 1000 1554 679 c 0,17,18
 1554 359 1554 359 1376 176 c 0,19,20
 1309 109 1309 109 1227 68 c 1,21,-1
 1227 0 l 1,22,-1
 787 0 l 1,0,-1
338 495 m 1,23,-1
 789 495 l 1,24,-1
 564 1145 l 1,25,-1
 338 495 l 1,23,-1
710 1263 m 1,26,-1
 1094 137 l 1,27,28
 1180 178 1180 178 1236 244 c 0,29,30
 1364 396 1364 396 1364 679 c 0,31,32
 1364 964 1364 964 1236 1113 c 0,33,34
 1108 1263 1108 1263 868 1263 c 2,35,-1
 710 1263 l 1,26,-1
EndSplineSet
Validated: 1
Comment: "Samian4:uniF426,AD" 
EndChar

StartChar: uniF51A
Encoding: 62746 62746 151
Width: 1850
VWidth: 1875
Flags: W
LayerCount: 2
Fore
SplineSet
544 1367 m 1,0,-1
 1330 1367 l 1,1,-1
 1436 1065 l 1,2,-1
 1335 1065 l 1,3,-1
 1268 1256 l 1,4,-1
 713 1256 l 1,5,-1
 872 798 l 1,6,-1
 1266 798 l 1,7,-1
 1206 970 l 1,8,-1
 1307 970 l 1,9,-1
 1465 515 l 1,10,-1
 1364 515 l 1,11,-1
 1305 687 l 1,12,-1
 910 687 l 1,13,-1
 1108 114 l 1,14,-1
 1679 114 l 1,15,-1
 1612 306 l 1,16,-1
 1714 306 l 1,17,-1
 1820 0 l 1,18,-1
 787 0 l 1,19,-1
 787 86 l 1,20,-1
 783 99 l 1,21,-1
 924 99 l 1,22,-1
 821 397 l 1,23,-1
 304 397 l 1,24,-1
 201 97 l 1,25,-1
 336 97 l 1,26,-1
 336 0 l 1,27,-1
 -10 0 l 1,28,-1
 -10 97 l 1,29,-1
 98 97 l 1,30,-1
 544 1367 l 1,0,-1
338 495 m 1,31,-1
 789 495 l 1,32,-1
 564 1145 l 1,33,-1
 338 495 l 1,31,-1
EndSplineSet
Validated: 1
Comment: "Samian4:uniF475,AE" 
EndChar

StartChar: uniF51B
Encoding: 62747 62747 152
Width: 2773
VWidth: 1875
Flags: W
TeX: 117 0
LayerCount: 2
Fore
SplineSet
-11 0 m 1,0,-1
 -11 97 l 1,1,-1
 109 97 l 1,2,-1
 596 1367 l 1,3,-1
 750 1367 l 1,4,-1
 1447 1367 l 1,5,-1
 1558 1063 l 1,6,-1
 1456 1063 l 1,7,-1
 1387 1254 l 1,8,-1
 805 1254 l 1,9,-1
 971 797 l 1,10,-1
 1391 797 l 1,11,-1
 1329 968 l 1,12,-1
 1431 968 l 1,13,-1
 1596 514 l 1,14,-1
 1494 514 l 1,15,-1
 1432 685 l 1,16,-1
 1012 685 l 1,17,-1
 1238 97 l 1,18,-1
 1372 97 l 1,19,-1
 1372 0 l 1,20,-1
 938 0 l 1,21,-1
 875 0 l 1,22,-1
 875 97 l 1,23,-1
 1027 97 l 1,24,-1
 913 397 l 1,25,-1
 338 397 l 1,26,-1
 223 97 l 1,27,-1
 374 97 l 1,28,-1
 374 0 l 1,29,-1
 -11 0 l 1,0,-1
375 495 m 1,30,-1
 877 495 l 1,31,-1
 626 1145 l 1,32,-1
 375 495 l 1,30,-1
EndSplineSet
Validated: 1
Comment: "Samian4:uniF534,AF" 
EndChar

StartChar: uniF51C
Encoding: 62748 62748 153
Width: 1861
VWidth: 1875
Flags: W
LayerCount: 2
Fore
SplineSet
1818 0 m 1,0,-1
 787 0 l 1,1,-1
 787 97 l 1,2,-1
 925 97 l 1,3,-1
 821 397 l 1,4,-1
 304 397 l 1,5,-1
 201 97 l 1,6,-1
 336 97 l 1,7,-1
 336 0 l 1,8,-1
 -10 0 l 1,9,-1
 -10 97 l 1,10,-1
 98 97 l 1,11,-1
 536 1367 l 1,12,-1
 675 1367 l 1,13,-1
 1114 97 l 1,14,-1
 1719 97 l 1,15,-1
 1719 148 l 1,16,-1
 1818 148 l 1,17,-1
 1818 0 l 1,0,-1
338 495 m 1,18,-1
 789 495 l 1,19,-1
 564 1145 l 1,20,-1
 338 495 l 1,18,-1
EndSplineSet
Validated: 1
Comment: "Samian4:uniF476,AL" 
EndChar

StartChar: uniF520
Encoding: 62752 62752 154
Width: 1927
VWidth: 1875
Flags: W
TeX: 117 0
LayerCount: 2
Fore
SplineSet
502 1367 m 1,0,-1
 652 1367 l 1,1,-1
 965 255 l 1,2,-1
 1278 1367 l 1,3,-1
 1428 1367 l 1,4,-1
 1786 98 l 1,5,-1
 1922 98 l 1,6,-1
 1922 0 l 1,7,-1
 1423 0 l 1,8,-1
 1423 98 l 1,9,-1
 1593 98 l 1,10,-1
 1308 1108 l 1,11,-1
 997 0 l 1,12,-1
 849 0 l 1,13,-1
 705 506 l 5,14,-1
 360 506 l 5,15,-1
 245 98 l 1,16,-1
 403 98 l 1,17,-1
 403 0 l 1,18,-1
 9 0 l 1,19,-1
 9 98 l 1,20,-1
 144 98 l 1,21,-1
 502 1367 l 1,0,-1
389 609 m 5,22,-1
 676 609 l 5,23,-1
 532 1120 l 1,24,-1
 389 609 l 5,22,-1
EndSplineSet
Validated: 1
Comment: "Samian4:uniF42D,AM/AN" 
EndChar

StartChar: uniF521
Encoding: 62753 62753 155
Width: 1927
VWidth: 1875
Flags: W
LayerCount: 2
Fore
SplineSet
460 224 m 128,-1,1
 460 276 460 276 491 311 c 0,2,3
 523 346 523 346 570 346 c 0,4,5
 616 346 616 346 647 310 c 0,6,7
 679 277 679 277 679 224 c 128,-1,8
 679 171 679 171 647 138 c 0,9,10
 616 103 616 103 570 103 c 0,11,12
 522 103 522 103 491 137 c 0,13,0
 460 172 460 172 460 224 c 128,-1,1
502 1367 m 1,14,-1
 652 1367 l 1,15,-1
 965 255 l 1,16,-1
 1278 1367 l 1,17,-1
 1428 1367 l 1,18,-1
 1786 98 l 1,19,-1
 1922 98 l 1,20,-1
 1922 0 l 1,21,-1
 1423 0 l 1,22,-1
 1423 98 l 1,23,-1
 1593 98 l 1,24,-1
 1308 1108 l 1,25,-1
 997 0 l 1,26,-1
 849 0 l 1,27,-1
 532 1120 l 1,28,-1
 245 98 l 1,29,-1
 403 98 l 1,30,-1
 403 0 l 1,31,-1
 9 0 l 1,32,-1
 9 98 l 1,33,-1
 144 98 l 1,34,-1
 502 1367 l 1,14,-1
EndSplineSet
Validated: 1
Comment: "Samian4:uniF526,AM/AN" 
EndChar

StartChar: uniF522
Encoding: 62754 62754 156
Width: 1927
VWidth: 1875
Flags: W
TeX: 117 0
LayerCount: 2
Fore
SplineSet
502 1367 m 1,0,-1
 652 1367 l 1,1,-1
 965 255 l 1,2,-1
 1278 1367 l 1,3,-1
 1428 1367 l 1,4,-1
 1786 98 l 1,5,-1
 1922 98 l 1,6,-1
 1922 0 l 1,7,-1
 1423 0 l 1,8,-1
 1423 98 l 1,9,-1
 1593 98 l 1,10,-1
 1471 532 l 1,11,-1
 1146 532 l 1,12,-1
 997 0 l 1,13,-1
 849 0 l 1,14,-1
 696 538 l 1,15,-1
 369 538 l 1,16,-1
 245 98 l 1,17,-1
 403 98 l 1,18,-1
 403 0 l 1,19,-1
 9 0 l 1,20,-1
 9 98 l 1,21,-1
 144 98 l 1,22,-1
 502 1367 l 1,0,-1
394 628 m 1,23,-1
 671 628 l 1,24,-1
 532 1120 l 1,25,-1
 394 628 l 1,23,-1
1179 647 m 1,26,-1
 1438 647 l 1,27,-1
 1308 1108 l 1,28,-1
 1179 647 l 1,26,-1
EndSplineSet
Validated: 1
Comment: "Samian4:uniF42B,AMA/ANA" 
EndChar

StartChar: uniF523
Encoding: 62755 62755 157
Width: 1927
VWidth: 1875
Flags: W
TeX: 117 0
LayerCount: 2
Fore
SplineSet
1261 333 m 0,0,1
 1305 333 1305 333 1337 301 c 0,2,3
 1368 270 1368 270 1368 226 c 0,4,5
 1368 179 1368 179 1338 149 c 128,-1,6
 1308 119 1308 119 1261 119 c 128,-1,7
 1214 119 1214 119 1184 149 c 128,-1,8
 1154 179 1154 179 1154 226 c 0,9,10
 1154 269 1154 269 1186 301 c 128,-1,11
 1218 333 1218 333 1261 333 c 0,0,1
575 326 m 0,12,13
 620 326 620 326 651 295 c 0,14,15
 683 263 683 263 683 219 c 128,-1,16
 683 175 683 175 652 142 c 0,17,18
 622 112 622 112 575 112 c 0,19,20
 529 112 529 112 499 142 c 0,21,22
 468 173 468 173 468 219 c 0,23,24
 468 263 468 263 500 295 c 0,25,26
 531 326 531 326 575 326 c 0,12,13
502 1367 m 1,27,-1
 652 1367 l 1,28,-1
 965 255 l 1,29,-1
 1278 1367 l 1,30,-1
 1428 1367 l 1,31,-1
 1786 98 l 1,32,-1
 1922 98 l 1,33,-1
 1922 0 l 1,34,-1
 1423 0 l 1,35,-1
 1423 98 l 1,36,-1
 1593 98 l 1,37,-1
 1308 1108 l 1,38,-1
 997 0 l 1,39,-1
 849 0 l 1,40,-1
 532 1120 l 1,41,-1
 245 98 l 1,42,-1
 403 98 l 1,43,-1
 403 0 l 1,44,-1
 9 0 l 1,45,-1
 9 98 l 1,46,-1
 144 98 l 1,47,-1
 502 1367 l 1,27,-1
EndSplineSet
Validated: 1
Comment: "Samian4:uniF42C,AMA" 
EndChar

StartChar: uniF524
Encoding: 62756 62756 158
Width: 2469
VWidth: 1875
Flags: W
TeX: 117 0
LayerCount: 2
Fore
SplineSet
2101 1362 m 1,0,-1
 2185 1058 l 1,1,-1
 2084 1058 l 1,2,-1
 2031 1250 l 1,3,-1
 1465 1250 l 1,4,-1
 1591 792 l 1,5,-1
 1995 792 l 1,6,-1
 1948 963 l 1,7,-1
 2049 963 l 1,8,-1
 2174 509 l 1,9,-1
 2073 509 l 1,10,-1
 2026 680 l 1,11,-1
 1622 680 l 1,12,-1
 1640 616 l 1,13,-1
 1783 108 l 1,14,-1
 2359 108 l 1,15,-1
 2306 299 l 1,16,-1
 2408 299 l 1,17,-1
 2492 -5 l 1,18,-1
 1423 -5 l 1,19,-1
 1423 98 l 1,20,-1
 1593 98 l 1,21,-1
 1308 1108 l 1,22,-1
 997 0 l 1,23,-1
 849 0 l 1,24,-1
 724 439 l 1,25,-1
 341 439 l 1,26,-1
 245 98 l 1,27,-1
 403 98 l 1,28,-1
 403 0 l 1,29,-1
 9 0 l 1,30,-1
 9 98 l 1,31,-1
 144 98 l 1,32,-1
 502 1367 l 1,33,-1
 652 1367 l 1,34,-1
 965 255 l 1,35,-1
 1249 1264 l 1,36,-1
 1138 1264 l 1,37,-1
 1111 1362 l 1,38,-1
 2101 1362 l 1,0,-1
370 542 m 1,39,-1
 695 542 l 1,40,-1
 532 1120 l 1,41,-1
 370 542 l 1,39,-1
EndSplineSet
Validated: 1
Comment: "Samian4:uniF4E7,AME/ANE" 
EndChar

StartChar: uniF528
Encoding: 62760 62760 159
Width: 1614
VWidth: 1875
Flags: W
TeX: 117 0
LayerCount: 2
Fore
SplineSet
1068 220 m 1,0,-1
 1430 1268 l 1,1,-1
 1295 1268 l 1,2,-1
 1295 1367 l 1,3,-1
 1642 1367 l 1,4,-1
 1642 1268 l 1,5,-1
 1534 1268 l 1,6,-1
 1095 0 l 1,7,-1
 957 0 l 1,8,-1
 783 505 l 1,9,-1
 343 505 l 1,10,-1
 201 97 l 1,11,-1
 336 97 l 1,12,-1
 336 0 l 1,13,-1
 -10 0 l 1,14,-1
 -10 97 l 1,15,-1
 98 97 l 1,16,-1
 536 1367 l 1,17,-1
 675 1367 l 1,18,-1
 1068 220 l 1,0,-1
383 621 m 1,19,-1
 744 621 l 1,20,-1
 564 1145 l 1,21,-1
 383 621 l 1,19,-1
EndSplineSet
Validated: 1
Comment: "Samian4:uniF4B5,AN/AV" 
EndChar

StartChar: uniF529
Encoding: 62761 62761 160
Width: 1640
VWidth: 1875
Flags: W
TeX: 117 0
LayerCount: 2
Fore
SplineSet
92 0 m 1,0,-1
 92 97 l 1,1,-1
 276 97 l 1,2,-1
 276 1269 l 1,3,-1
 92 1269 l 1,4,-1
 92 1367 l 1,5,-1
 442 1367 l 1,6,-1
 1262 288 l 5,7,-1
 1262 1269 l 5,8,-1
 1078 1269 l 5,9,-1
 1078 1367 l 5,10,-1
 1558 1367 l 5,11,-1
 1558 1269 l 5,12,-1
 1374 1269 l 5,13,-1
 1374 -27 l 5,14,-1
 1263 -27 l 1,15,-1
 847 522 l 1,16,-1
 388 522 l 1,17,-1
 388 97 l 1,18,-1
 572 97 l 1,19,-1
 572 0 l 1,20,-1
 92 0 l 1,0,-1
388 632 m 1,21,-1
 763 632 l 1,22,-1
 388 1125 l 1,23,-1
 388 632 l 1,21,-1
EndSplineSet
Validated: 1
Comment: "Samian4:uniF42E,AN" 
EndChar

StartChar: uniF52A
Encoding: 62762 62762 161
Width: 1640
VWidth: 1875
Flags: W
TeX: 117 0
LayerCount: 2
Fore
SplineSet
92 0 m 1,0,-1
 92 97 l 1,1,-1
 276 97 l 1,2,-1
 276 1269 l 1,3,-1
 -44 1269 l 1,4,-1
 -44 1367 l 1,5,-1
 442 1367 l 1,6,-1
 818 1367 l 1,7,-1
 818 1269 l 1,8,-1
 517 1269 l 1,9,-1
 1262 288 l 1,10,-1
 1262 1269 l 1,11,-1
 1078 1269 l 1,12,-1
 1078 1367 l 1,13,-1
 1558 1367 l 1,14,-1
 1558 1269 l 1,15,-1
 1374 1269 l 1,16,-1
 1374 -27 l 1,17,-1
 1263 -27 l 1,18,-1
 972 357 l 1,19,-1
 388 357 l 1,20,-1
 388 97 l 1,21,-1
 572 97 l 1,22,-1
 572 0 l 1,23,-1
 92 0 l 1,0,-1
388 456 m 1,24,-1
 897 456 l 1,25,-1
 388 1125 l 1,26,-1
 388 456 l 1,24,-1
EndSplineSet
Validated: 1
Comment: "Samian4:uniF608,AN/TAN" 
EndChar

StartChar: uniF52B
Encoding: 62763 62763 162
Width: 1688
VWidth: 1875
Flags: W
LayerCount: 2
Fore
SplineSet
564 331 m 0,0,1
 609 331 609 331 640 300 c 0,2,3
 672 268 672 268 672 224 c 128,-1,4
 672 180 672 180 641 147 c 0,5,6
 611 117 611 117 564 117 c 0,7,8
 518 117 518 117 488 147 c 0,9,10
 457 178 457 178 457 224 c 0,11,12
 457 268 457 268 489 300 c 0,13,14
 520 331 520 331 564 331 c 0,0,1
1057 225 m 1,15,-1
 1419 1273 l 1,16,-1
 1284 1273 l 1,17,-1
 1284 1372 l 1,18,-1
 1631 1372 l 1,19,-1
 1631 1273 l 1,20,-1
 1523 1273 l 1,21,-1
 1084 5 l 1,22,-1
 946 5 l 1,23,-1
 553 1150 l 1,24,-1
 190 102 l 1,25,-1
 325 102 l 1,26,-1
 325 5 l 1,27,-1
 -21 5 l 1,28,-1
 -21 102 l 1,29,-1
 87 102 l 1,30,-1
 525 1372 l 1,31,-1
 664 1372 l 1,32,-1
 1057 225 l 1,15,-1
EndSplineSet
Validated: 1
Comment: "Samian4:uniF477,AN/AV" 
EndChar

StartChar: uniF52C
Encoding: 62764 62764 163
Width: 1667
VWidth: 1875
Flags: W
TeX: 117 0
LayerCount: 2
Fore
SplineSet
1068 220 m 1,0,-1
 1430 1268 l 1,1,-1
 1295 1268 l 1,2,-1
 1295 1367 l 1,3,-1
 1642 1367 l 1,4,-1
 1642 1268 l 1,5,-1
 1534 1268 l 1,6,-1
 1095 0 l 1,7,-1
 957 0 l 1,8,-1
 564 1145 l 1,9,-1
 201 97 l 1,10,-1
 336 97 l 1,11,-1
 336 0 l 1,12,-1
 -10 0 l 1,13,-1
 -10 97 l 1,14,-1
 98 97 l 1,15,-1
 536 1367 l 1,16,-1
 675 1367 l 1,17,-1
 1068 220 l 1,0,-1
522 334 m 5,18,-1
 664 334 l 5,19,-1
 664 0 l 5,20,-1
 522 0 l 5,21,-1
 522 334 l 5,18,-1
EndSplineSet
Validated: 1
Comment: "Samian4:uniF478,AN/AV" 
EndChar

StartChar: uniF530
Encoding: 62768 62768 164
Width: 1927
VWidth: 1875
Flags: W
LayerCount: 2
Fore
SplineSet
1261 333 m 0,0,1
 1305 333 1305 333 1337 301 c 0,2,3
 1368 270 1368 270 1368 226 c 0,4,5
 1368 179 1368 179 1338 149 c 128,-1,6
 1308 119 1308 119 1261 119 c 128,-1,7
 1214 119 1214 119 1184 149 c 128,-1,8
 1154 179 1154 179 1154 226 c 0,9,10
 1154 269 1154 269 1186 301 c 128,-1,11
 1218 333 1218 333 1261 333 c 0,0,1
575 326 m 0,12,13
 620 326 620 326 651 295 c 0,14,15
 683 263 683 263 683 219 c 128,-1,16
 683 175 683 175 652 142 c 0,17,18
 622 112 622 112 575 112 c 0,19,20
 529 112 529 112 499 142 c 0,21,22
 468 173 468 173 468 219 c 0,23,24
 468 263 468 263 500 295 c 0,25,26
 531 326 531 326 575 326 c 0,12,13
974 1365 m 0,27,28
 1019 1365 1019 1365 1050 1333 c 0,29,30
 1081 1302 1081 1302 1081 1258 c 0,31,32
 1081 1211 1081 1211 1051 1181 c 128,-1,33
 1021 1151 1021 1151 974 1151 c 128,-1,34
 927 1151 927 1151 897 1181 c 128,-1,35
 867 1211 867 1211 867 1258 c 0,36,37
 867 1301 867 1301 899 1333 c 0,38,39
 930 1365 930 1365 974 1365 c 0,27,28
502 1367 m 1,40,-1
 652 1367 l 1,41,-1
 965 255 l 1,42,-1
 1278 1367 l 1,43,-1
 1428 1367 l 1,44,-1
 1786 98 l 1,45,-1
 1922 98 l 1,46,-1
 1922 0 l 1,47,-1
 1423 0 l 1,48,-1
 1423 98 l 1,49,-1
 1593 98 l 1,50,-1
 1308 1108 l 1,51,-1
 997 0 l 1,52,-1
 849 0 l 1,53,-1
 532 1120 l 1,54,-1
 245 98 l 1,55,-1
 403 98 l 1,56,-1
 403 0 l 1,57,-1
 9 0 l 1,58,-1
 9 98 l 1,59,-1
 144 98 l 1,60,-1
 502 1367 l 1,40,-1
EndSplineSet
Validated: 1
Comment: "Samian4:uniF4E6,ANA/M" 
EndChar

StartChar: uniF531
Encoding: 62769 62769 165
Width: 2441
VWidth: 1875
Flags: W
TeX: 117 0
LayerCount: 2
Fore
SplineSet
1409 0 m 2,0,-1
 787 0 l 1,1,-1
 787 97 l 1,2,-1
 925 97 l 1,3,-1
 821 397 l 1,4,-1
 304 397 l 1,5,-1
 201 97 l 1,6,-1
 336 97 l 1,7,-1
 336 0 l 1,8,-1
 -10 0 l 1,9,-1
 -10 97 l 1,10,-1
 98 97 l 1,11,-1
 536 1367 l 1,12,-1
 675 1367 l 1,13,-1
 1114 97 l 1,14,-1
 1564 1269 l 1,15,-1
 1407 1269 l 1,16,-1
 1445 1367 l 1,17,-1
 1934 1367 l 2,18,19
 2253 1367 2253 1367 2361 1187 c 0,20,21
 2411.49 1102.38 2411.49 1102.38 2411.49 987.151 c 0,22,23
 2411.49 855.922 2411.49 855.922 2346 685 c 0,24,25
 2223 363 2223 363 1975 181 c 0,26,27
 1728 0 1728 0 1409 0 c 2,0,-1
338 495 m 1,28,-1
 789 495 l 1,29,-1
 564 1145 l 1,30,-1
 338 495 l 1,28,-1
1281 97 m 1,31,-1
 1435 97 l 2,32,33
 1674 97 1674 97 1861 249 c 128,-1,34
 2048 401 2048 401 2156 685 c 0,35,36
 2222.85 857.597 2222.85 857.597 2222.85 980.702 c 0,37,38
 2222.85 1060.16 2222.85 1060.16 2195 1119 c 0,39,40
 2126 1269 2126 1269 1884 1269 c 2,41,-1
 1731 1269 l 1,42,-1
 1281 97 l 1,31,-1
EndSplineSet
Validated: 1
Comment: "Samian4:uniF479,AND/AVD" 
EndChar

StartChar: uniF532
Encoding: 62770 62770 166
Width: 1640
VWidth: 1875
Flags: W
LayerCount: 2
Fore
SplineSet
92 0 m 1,0,-1
 92 97 l 1,1,-1
 276 97 l 1,2,-1
 276 1269 l 1,3,-1
 92 1269 l 1,4,-1
 92 1367 l 1,5,-1
 276 1367 l 1,6,-1
 276 1450 l 1,7,-1
 401 1450 l 1,8,-1
 401 1368 l 1,9,-1
 813 1368 l 1,10,-1
 813 1263 l 1,11,-1
 521 1263 l 1,12,-1
 1262 288 l 1,13,-1
 1262 1269 l 1,14,-1
 1078 1269 l 1,15,-1
 1078 1367 l 1,16,-1
 1558 1367 l 1,17,-1
 1558 1269 l 1,18,-1
 1374 1269 l 1,19,-1
 1373 0 l 1,20,-1
 1263 0 l 1,21,-1
 989 335 l 1,22,-1
 388 335 l 1,23,-1
 388 97 l 1,24,-1
 572 97 l 1,25,-1
 572 0 l 1,26,-1
 92 0 l 1,0,-1
388 483 m 1,27,-1
 876 483 l 1,28,-1
 388 1125 l 1,29,-1
 388 483 l 1,27,-1
EndSplineSet
Validated: 1
Comment: "Samian4:uniF576,ANI/IAN" 
EndChar

StartChar: uniF533
Encoding: 62771 62771 167
Width: 1932
VWidth: 1875
Flags: W
LayerCount: 2
Fore
SplineSet
328 462 m 1,0,-1
 201 97 l 1,1,-1
 336 97 l 1,2,-1
 336 0 l 1,3,-1
 -10 0 l 1,4,-1
 -10 97 l 1,5,-1
 98 97 l 1,6,-1
 536 1367 l 1,7,-1
 675 1367 l 1,8,-1
 1068 220 l 1,9,-1
 1429 1265 l 1,10,-1
 1142 1265 l 1,11,-1
 1142 1186 l 1,12,-1
 1061 1186 l 1,13,-1
 1061 1367 l 1,14,-1
 1863 1367 l 1,15,-1
 1863 1186 l 1,16,-1
 1781 1186 l 1,17,-1
 1781 1265 l 1,18,-1
 1533 1265 l 1,19,-1
 1095 0 l 1,20,-1
 957 0 l 1,21,-1
 798 462 l 1,22,-1
 328 462 l 1,0,-1
363 563 m 1,23,-1
 764 563 l 1,24,-1
 564 1145 l 1,25,-1
 363 563 l 1,23,-1
EndSplineSet
Validated: 1
Comment: "Samian4:uniF47A,ANT/AVT" 
EndChar

StartChar: uniF534
Encoding: 62772 62772 168
Width: 1815
VWidth: 1875
Flags: W
TeX: 117 0
LayerCount: 2
Fore
SplineSet
1429 1265 m 1,0,-1
 1142 1265 l 1,1,-1
 1142 1186 l 1,2,-1
 1061 1186 l 1,3,-1
 1061 1367 l 1,4,-1
 1863 1367 l 1,5,-1
 1863 1186 l 1,6,-1
 1781 1186 l 1,7,-1
 1781 1265 l 1,8,-1
 1534 1265 l 1,9,-1
 1095 0 l 1,10,-1
 957 0 l 1,11,-1
 564 1145 l 1,12,-1
 201 97 l 1,13,-1
 336 97 l 1,14,-1
 336 0 l 1,15,-1
 -10 0 l 1,16,-1
 -10 97 l 1,17,-1
 98 97 l 1,18,-1
 536 1367 l 1,19,-1
 675 1367 l 1,20,-1
 1068 220 l 1,21,-1
 1429 1265 l 1,0,-1
EndSplineSet
Validated: 1
Comment: "Samian4:uniF523,ANT/AVT/NT" 
EndChar

StartChar: uniF535
Encoding: 62773 62773 169
Width: 1834
VWidth: 1875
Flags: W
LayerCount: 2
Fore
SplineSet
1429 1265 m 5,0,-1
 1142 1265 l 5,1,-1
 1142 1186 l 5,2,-1
 1061 1186 l 5,3,-1
 1061 1367 l 5,4,-1
 1863 1367 l 5,5,-1
 1863 1186 l 5,6,-1
 1781 1186 l 5,7,-1
 1781 1265 l 5,8,-1
 1534 1265 l 5,9,-1
 1095 0 l 1,10,-1
 957 0 l 1,11,-1
 564 1145 l 1,12,-1
 201 97 l 1,13,-1
 336 97 l 1,14,-1
 336 0 l 1,15,-1
 -10 0 l 1,16,-1
 -10 97 l 1,17,-1
 98 97 l 1,18,-1
 536 1367 l 1,19,-1
 675 1367 l 1,20,-1
 1068 220 l 1,21,-1
 1429 1265 l 5,0,-1
466 346 m 0,22,23
 466 396 466 396 498 433 c 0,24,25
 530 468 530 468 577 468 c 0,26,27
 621 468 621 468 654 432 c 0,28,29
 686 395 686 395 686 346 c 0,30,31
 686 295 686 295 654 260 c 0,32,33
 621 224 621 224 577 224 c 0,34,35
 530 224 530 224 498 259 c 128,-1,36
 466 294 466 294 466 346 c 0,22,23
EndSplineSet
Validated: 1
Comment: "Samian4:uniF524,ANT/AVT/NT" 
EndChar

StartChar: uniF536
Encoding: 62774 62774 170
Width: 1815
VWidth: 1875
Flags: W
LayerCount: 2
Fore
SplineSet
1429 1265 m 1,0,-1
 1142 1265 l 1,1,-1
 1142 1186 l 1,2,-1
 1061 1186 l 1,3,-1
 1061 1367 l 1,4,-1
 1863 1367 l 1,5,-1
 1863 1186 l 1,6,-1
 1781 1186 l 1,7,-1
 1781 1265 l 1,8,-1
 1534 1265 l 1,9,-1
 1095 0 l 1,10,-1
 957 0 l 1,11,-1
 564 1145 l 1,12,-1
 201 97 l 1,13,-1
 336 97 l 1,14,-1
 336 0 l 1,15,-1
 -10 0 l 1,16,-1
 -10 97 l 1,17,-1
 98 97 l 1,18,-1
 536 1367 l 1,19,-1
 675 1367 l 1,20,-1
 1068 220 l 1,21,-1
 1429 1265 l 1,0,-1
522 334 m 1,22,-1
 664 334 l 1,23,-1
 664 0 l 1,24,-1
 522 0 l 1,25,-1
 522 334 l 1,22,-1
EndSplineSet
Validated: 1
Comment: "Samian4:uniF4E4,ANT/AVT" 
EndChar

StartChar: uniF537
Encoding: 62775 62775 171
Width: 2309
VWidth: 1875
Flags: W
LayerCount: 2
Fore
SplineSet
970 1355 m 0,0,1
 1009 1355 1009 1355 1038 1323 c 128,-1,2
 1067 1291 1067 1291 1067 1248 c 0,3,4
 1067 1201 1067 1201 1040 1171 c 128,-1,5
 1013 1141 1013 1141 970 1141 c 0,6,7
 928 1141 928 1141 901 1171 c 128,-1,8
 874 1201 874 1201 874 1248 c 0,9,10
 874 1291 874 1291 903 1323 c 128,-1,11
 932 1355 932 1355 970 1355 c 0,0,1
557 342 m 0,12,13
 596 342 596 342 624 311 c 0,14,15
 653 279 653 279 653 235 c 0,16,17
 653 190 653 190 626 158 c 0,18,19
 599 128 599 128 557 128 c 128,-1,20
 515 128 515 128 488 158 c 0,21,22
 461 190 461 190 461 235 c 128,-1,23
 461 280 461 280 489 311 c 128,-1,24
 517 342 517 342 557 342 c 0,12,13
1746 247 m 1,25,-1
 2004 1269 l 1,26,-1
 1862 1269 l 1,27,-1
 1862 1367 l 1,28,-1
 2216 1367 l 1,29,-1
 2216 1269 l 1,30,-1
 2096 1269 l 1,31,-1
 1773 0 l 1,32,-1
 1638 0 l 1,33,-1
 1308 1108 l 1,34,-1
 997 0 l 1,35,-1
 849 0 l 1,36,-1
 532 1120 l 1,37,-1
 245 98 l 1,38,-1
 403 98 l 1,39,-1
 403 0 l 1,40,-1
 9 0 l 1,41,-1
 9 98 l 1,42,-1
 144 98 l 1,43,-1
 502 1367 l 1,44,-1
 652 1367 l 1,45,-1
 965 255 l 1,46,-1
 1278 1367 l 1,47,-1
 1428 1367 l 1,48,-1
 1746 247 l 1,25,-1
EndSplineSet
Validated: 1
Comment: "Samian4:uniF4F4,ANT/MV" 
EndChar

StartChar: uniF538
Encoding: 62776 62776 172
Width: 1750
VWidth: 1875
Flags: W
LayerCount: 2
Fore
SplineSet
280 1367 m 1,0,-1
 442 1367 l 1,1,-1
 1257 288 l 1,2,-1
 1257 1269 l 1,3,-1
 895 1269 l 1,4,-1
 895 1056 l 1,5,-1
 794 1056 l 1,6,-1
 794 1379 l 1,7,-1
 1837 1379 l 1,8,-1
 1837 1057 l 1,9,-1
 1736 1057 l 1,10,-1
 1736 1270 l 1,11,-1
 1374 1270 l 1,12,-1
 1374 -27 l 1,13,-1
 1263 -27 l 1,14,-1
 923 434 l 1,15,-1
 388 434 l 1,16,-1
 388 97 l 1,17,-1
 572 97 l 1,18,-1
 572 0 l 1,19,-1
 92 0 l 1,20,-1
 92 97 l 1,21,-1
 276 97 l 1,22,-1
 280 1367 l 1,0,-1
385 560 m 1,23,-1
 835 560 l 1,24,-1
 385 1137 l 1,25,-1
 385 560 l 1,23,-1
EndSplineSet
Validated: 1
Comment: "Samian4:uniF522,ANT" 
EndChar

StartChar: uniF540
Encoding: 62784 62784 173
Width: 1715
VWidth: 1875
Flags: W
LayerCount: 2
Fore
SplineSet
-11 0 m 1,0,-1
 -11 97 l 1,1,-1
 109 97 l 1,2,-1
 596 1367 l 1,3,-1
 593 1371 l 1,4,-1
 1240 1371 l 2,5,6
 1444 1371 1444 1371 1565 1267 c 0,7,8
 1685 1162 1685 1162 1685 984 c 0,9,10
 1685 810 1685 810 1565 706 c 0,11,12
 1446 602 1446 602 1240 602 c 2,13,-1
 1044 602 l 1,14,-1
 1238 97 l 1,15,-1
 1372 97 l 1,16,-1
 1372 0 l 1,17,-1
 875 0 l 1,18,-1
 875 97 l 1,19,-1
 1027 97 l 1,20,-1
 913 397 l 1,21,-1
 338 397 l 1,22,-1
 223 97 l 1,23,-1
 374 97 l 1,24,-1
 374 0 l 1,25,-1
 -11 0 l 1,0,-1
375 495 m 1,26,-1
 877 495 l 1,27,-1
 626 1145 l 1,28,-1
 375 495 l 1,26,-1
786 1273 m 1,29,-1
 1006 699 l 1,30,-1
 1195 699 l 2,31,32
 1331 699 1331 699 1403 773 c 0,33,34
 1474 847 1474 847 1474 984 c 0,35,36
 1474 1126 1474 1126 1403 1199 c 0,37,38
 1331 1273 1331 1273 1195 1273 c 2,39,-1
 786 1273 l 1,29,-1
EndSplineSet
Validated: 1
Comment: "Samian4:uniF42F,AP" 
EndChar

StartChar: uniF541
Encoding: 62785 62785 174
Width: 2095
VWidth: 1875
Flags: W
TeX: 117 0
LayerCount: 2
Fore
SplineSet
925 97 m 1,0,-1
 821 397 l 1,1,-1
 304 397 l 1,2,-1
 201 97 l 1,3,-1
 336 97 l 1,4,-1
 336 0 l 1,5,-1
 -10 0 l 1,6,-1
 -10 97 l 1,7,-1
 98 97 l 1,8,-1
 503 1269 l 1,9,-1
 536 1367 l 1,10,-1
 675 1367 l 1,11,-1
 954 1367 l 2,12,13
 1133 1367 1133 1367 1264 1272 c 0,14,15
 1393 1177 1393 1177 1455 1002 c 0,16,17
 1480.32 927.099 1480.32 927.099 1480.32 869.448 c 0,18,19
 1480.32 817.802 1480.32 817.802 1460 780 c 0,20,21
 1416.5 699 1416.5 699 1283 678 c 1,22,23
 1345 662 1345 662 1403 619 c 0,24,25
 1458 579 1458 579 1517 503 c 2,26,-1
 1836 97 l 1,27,-1
 1986 97 l 1,28,-1
 2019 0 l 1,29,-1
 1729 0 l 1,30,-1
 1387 435 l 2,31,32
 1287 562 1287 562 1230 598 c 0,33,34
 1171 635 1171 635 1090 635 c 2,35,-1
 928 635 l 1,36,-1
 1114 97 l 1,37,-1
 1235 97 l 1,38,-1
 1235 0 l 1,39,-1
 787 0 l 1,40,-1
 787 97 l 1,41,-1
 925 97 l 1,0,-1
709 1269 m 1,42,-1
 894 733 l 1,43,-1
 1116 733 l 2,44,45
 1240 733 1240 733 1277 799 c 0,46,47
 1293.11 827.729 1293.11 827.729 1293.11 869.912 c 0,48,49
 1293.11 924.635 1293.11 924.635 1266 1002 c 0,50,51
 1217 1141 1217 1141 1137 1204 c 0,52,53
 1055 1269 1055 1269 931 1269 c 2,54,-1
 709 1269 l 1,42,-1
564 1145 m 1,55,-1
 338 495 l 1,56,-1
 788 495 l 1,57,-1
 564 1145 l 1,55,-1
EndSplineSet
Validated: 1
Comment: "Samian4:uniF4EB,AR" 
EndChar

StartChar: uniF542
Encoding: 62786 62786 175
Width: 1354
VWidth: 1875
Flags: W
TeX: 117 0
LayerCount: 2
Fore
SplineSet
-11 0 m 1,0,-1
 -11 97 l 1,1,-1
 109 97 l 1,2,-1
 555 1260 l 1,3,-1
 227 1260 l 1,4,-1
 227 1046 l 1,5,-1
 125 1046 l 1,6,-1
 125 1367 l 1,7,-1
 1218 1367 l 1,8,-1
 1218 1046 l 1,9,-1
 1117 1046 l 1,10,-1
 1117 1260 l 1,11,-1
 791 1260 l 1,12,-1
 1238 97 l 1,13,-1
 1372 97 l 1,14,-1
 1372 0 l 1,15,-1
 875 0 l 1,16,-1
 875 97 l 1,17,-1
 1027 97 l 1,18,-1
 913 397 l 1,19,-1
 338 397 l 1,20,-1
 223 97 l 1,21,-1
 374 97 l 1,22,-1
 374 0 l 1,23,-1
 -11 0 l 1,0,-1
375 495 m 1,24,-1
 877 495 l 1,25,-1
 626 1145 l 1,26,-1
 375 495 l 1,24,-1
EndSplineSet
Validated: 1
Comment: "Samian4:uniF433,AT/TA" 
EndChar

StartChar: uniF543
Encoding: 62787 62787 176
Width: 1354
VWidth: 1875
Flags: W
TeX: 117 0
LayerCount: 2
Fore
SplineSet
574 1314 m 1,0,-1
 166 1314 l 1,1,-1
 166 1105 l 1,2,-1
 53 1105 l 1,3,-1
 53 1427 l 1,4,-1
 1267 1427 l 1,5,-1
 1267 1105 l 1,6,-1
 1154 1105 l 1,7,-1
 1154 1318 l 1,8,-1
 753 1318 l 1,9,-1
 1238 97 l 1,10,-1
 1372 97 l 1,11,-1
 1372 0 l 1,12,-1
 875 0 l 1,13,-1
 875 97 l 1,14,-1
 1027 97 l 1,15,-1
 626 1145 l 1,16,-1
 223 97 l 1,17,-1
 374 97 l 1,18,-1
 374 0 l 1,19,-1
 -11 0 l 1,20,-1
 -11 96 l 1,21,-1
 82 96 l 1,22,-1
 574 1314 l 1,0,-1
EndSplineSet
Validated: 1
Comment: "Samian4:uniF47B,AT/TA" 
EndChar

StartChar: uniF544
Encoding: 62788 62788 177
Width: 1354
VWidth: 1875
Flags: W
LayerCount: 2
Fore
SplineSet
521 164 m 0,0,1
 521 217 521 217 553 250 c 0,2,3
 584 286 584 286 632 286 c 0,4,5
 676 286 676 286 709 250 c 0,6,7
 741 213 741 213 741 164 c 0,8,9
 741 114 741 114 709 77 c 0,10,11
 676 42 676 42 632 42 c 0,12,13
 585 42 585 42 553 77 c 0,14,15
 521 110 521 110 521 164 c 0,0,1
574 1314 m 1,16,-1
 166 1314 l 1,17,-1
 166 1105 l 1,18,-1
 53 1105 l 1,19,-1
 53 1427 l 1,20,-1
 1267 1427 l 1,21,-1
 1267 1105 l 1,22,-1
 1154 1105 l 1,23,-1
 1154 1318 l 1,24,-1
 753 1318 l 1,25,-1
 1238 97 l 1,26,-1
 1372 97 l 1,27,-1
 1372 0 l 1,28,-1
 875 0 l 1,29,-1
 875 97 l 1,30,-1
 1027 97 l 1,31,-1
 626 1145 l 1,32,-1
 223 97 l 1,33,-1
 374 97 l 1,34,-1
 374 0 l 1,35,-1
 -11 0 l 1,36,-1
 -11 96 l 1,37,-1
 82 96 l 1,38,-1
 574 1314 l 1,16,-1
EndSplineSet
Validated: 1
Comment: "Samian4:uniF535,AT/TA" 
EndChar

StartChar: uniF545
Encoding: 62789 62789 178
Width: 1855
VWidth: 1875
Flags: W
LayerCount: 2
Fore
SplineSet
338 495 m 1,0,-1
 789 495 l 1,1,-1
 564 1145 l 1,2,-1
 338 495 l 1,0,-1
1330 1367 m 1,3,-1
 1436 1065 l 1,4,-1
 1335 1065 l 1,5,-1
 1268 1256 l 1,6,-1
 713 1256 l 1,7,-1
 872 798 l 1,8,-1
 1266 798 l 1,9,-1
 1206 970 l 1,10,-1
 1307 970 l 1,11,-1
 1465 515 l 1,12,-1
 1364 515 l 1,13,-1
 1305 687 l 1,14,-1
 910 687 l 1,15,-1
 1108 114 l 1,16,-1
 1679 114 l 1,17,-1
 1612 306 l 1,18,-1
 1714 306 l 1,19,-1
 1820 0 l 1,20,-1
 787 0 l 1,21,-1
 787 86 l 1,22,-1
 783 99 l 1,23,-1
 924 99 l 1,24,-1
 821 397 l 1,25,-1
 304 397 l 1,26,-1
 201 97 l 1,27,-1
 336 97 l 1,28,-1
 336 0 l 1,29,-1
 -10 0 l 1,30,-1
 -10 97 l 1,31,-1
 98 97 l 1,32,-1
 507 1262 l 1,33,-1
 109 1262 l 1,34,-1
 109 1183 l 1,35,-1
 27 1183 l 1,36,-1
 27 1367 l 1,37,-1
 1330 1367 l 1,3,-1
EndSplineSet
Validated: 1
Comment: "Samian4:uniF47C,ATE" 
EndChar

StartChar: uniF546
Encoding: 62790 62790 179
Width: 1693
VWidth: 1875
Flags: W
LayerCount: 2
Fore
SplineSet
338 495 m 1,0,-1
 789 495 l 1,1,-1
 564 1145 l 1,2,-1
 338 495 l 1,0,-1
1144 1367 m 1,3,-1
 1144 1046 l 1,4,-1
 1044 1046 l 1,5,-1
 1044 1259 l 1,6,-1
 719 1259 l 1,7,-1
 1071 221 l 1,8,-1
 1433 1268 l 1,9,-1
 1295 1268 l 1,10,-1
 1295 1367 l 1,11,-1
 1655 1367 l 1,12,-1
 1655 1268 l 1,13,-1
 1536 1268 l 1,14,-1
 1131 97 l 1,15,-1
 1235 97 l 1,16,-1
 1235 0 l 1,17,-1
 787 0 l 1,18,-1
 787 97 l 1,19,-1
 921 97 l 1,20,-1
 818 397 l 1,21,-1
 304 397 l 1,22,-1
 201 97 l 1,23,-1
 336 97 l 1,24,-1
 336 0 l 1,25,-1
 -10 0 l 1,26,-1
 -10 97 l 1,27,-1
 98 97 l 1,28,-1
 499 1259 l 1,29,-1
 154 1259 l 1,30,-1
 154 1046 l 1,31,-1
 52 1046 l 1,32,-1
 52 1367 l 1,33,-1
 1144 1367 l 1,3,-1
EndSplineSet
Validated: 1
Comment: "Samian4:uniF611,ATV/TAV" 
EndChar

StartChar: uniF548
Encoding: 62792 62792 180
Width: 1685
VWidth: 1875
Flags: W
TeX: 117 0
LayerCount: 2
Fore
SplineSet
1068 220 m 1,0,-1
 1430 1268 l 1,1,-1
 1295 1268 l 1,2,-1
 1295 1367 l 1,3,-1
 1642 1367 l 1,4,-1
 1642 1268 l 1,5,-1
 1534 1268 l 1,6,-1
 1095 0 l 1,7,-1
 957 0 l 1,8,-1
 564 1145 l 1,9,-1
 201 97 l 1,10,-1
 336 97 l 1,11,-1
 336 0 l 1,12,-1
 -10 0 l 1,13,-1
 -10 97 l 1,14,-1
 98 97 l 1,15,-1
 536 1367 l 1,16,-1
 675 1367 l 1,17,-1
 1068 220 l 1,0,-1
EndSplineSet
Validated: 1
Comment: "Samian4:uniF455,AV/N" 
EndChar

StartChar: uniF549
Encoding: 62793 62793 181
Width: 2143
VWidth: 1875
Flags: W
TeX: 117 0
LayerCount: 2
Fore
SplineSet
558 585 m 1,0,-1
 258 97 l 1,1,-1
 417 97 l 1,2,-1
 417 0 l 1,3,-1
 10 0 l 1,4,-1
 10 97 l 1,5,-1
 152 97 l 1,6,-1
 506 671 l 1,7,-1
 146 1269 l 1,8,-1
 15 1269 l 1,9,-1
 15 1367 l 1,10,-1
 503 1367 l 1,11,-1
 503 1269 l 1,12,-1
 358 1269 l 1,13,-1
 622 829 l 1,14,-1
 893 1269 l 1,15,-1
 880 1269 l 1,16,-1
 734 1269 l 1,17,-1
 734 1367 l 1,18,-1
 880 1367 l 1,19,-1
 1137 1367 l 1,20,-1
 1368 1367 l 1,21,-1
 1368 1269 l 1,22,-1
 1223 1269 l 1,23,-1
 1487 829 l 1,24,-1
 1758 1269 l 1,25,-1
 1599 1269 l 1,26,-1
 1599 1367 l 1,27,-1
 2002 1367 l 1,28,-1
 2002 1269 l 1,29,-1
 1864 1269 l 1,30,-1
 1538 742 l 1,31,-1
 1926 97 l 1,32,-1
 2058 97 l 1,33,-1
 2058 0 l 1,34,-1
 1570 0 l 1,35,-1
 1570 97 l 1,36,-1
 1718 97 l 1,37,-1
 1424 585 l 1,38,-1
 1123 97 l 1,39,-1
 1193 97 l 1,40,-1
 1282 97 l 1,41,-1
 1282 0 l 1,42,-1
 1193 0 l 1,43,-1
 875 0 l 1,44,-1
 705 0 l 1,45,-1
 705 97 l 1,46,-1
 852 97 l 1,47,-1
 558 585 l 1,0,-1
1039 133 m 1,48,-1
 1371 671 l 1,49,-1
 1012 1269 l 1,50,-1
 999 1269 l 1,51,-1
 673 742 l 1,52,-1
 1039 133 l 1,48,-1
EndSplineSet
Validated: 1
Comment: "Samian4:uniF532,AV/VA" 
EndChar

StartChar: uniF54E
Encoding: 62798 62798 182
Width: 1072
VWidth: 1875
Flags: W
LayerCount: 2
Fore
SplineSet
1017 0 m 1,0,-1
 905 0 l 1,1,-1
 179 1048 l 1,2,-1
 60 1048 l 1,3,-1
 60 1146 l 1,4,-1
 420 1146 l 1,5,-1
 420 1048 l 1,6,-1
 303 1048 l 1,7,-1
 1017 0 l 1,0,-1
EndSplineSet
Validated: 1
Comment: "Samian4:uniF667,A/V" 
EndChar

StartChar: uniF54F
Encoding: 62799 62799 183
Width: 1168
VWidth: 1875
Flags: W
LayerCount: 2
Fore
SplineSet
60 0 m 1,0,-1
 769 1048 l 1,1,-1
 517 1046 l 1,2,-1
 517 1144 l 1,3,-1
 1140 1146 l 1,4,-1
 1140 1048 l 1,5,-1
 898 1048 l 1,6,-1
 172 0 l 1,7,-1
 60 0 l 1,0,-1
EndSplineSet
Validated: 1
Comment: "Samian4:uniF668,A/V" 
EndChar

StartChar: uniF550
Encoding: 62800 62800 184
Width: 1377
VWidth: 1875
Flags: W
LayerCount: 2
Fore
SplineSet
463 97 m 1,0,-1
 737 97 l 2,1,2
 901 97 901 97 978 168 c 0,3,4
 1054 241 1054 241 1054 396 c 128,-1,5
 1054 551 1054 551 978 621 c 0,6,7
 902 692 902 692 737 692 c 2,8,-1
 463 692 l 1,9,-1
 463 97 l 1,0,-1
463 789 m 1,10,-1
 696 789 l 2,11,12
 847 789 847 789 915 847 c 0,13,14
 984 904 984 904 984 1029 c 0,15,16
 984 1155 984 1155 915 1212 c 128,-1,17
 846 1269 846 1269 696 1269 c 2,18,-1
 463 1269 l 1,19,-1
 463 789 l 1,10,-1
103 0 m 1,20,-1
 103 97 l 1,21,-1
 277 97 l 1,22,-1
 277 1269 l 1,23,-1
 103 1269 l 1,24,-1
 103 1367 l 1,25,-1
 778 1367 l 2,26,27
 986 1367 986 1367 1090 1282 c 0,28,29
 1195 1198 1195 1198 1195 1029 c 0,30,31
 1195 907 1195 907 1122 835 c 0,32,33
 1048 762 1048 762 909 746 c 1,34,35
 1081 725 1081 725 1173 635 c 0,36,37
 1263 545 1263 545 1263 396 c 0,38,39
 1263 191 1263 191 1135 96 c 0,40,41
 1008 0 1008 0 735 0 c 2,42,-1
 103 0 l 1,20,-1
EndSplineSet
Validated: 1
Comment: "Samian4:uniF4EE,B" 
Colour: ff0000
EndChar

StartChar: uniF551
Encoding: 62801 62801 185
Width: 1404
VWidth: 1875
Flags: W
LayerCount: 2
Fore
SplineSet
417 0 m 1,0,-1
 93 0 l 1,1,-1
 93 97 l 1,2,-1
 250 97 l 1,3,-1
 250 1269 l 1,4,-1
 93 1269 l 1,5,-1
 93 1373 l 1,6,-1
 417 1373 l 1,7,-1
 417 0 l 1,0,-1
737 1367 m 1,8,-1
 918 1367 l 2,9,10
 1102 1367 1102 1367 1198 1280 c 0,11,12
 1293 1196 1293 1196 1293 1027 c 0,13,14
 1293 905 1293 905 1227 833 c 0,15,16
 1162 761 1162 761 1036 744 c 1,17,18
 1193 723 1193 723 1274 633 c 0,19,20
 1355 544 1355 544 1355 394 c 0,21,22
 1355 190 1355 190 1240 94 c 0,23,24
 1127 0 1127 0 880 0 c 2,25,-1
 737 0 l 1,26,-1
 737 95 l 1,27,-1
 881 95 l 2,28,29
 1029 95 1029 95 1098 167 c 0,30,31
 1166 238 1166 238 1166 394 c 128,-1,32
 1166 550 1166 550 1098 619 c 0,33,34
 1031 690 1031 690 881 690 c 2,35,-1
 737 690 l 1,36,-1
 737 787 l 1,37,-1
 844 787 l 2,38,39
 978 787 978 787 1042 845 c 0,40,41
 1104 902 1104 902 1104 1027 c 0,42,43
 1104 1153 1104 1153 1042 1210 c 0,44,45
 979 1267 979 1267 844 1267 c 2,46,-1
 737 1267 l 1,47,-1
 737 1367 l 1,8,-1
EndSplineSet
Validated: 1
Comment: "Samian4:uniF536,B" 
EndChar

StartChar: uniF552
Encoding: 62802 62802 186
Width: 1571
VWidth: 1875
Flags: W
LayerCount: 2
Fore
SplineSet
1117 97 m 1,0,-1
 900 692 l 1,1,-1
 627 692 l 2,2,3
 460.998 692 460.998 692 411 621 c 0,4,5
 387.636 587.822 387.636 587.822 387.636 536.521 c 0,6,7
 387.636 478.037 387.636 478.037 418 396 c 0,8,9
 476.001 239.293 476.001 239.293 577 168 c 0,10,11
 680 97 680 97 843 97 c 2,12,-1
 1117 97 l 1,0,-1
865 789 m 1,13,-1
 691 1269 l 1,14,-1
 458 1269 l 2,15,16
 308 1269 308 1269 260 1212 c 0,17,18
 234.477 1182.61 234.477 1182.61 234.477 1134.87 c 0,19,20
 234.477 1090.03 234.477 1090.03 257 1029 c 0,21,22
 302 904 302 904 392 847 c 0,23,24
 481 789 481 789 633 789 c 2,25,-1
 865 789 l 1,13,-1
1512 0 m 1,26,-1
 880 0 l 2,27,28
 608.5 0 608.5 0 445 96 c 0,29,30
 283 192 283 192 208 396 c 0,31,32
 181.73 468.486 181.73 468.486 181.73 527.01 c 0,33,34
 181.73 588.784 181.73 588.784 211 635 c 0,35,36
 271 725 271 725 435 746 c 1,37,38
 290 762 290 762 190 835 c 0,39,40
 91 907 91 907 46 1029 c 0,41,42
 18.437 1104.91 18.437 1104.91 18.437 1163.88 c 0,43,44
 18.437 1235.41 18.437 1235.41 59 1282 c 0,45,46
 132 1367 132 1367 340 1367 c 2,47,-1
 1015 1367 l 1,48,-1
 1050 1269 l 1,49,-1
 876 1269 l 1,50,-1
 1303 97 l 1,51,-1
 1477 97 l 1,52,-1
 1512 0 l 1,26,-1
EndSplineSet
Validated: 1
Comment: "Samian4:uniF537,B" 
EndChar

StartChar: uniF554
Encoding: 62804 62804 187
Width: 1377
VWidth: 1875
Flags: W
LayerCount: 2
Fore
SplineSet
904 97 m 1,0,-1
 904 692 l 1,1,-1
 630 692 l 2,2,3
 465 692 465 692 389 621 c 0,4,5
 313 551 313 551 313 396 c 0,6,7
 313 240 313 240 389 168 c 0,8,9
 466 97 466 97 630 97 c 2,10,-1
 904 97 l 1,0,-1
904 789 m 5,11,-1
 904 1269 l 5,12,-1
 671 1269 l 6,13,14
 521 1269 521 1269 452 1212 c 132,-1,15
 383 1155 383 1155 383 1029 c 4,16,17
 383 904 383 904 452 847 c 4,18,19
 520 789 520 789 671 789 c 6,20,-1
 904 789 l 5,11,-1
1263 0 m 1,21,-1
 632 0 l 2,22,23
 360 0 360 0 232 96 c 0,24,25
 103 192 103 192 103 396 c 0,26,27
 103 544 103 544 194 635 c 0,28,29
 286 725 286 725 458 746 c 1,30,31
 318 762 318 762 245 835 c 0,32,33
 172 907 172 907 172 1029 c 0,34,35
 172 1198 172 1198 277 1282 c 0,36,37
 381 1367 381 1367 589 1367 c 2,38,-1
 1263 1367 l 1,39,-1
 1263 1269 l 1,40,-1
 1089 1269 l 1,41,-1
 1089 97 l 1,42,-1
 1263 97 l 1,43,-1
 1263 0 l 1,21,-1
EndSplineSet
Validated: 1
Comment: "Samian4:uniF47D,B" 
EndChar

StartChar: uniF555
Encoding: 62805 62805 188
Width: 1377
VWidth: 1875
Flags: W
LayerCount: 2
Fore
SplineSet
904 1270 m 1,0,-1
 630 1270 l 2,1,2
 466 1270 466 1270 389 1198 c 0,3,4
 313 1128 313 1128 313 971 c 0,5,6
 313 816 313 816 389 746 c 0,7,8
 463 675 463 675 630 675 c 2,9,-1
 904 675 l 1,10,-1
 904 1270 l 1,0,-1
904 578 m 1,11,-1
 671 578 l 2,12,13
 522 578 522 578 452 520 c 0,14,15
 383 463 383 463 383 338 c 0,16,17
 383 212 383 212 452 155 c 128,-1,18
 521 98 521 98 671 98 c 2,19,-1
 904 98 l 1,20,-1
 904 578 l 1,11,-1
1263 1367 m 1,21,-1
 1263 1270 l 1,22,-1
 1089 1270 l 1,23,-1
 1089 98 l 1,24,-1
 1263 98 l 1,25,-1
 1263 0 l 1,26,-1
 589 0 l 2,27,28
 381 0 381 0 277 85 c 0,29,30
 172 169 172 169 172 338 c 0,31,32
 172 460 172 460 245 532 c 0,33,34
 318 605 318 605 458 621 c 1,35,36
 284 642 284 642 194 732 c 0,37,38
 103 821 103 821 103 971 c 0,39,40
 103 1175 103 1175 232 1271 c 0,41,42
 360 1367 360 1367 632 1367 c 2,43,-1
 1263 1367 l 1,21,-1
EndSplineSet
Validated: 1
Comment: "Samian4:uniF4A1,B" 
EndChar

StartChar: uniF556
Encoding: 62806 62806 189
Width: 1377
VWidth: 1875
Flags: W
LayerCount: 2
Fore
SplineSet
463 1270 m 1,0,-1
 463 675 l 1,1,-1
 737 675 l 2,2,3
 904 675 904 675 978 746 c 0,4,5
 1054 816 1054 816 1054 971 c 0,6,7
 1054 1127 1054 1127 978 1198 c 0,8,9
 902 1270 902 1270 737 1270 c 2,10,-1
 463 1270 l 1,0,-1
463 578 m 5,11,-1
 463 98 l 5,12,-1
 696 98 l 6,13,14
 846 98 846 98 915 155 c 132,-1,15
 984 212 984 212 984 338 c 4,16,17
 984 463 984 463 915 520 c 4,18,19
 845 578 845 578 696 578 c 6,20,-1
 463 578 l 5,11,-1
103 1367 m 1,21,-1
 735 1367 l 2,22,23
 1008 1367 1008 1367 1135 1271 c 0,24,25
 1263 1176 1263 1176 1263 971 c 0,26,27
 1263 820 1263 820 1173 732 c 0,28,29
 1083 642 1083 642 909 621 c 1,30,31
 1048 605 1048 605 1122 532 c 0,32,33
 1195 460 1195 460 1195 338 c 0,34,35
 1195 169 1195 169 1090 85 c 0,36,37
 986 0 986 0 778 0 c 2,38,-1
 103 0 l 1,39,-1
 103 98 l 1,40,-1
 277 98 l 1,41,-1
 277 1270 l 1,42,-1
 103 1270 l 1,43,-1
 103 1367 l 1,21,-1
EndSplineSet
Validated: 1
Comment: "Samian4:uniF4A2,B" 
EndChar

StartChar: uniF558
Encoding: 62808 62808 190
Width: 2090
VWidth: 1875
Flags: W
LayerCount: 2
Fore
SplineSet
417 97 m 1,0,-1
 663 97 l 2,1,2
 811 97 811 97 880 168 c 0,3,4
 948 239 948 239 948 396 c 0,5,6
 948 552 948 552 880 621 c 0,7,8
 812 692 812 692 663 692 c 2,9,-1
 417 692 l 1,10,-1
 417 97 l 1,0,-1
417 789 m 1,11,-1
 626 789 l 2,12,13
 762 789 762 789 824 847 c 0,14,15
 886 904 886 904 886 1029 c 0,16,17
 886 1155 886 1155 824 1212 c 0,18,19
 768 1264 768 1264 698 1264 c 2,20,-1
 687 1264 l 1,21,-1
 677 1264 l 1,22,-1
 677 1267 l 1,23,24
 664 1267 664 1267 652 1268 c 0,25,26
 641 1269 641 1269 626 1269 c 2,27,-1
 417 1269 l 1,28,-1
 417 789 l 1,11,-1
93 0 m 1,29,-1
 93 97 l 1,30,-1
 250 97 l 1,31,-1
 250 1269 l 1,32,-1
 93 1269 l 1,33,-1
 93 1367 l 1,34,-1
 677 1367 l 1,35,-1
 677 1371 l 1,36,37
 699 1372 699 1372 725 1372 c 128,-1,38
 751 1372 751 1372 781 1371 c 0,39,40
 896 1365 896 1365 901 1365 c 0,41,42
 954 1362 954 1362 1026 1346 c 0,43,44
 1096 1330 1096 1330 1147 1306 c 0,45,46
 1172 1293 1172 1293 1191 1279 c 0,47,48
 1213 1261 1213 1261 1223 1249 c 0,49,50
 1235 1235 1235 1235 1249 1211 c 0,51,52
 1262.5 1188.5 1262.5 1188.5 1270 1172 c 0,53,54
 1277 1155 1277 1155 1291 1124 c 0,55,56
 1304 1094 1304 1094 1313 1075 c 2,57,-1
 1634 114 l 1,58,-1
 1943 114 l 1,59,-1
 1943 305 l 1,60,-1
 2044 305 l 1,61,-1
 2044 0 l 1,62,-1
 1512 0 l 1,63,-1
 1285 689 l 1,64,-1
 990 689 l 1,65,66
 1027.5 666.5 1027.5 666.5 1056 635 c 0,67,68
 1137 545 1137 545 1137 396 c 0,69,70
 1137 192 1137 192 1022 96 c 0,71,72
 906.5 0 906.5 0 662 0 c 2,73,-1
 93 0 l 1,29,-1
979 807 m 1,74,-1
 1252 807 l 1,75,-1
 1159 1088 l 2,76,77
 1152 1115 1152 1115 1149 1130 c 0,78,79
 1143 1162 1143 1162 1142 1166 c 0,80,81
 1139 1178 1139 1178 1127 1190 c 0,82,83
 1116 1203 1116 1203 1095 1209 c 0,84,85
 1078 1216 1078 1216 1073 1220 c 0,86,87
 1066 1225 1066 1225 1064 1230 c 128,-1,88
 1062 1235 1062 1235 1050 1238 c 2,89,90
 1041 1242 1041 1242 1014 1245 c 1,91,92
 1075 1165 1075 1165 1075 1029 c 0,93,94
 1075 907 1075 907 1009 835 c 0,95,96
 993 817 993 817 979 807 c 1,74,-1
EndSplineSet
Validated: 1
Comment: "Samian4:uniF4A3,BAL" 
EndChar

StartChar: uniF559
Encoding: 62809 62809 191
Width: 1685
VWidth: 1875
Flags: W
LayerCount: 2
Fore
SplineSet
862 97 m 1,0,-1
 1109 97 l 2,1,2
 1257 97 1257 97 1326 168 c 0,3,4
 1394 241 1394 241 1394 396 c 0,5,6
 1394 552 1394 552 1326 621 c 0,7,8
 1258 692 1258 692 1109 692 c 2,9,-1
 862 692 l 1,10,-1
 862 97 l 1,0,-1
862 789 m 1,11,-1
 1072 789 l 2,12,13
 1208 789 1208 789 1270 847 c 0,14,15
 1332 904 1332 904 1332 1029 c 0,16,17
 1332 1155 1332 1155 1270 1212 c 0,18,19
 1207 1269 1207 1269 1072 1269 c 2,20,-1
 862 1269 l 1,21,-1
 862 789 l 1,11,-1
1108 0 m 2,22,-1
 12 0 l 1,23,-1
 12 304 l 1,24,-1
 114 304 l 1,25,-1
 114 113 l 1,26,-1
 696 113 l 1,27,-1
 696 1269 l 1,28,-1
 539 1269 l 1,29,-1
 539 1367 l 1,30,-1
 1146 1367 l 2,31,32
 1334 1367 1334 1367 1426 1282 c 0,33,34
 1521 1198 1521 1198 1521 1029 c 0,35,36
 1521 907 1521 907 1455 835 c 0,37,38
 1390 763 1390 763 1264 746 c 1,39,40
 1419 725 1419 725 1502 635 c 0,41,42
 1583 545 1583 545 1583 396 c 0,43,44
 1583 193 1583 193 1468 96 c 0,45,46
 1352.5 0 1352.5 0 1108 0 c 2,22,-1
EndSplineSet
Validated: 1
Comment: "Samian4:uniF4C1,BL" 
EndChar

StartChar: uniF55A
Encoding: 62810 62810 192
Width: 2283
VWidth: 1875
Flags: W
LayerCount: 2
Fore
SplineSet
417 97 m 1,0,-1
 663 97 l 2,1,2
 811 97 811 97 880 168 c 0,3,4
 948 239 948 239 948 396 c 0,5,6
 948 552 948 552 880 621 c 0,7,8
 812 692 812 692 663 692 c 2,9,-1
 417 692 l 1,10,-1
 417 97 l 1,0,-1
417 789 m 1,11,-1
 626 789 l 2,12,13
 762 789 762 789 824 847 c 0,14,15
 886 904 886 904 886 1029 c 0,16,17
 886 1155 886 1155 824 1212 c 0,18,19
 761 1269 761 1269 626 1269 c 2,20,-1
 417 1269 l 1,21,-1
 417 789 l 1,11,-1
93 0 m 1,22,-1
 93 97 l 1,23,-1
 250 97 l 1,24,-1
 250 1269 l 1,25,-1
 93 1269 l 1,26,-1
 93 1367 l 1,27,-1
 700 1367 l 2,28,29
 887 1367 887 1367 981 1282 c 0,30,31
 1023 1243 1023 1243 1046 1191 c 1,32,-1
 1787 146 l 1,33,-1
 2124 146 l 1,34,-1
 2124 205 l 1,35,-1
 2238 205 l 1,36,-1
 2238 146 l 1,37,-1
 2238 0 l 1,38,-1
 2124 0 l 1,39,-1
 1707 0 l 1,40,-1
 1056 912 l 1,41,42
 1040 869 1040 869 1009 835 c 0,43,44
 944 763 944 763 818 746 c 1,45,46
 973 725 973 725 1056 635 c 0,47,48
 1137 545 1137 545 1137 396 c 0,49,50
 1137 192 1137 192 1022 96 c 0,51,52
 906.5 0 906.5 0 662 0 c 2,53,-1
 93 0 l 1,22,-1
EndSplineSet
Validated: 1
Comment: "Samian4:uniF541,BL" 
EndChar

StartChar: uniF55B
Encoding: 62811 62811 193
Width: 1964
VWidth: 1875
Flags: W
LayerCount: 2
Fore
SplineSet
1104 97 m 1,0,-1
 876 692 l 1,1,-1
 630 692 l 2,2,3
 481 692 481 692 439 621 c 0,4,5
 422.356 592.178 422.356 592.178 422.356 549.679 c 0,6,7
 422.356 487.485 422.356 487.485 458 396 c 0,8,9
 518 240 518 240 614 168 c 0,10,11
 711 97 711 97 858 97 c 2,12,-1
 1104 97 l 1,0,-1
839 789 m 1,13,-1
 655 1269 l 1,14,-1
 445 1269 l 2,15,16
 310 1269 310 1269 269 1212 c 0,17,18
 250.818 1186.09 250.818 1186.09 250.818 1145.93 c 0,19,20
 250.818 1097.73 250.818 1097.73 277 1029 c 0,21,22
 325 904 325 904 409 847 c 0,23,24
 492 789 492 789 629 789 c 2,25,-1
 839 789 l 1,13,-1
1019 1367 m 1,26,-1
 1019 1269 l 1,27,-1
 867 1269 l 1,28,-1
 1271 220 l 1,29,-1
 1674 1269 l 1,30,-1
 1520 1269 l 1,31,-1
 1520 1367 l 1,32,-1
 1921 1367 l 1,33,-1
 1921 1269 l 1,34,-1
 1788 1269 l 1,35,-1
 1300 0 l 1,36,-1
 1143 0 l 1,37,-1
 896 0 l 2,38,39
 651.5 0 651.5 0 500 96 c 0,40,41
 347 192 347 192 269 396 c 0,42,43
 237.456 479.01 237.456 479.01 237.456 543.338 c 0,44,45
 237.456 595.252 237.456 595.252 258 635 c 0,46,47
 307 725 307 725 453 746 c 1,48,49
 322 762 322 762 228 835 c 0,50,51
 137 906 137 906 88 1029 c 0,52,53
 54.9922 1114.82 54.9922 1114.82 54.9922 1178.72 c 0,54,55
 54.9922 1240.66 54.9922 1240.66 86 1282 c 0,56,57
 147 1367 147 1367 333 1367 c 2,58,-1
 1019 1367 l 1,26,-1
EndSplineSet
Validated: 1
Comment: "Samian4:uniF4A4,BV" 
EndChar

StartChar: uniF55C
Encoding: 62812 62812 194
Width: 1522
VWidth: 1875
Flags: W
LayerCount: 2
Fore
SplineSet
1099 176 m 2,0,1
 1088 150 1088 150 1080 141 c 128,-1,2
 1072 132 1072 132 1052 118 c 0,3,4
 1037 109 1037 109 1022 96 c 0,5,6
 906.5 0 906.5 0 662 0 c 2,7,-1
 93 0 l 1,8,-1
 93 97 l 1,9,-1
 250 97 l 1,10,-1
 250 1269 l 1,11,-1
 93 1269 l 1,12,-1
 93 1367 l 1,13,-1
 700 1367 l 2,14,15
 887 1367 887 1367 981 1282 c 128,-1,16
 1075 1197 1075 1197 1075 1029 c 0,17,18
 1075 907 1075 907 1009 835 c 0,19,20
 944 763 944 763 818 746 c 1,21,22
 973 725 973 725 1056 635 c 0,23,24
 1077 613 1077 613 1094 583 c 1,25,-1
 1340 1367 l 1,26,-1
 1472 1367 l 1,27,-1
 1099 176 l 2,0,1
417 97 m 1,28,-1
 663 97 l 2,29,30
 811 97 811 97 880 168 c 0,31,32
 948 239 948 239 948 396 c 0,33,34
 948 552 948 552 880 621 c 0,35,36
 812 692 812 692 663 692 c 2,37,-1
 417 692 l 1,38,-1
 417 97 l 1,28,-1
417 789 m 5,39,-1
 626 789 l 6,40,41
 762 789 762 789 824 847 c 4,42,43
 886 904 886 904 886 1029 c 4,44,45
 886 1155 886 1155 824 1212 c 4,46,47
 761 1269 761 1269 626 1269 c 6,48,-1
 417 1269 l 5,49,-1
 417 789 l 5,39,-1
EndSplineSet
Validated: 1
Comment: "Samian4:uniF682,BV" 
EndChar

StartChar: uniF560
Encoding: 62816 62816 195
Width: 1434
VWidth: 1875
Flags: W
LayerCount: 2
Fore
SplineSet
1322 362 m 1,0,1
 1262 170 1262 170 1119 72 c 0,2,3
 976.5 -27 976.5 -27 759 -27 c 0,4,5
 628 -27 628 -27 511 19 c 0,6,7
 396 66 396 66 308 154 c 0,8,9
 205 256 205 256 155 387 c 0,10,11
 105 519 105 519 105 682 c 0,12,13
 105 1000 105 1000 289 1196 c 0,14,15
 474 1392 474 1392 775 1392 c 0,16,17
 886 1392 886 1392 1013 1362 c 0,18,19
 1135 1334 1135 1334 1284 1273 c 1,20,-1
 1284 959 l 1,21,-1
 1181 959 l 1,22,23
 1146 1132 1146 1132 1045 1212 c 0,24,25
 942 1294 942 1294 759 1294 c 0,26,27
 540 1294 540 1294 428 1138 c 0,28,29
 315 985 315 985 315 682 c 0,30,31
 315 380 315 380 428 227 c 0,32,33
 540 71 540 71 759 71 c 0,34,35
 911 71 911 71 1011 144 c 0,36,37
 1109 217 1109 217 1154 362 c 1,38,-1
 1322 362 l 1,0,1
EndSplineSet
Validated: 1
Comment: "Samian4:uniF4A5,C" 
Colour: ff0000
EndChar

StartChar: uniF561
Encoding: 62817 62817 196
Width: 1434
VWidth: 1875
Flags: W
TeX: 117 0
LayerCount: 2
Fore
SplineSet
751 774 m 0,0,1
 794 774 794 774 826 742 c 128,-1,2
 858 710 858 710 858 667 c 0,3,4
 858 620 858 620 828 590 c 0,5,6
 797 559 797 559 751 559 c 0,7,8
 704 559 704 559 674 590 c 0,9,10
 644 620 644 620 644 667 c 0,11,12
 644 711 644 711 675 742 c 0,13,14
 707 774 707 774 751 774 c 0,0,1
1322 362 m 1,15,16
 1262 170 1262 170 1119 72 c 0,17,18
 976.5 -27 976.5 -27 759 -27 c 0,19,20
 628 -27 628 -27 511 19 c 0,21,22
 396 66 396 66 308 154 c 0,23,24
 205 256 205 256 155 387 c 0,25,26
 105 519 105 519 105 682 c 0,27,28
 105 1000 105 1000 289 1196 c 0,29,30
 474 1392 474 1392 775 1392 c 0,31,32
 886 1392 886 1392 1013 1362 c 0,33,34
 1135 1334 1135 1334 1284 1273 c 1,35,-1
 1284 959 l 1,36,-1
 1181 959 l 1,37,38
 1146 1132 1146 1132 1045 1212 c 0,39,40
 942 1294 942 1294 759 1294 c 0,41,42
 540 1294 540 1294 428 1138 c 0,43,44
 315 985 315 985 315 682 c 0,45,46
 315 380 315 380 428 227 c 0,47,48
 540 71 540 71 759 71 c 0,49,50
 911 71 911 71 1011 144 c 0,51,52
 1109 217 1109 217 1154 362 c 1,53,-1
 1322 362 l 1,15,16
EndSplineSet
Validated: 1
Comment: "Samian4:uniF436,C" 
EndChar

StartChar: uniF563
Encoding: 62819 62819 197
Width: 1050
VWidth: 1875
Flags: W
TeX: 117 0
LayerCount: 2
Fore
SplineSet
964 292 m 1,0,1
 928 136 928 136 827 55 c 0,2,3
 724 -27 724 -27 564 -27 c 0,4,5
 352 -27 352 -27 222 114 c 0,6,7
 93 255 93 255 93 487 c 0,8,9
 93 720 93 720 222 860 c 0,10,11
 353 1000 353 1000 564 1000 c 0,12,13
 659 1000 659 1000 748 978 c 0,14,15
 836 958 836 958 932 913 c 1,16,-1
 932 664 l 1,17,-1
 834 664 l 1,18,19
 815 791 815 791 750 851 c 0,20,21
 686 909 686 909 566 909 c 0,22,23
 429 909 429 909 360 803 c 0,24,25
 290 699 290 699 290 487 c 0,26,27
 290 276 290 276 359 170 c 128,-1,28
 428 64 428 64 566 64 c 0,29,30
 674 64 674 64 740 121 c 0,31,32
 805 179 805 179 829 292 c 1,33,-1
 964 292 l 1,0,1
EndSplineSet
Validated: 1
Comment: "Samian4:uniF43A,C" 
EndChar

StartChar: uniF564
Encoding: 62820 62820 198
Width: 704
VWidth: 1875
Flags: W
LayerCount: 2
Fore
SplineSet
101 1277 m 1,0,-1
 101 1384 l 1,1,2
 287 1344 287 1344 417 1206 c 0,3,4
 600 1011 600 1011 600 691 c 0,5,6
 600 528 600 528 549 396 c 0,7,8
 499 265 499 265 396 163 c 0,9,10
 306 73 306 73 191 28 c 0,11,12
 141 9 141 9 101 0 c 1,13,-1
 101 106 l 1,14,15
 207.5 143.5 207.5 143.5 275 235 c 0,16,17
 389 389.5 389 389.5 389 691 c 0,18,19
 389 994 389 994 275 1149 c 0,20,21
 207 1240 207 1240 101 1277 c 1,0,-1
EndSplineSet
Validated: 1
Comment: "Samian4:uniF4E2,C" 
EndChar

StartChar: uniF565
Encoding: 62821 62821 199
Width: 1008
VWidth: 1875
Flags: W
TeX: 117 0
LayerCount: 2
Fore
SplineSet
948 1286 m 1,0,-1
 532 1286 l 2,1,2
 411 1286 411 1286 345 1211 c 0,3,4
 280 1137 280 1137 280 998 c 128,-1,5
 280 859 280 859 345 785 c 0,6,7
 408 713 408 713 532 713 c 2,8,-1
 948 713 l 1,9,-1
 948 615 l 1,10,-1
 492 615 l 2,11,12
 305 615 305 615 199 718 c 0,13,14
 92 821 92 821 92 998 c 128,-1,15
 92 1175 92 1175 199 1279 c 0,16,17
 308 1384 308 1384 492 1384 c 2,18,-1
 948 1384 l 1,19,-1
 948 1286 l 1,0,-1
EndSplineSet
Validated: 1
Comment: "Samian4:uniF5D6,C" 
EndChar

StartChar: uniF566
Encoding: 62822 62822 200
Width: 1008
VWidth: 1875
Flags: W
LayerCount: 2
Fore
SplineSet
92 1286 m 1,0,-1
 92 1384 l 1,1,-1
 548 1384 l 2,2,3
 732 1384 732 1384 841 1279 c 0,4,5
 948 1175 948 1175 948 998 c 128,-1,6
 948 821 948 821 841 718 c 0,7,8
 735 615 735 615 548 615 c 2,9,-1
 92 615 l 1,10,-1
 92 713 l 1,11,-1
 508 713 l 2,12,13
 632 713 632 713 695 785 c 0,14,15
 760 859 760 859 760 998 c 128,-1,16
 760 1137 760 1137 695 1211 c 0,17,18
 629 1286 629 1286 508 1286 c 2,19,-1
 92 1286 l 1,0,-1
EndSplineSet
Validated: 1
Comment: "Samian4:uniF5D7,C" 
EndChar

StartChar: uniF567
Encoding: 62823 62823 201
Width: 1361
VWidth: 1875
Flags: W
LayerCount: 2
Fore
SplineSet
105 362 m 1,0,-1
 274 362 l 1,1,2
 317 218 317 218 417 144 c 0,3,4
 516 71 516 71 668 71 c 0,5,6
 888 71 888 71 1000 227 c 0,7,8
 1112 381 1112 381 1112 682 c 0,9,10
 1112 984 1112 984 1000 1138 c 0,11,12
 888 1294 888 1294 668 1294 c 0,13,14
 485 1294 485 1294 382 1212 c 0,15,16
 281 1132 281 1132 246 959 c 1,17,-1
 143 959 l 1,18,-1
 143 1273 l 1,19,20
 291 1334 291 1334 415 1362 c 0,21,22
 541 1392 541 1392 653 1392 c 0,23,24
 953 1392 953 1392 1138 1196 c 0,25,26
 1322 1002 1322 1002 1322 682 c 0,27,28
 1322 519 1322 519 1272 387 c 0,29,30
 1222 256 1222 256 1120 154 c 0,31,32
 1029 64 1029 64 916 19 c 0,33,34
 799 -27 799 -27 668 -27 c 0,35,36
 450.5 -27 450.5 -27 308 72 c 0,37,38
 167 168 167 168 105 362 c 1,0,-1
EndSplineSet
Validated: 1
Comment: "Samian4:uniF439,C" 
EndChar

StartChar: uniF568
Encoding: 62824 62824 202
Width: 1434
VWidth: 1875
Flags: W
TeX: 117 0
LayerCount: 2
Fore
SplineSet
696 911 m 1,0,-1
 856 911 l 1,1,-1
 856 439 l 1,2,-1
 696 439 l 1,3,-1
 696 911 l 1,0,-1
1322 362 m 1,4,5
 1262 170 1262 170 1119 72 c 0,6,7
 976.5 -27 976.5 -27 759 -27 c 0,8,9
 628 -27 628 -27 511 19 c 0,10,11
 396 66 396 66 308 154 c 0,12,13
 205 256 205 256 155 387 c 0,14,15
 105 519 105 519 105 682 c 0,16,17
 105 1000 105 1000 289 1196 c 0,18,19
 474 1392 474 1392 775 1392 c 0,20,21
 886 1392 886 1392 1013 1362 c 0,22,23
 1135 1334 1135 1334 1284 1273 c 1,24,-1
 1284 959 l 1,25,-1
 1181 959 l 1,26,27
 1146 1132 1146 1132 1045 1212 c 0,28,29
 942 1294 942 1294 759 1294 c 0,30,31
 540 1294 540 1294 428 1138 c 0,32,33
 315 985 315 985 315 682 c 0,34,35
 315 380 315 380 428 227 c 0,36,37
 540 71 540 71 759 71 c 0,38,39
 911 71 911 71 1011 144 c 0,40,41
 1109 217 1109 217 1154 362 c 1,42,-1
 1322 362 l 1,4,5
EndSplineSet
Validated: 1
Comment: "Samian4:uniF437,CI" 
EndChar

StartChar: uniF569
Encoding: 62825 62825 203
Width: 1535
VWidth: 1875
Flags: W
LayerCount: 2
Fore
SplineSet
1423 366 m 1,0,1
 1361 174 1361 174 1220 76 c 0,2,3
 1077 -22 1077 -22 860 -22 c 0,4,5
 725 -22 725 -22 612 24 c 0,6,7
 500 68 500 68 408 158 c 0,8,9
 305 263 305 263 256 391 c 0,10,11
 217 495 217 495 208 618 c 1,12,-1
 -9 618 l 1,13,-1
 -9 760 l 1,14,-1
 209 760 l 1,15,16
 227 1027 227 1027 390 1201 c 0,17,18
 574 1396 574 1396 875 1396 c 0,19,20
 985 1396 985 1396 1113 1367 c 0,21,22
 1244 1336 1244 1336 1385 1278 c 1,23,-1
 1385 963 l 1,24,-1
 1282 963 l 1,25,26
 1248 1135 1248 1135 1146 1217 c 0,27,28
 1044 1298 1044 1298 860 1298 c 0,29,30
 641 1298 641 1298 528 1143 c 0,31,32
 431 1008 431 1008 417 760 c 1,33,-1
 677 760 l 1,34,-1
 677 618 l 1,35,-1
 417 618 l 1,36,37
 429 367.5 429 367.5 528 231 c 0,38,39
 641 76 641 76 860 76 c 0,40,41
 1014 76 1014 76 1111 149 c 0,42,43
 1210 221 1210 221 1254 366 c 1,44,-1
 1423 366 l 1,0,1
EndSplineSet
Validated: 1
Comment: "Samian4:uniF543,CI" 
EndChar

StartChar: uniF56A
Encoding: 62826 62826 204
Width: 1434
VWidth: 1875
Flags: W
TeX: 117 0
LayerCount: 2
Fore
SplineSet
778 441 m 0,0,1
 854 441 854 441 893 501 c 128,-1,2
 932 561 932 561 932 677 c 0,3,4
 932 794 932 794 893 854 c 128,-1,5
 854 914 854 914 778 914 c 0,6,7
 703 914 703 914 664 854 c 128,-1,8
 625 794 625 794 625 677 c 0,9,10
 625 561 625 561 664 501 c 128,-1,11
 703 441 703 441 778 441 c 0,0,1
778 390 m 0,12,13
 659 390 659 390 587 469 c 0,14,15
 515 547 515 547 515 677 c 0,16,17
 515 808 515 808 587 886 c 0,18,19
 660 965 660 965 778 965 c 0,20,21
 897 965 897 965 970 886 c 0,22,23
 1042 808 1042 808 1042 677 c 0,24,25
 1042 547 1042 547 970 469 c 0,26,27
 898 390 898 390 778 390 c 0,12,13
1322 362 m 1,28,29
 1262 170 1262 170 1119 72 c 0,30,31
 976.5 -27 976.5 -27 759 -27 c 0,32,33
 628 -27 628 -27 511 19 c 0,34,35
 396 66 396 66 308 154 c 0,36,37
 205 256 205 256 155 387 c 0,38,39
 105 519 105 519 105 682 c 0,40,41
 105 1000 105 1000 289 1196 c 0,42,43
 474 1392 474 1392 775 1392 c 0,44,45
 886 1392 886 1392 1013 1362 c 0,46,47
 1135 1334 1135 1334 1284 1273 c 1,48,-1
 1284 959 l 1,49,-1
 1181 959 l 1,50,51
 1146 1132 1146 1132 1045 1212 c 0,52,53
 942 1294 942 1294 759 1294 c 0,54,55
 540 1294 540 1294 428 1138 c 0,56,57
 315 985 315 985 315 682 c 0,58,59
 315 380 315 380 428 227 c 0,60,61
 540 71 540 71 759 71 c 0,62,63
 911 71 911 71 1011 144 c 0,64,65
 1109 217 1109 217 1154 362 c 1,66,-1
 1322 362 l 1,28,29
EndSplineSet
Validated: 1
Comment: "Samian4:uniF438,CO" 
EndChar

StartChar: uniF570
Encoding: 62832 62832 205
Width: 1503
VWidth: 1875
Flags: W
LayerCount: 2
Fore
SplineSet
463 97 m 1,0,-1
 634 97 l 2,1,2
 899 97 899 97 1042 249 c 128,-1,3
 1185 401 1185 401 1185 685 c 0,4,5
 1185 968 1185 968 1043 1119 c 0,6,7
 900 1269 900 1269 634 1269 c 2,8,-1
 463 1269 l 1,9,-1
 463 97 l 1,0,-1
103 0 m 1,10,-1
 103 97 l 1,11,-1
 277 97 l 1,12,-1
 277 1269 l 1,13,-1
 103 1269 l 1,14,-1
 103 1367 l 1,15,-1
 647 1367 l 2,16,17
 1000 1367 1000 1367 1198 1187 c 0,18,19
 1395 1006 1395 1006 1395 685 c 0,20,21
 1395 363 1395 363 1198 181 c 0,22,23
 1001 0 1001 0 647 0 c 2,24,-1
 103 0 l 1,10,-1
EndSplineSet
Validated: 1
Comment: "Samian4:uniF4A6,D" 
Colour: ff0000
EndChar

StartChar: uniF571
Encoding: 62833 62833 206
Width: 1503
VWidth: 1875
Flags: W
LayerCount: 2
Fore
SplineSet
776 796 m 0,0,1
 820 796 820 796 851 764 c 0,2,3
 883 732 883 732 883 689 c 0,4,5
 883 642 883 642 853 612 c 128,-1,6
 823 582 823 582 776 582 c 128,-1,7
 729 582 729 582 699 612 c 128,-1,8
 669 642 669 642 669 689 c 0,9,10
 669 733 669 733 700 764 c 0,11,12
 731 796 731 796 776 796 c 0,0,1
463 97 m 1,13,-1
 634 97 l 2,14,15
 899 97 899 97 1042 249 c 128,-1,16
 1185 401 1185 401 1185 685 c 0,17,18
 1185 968 1185 968 1043 1119 c 0,19,20
 900 1269 900 1269 634 1269 c 2,21,-1
 463 1269 l 1,22,-1
 463 97 l 1,13,-1
103 0 m 1,23,-1
 103 97 l 1,24,-1
 277 97 l 1,25,-1
 277 1269 l 1,26,-1
 103 1269 l 1,27,-1
 103 1367 l 1,28,-1
 647 1367 l 2,29,30
 1000 1367 1000 1367 1198 1187 c 0,31,32
 1395 1006 1395 1006 1395 685 c 0,33,34
 1395 363 1395 363 1198 181 c 0,35,36
 1001 0 1001 0 647 0 c 2,37,-1
 103 0 l 1,23,-1
EndSplineSet
Validated: 1
Comment: "Samian4:uniF4A9,D" 
EndChar

StartChar: uniF577
Encoding: 62839 62839 207
Width: 1503
VWidth: 1875
Flags: W
LayerCount: 2
Fore
SplineSet
1035 97 m 1,0,-1
 1035 1269 l 1,1,-1
 865 1269 l 2,2,3
 598 1269 598 1269 456 1119 c 0,4,5
 314 970 314 970 314 685 c 128,-1,6
 314 400 314 400 456 249 c 0,7,8
 599 97 599 97 865 97 c 2,9,-1
 1035 97 l 1,0,-1
1395 0 m 1,10,-1
 851 0 l 2,11,12
 498 0 498 0 301 181 c 0,13,14
 103 362.5 103 362.5 103 685 c 0,15,16
 103 1006 103 1006 301 1187 c 0,17,18
 498 1367 498 1367 851 1367 c 2,19,-1
 1395 1367 l 1,20,-1
 1395 1269 l 1,21,-1
 1221 1269 l 1,22,-1
 1221 97 l 1,23,-1
 1395 97 l 1,24,-1
 1395 0 l 1,10,-1
EndSplineSet
Validated: 1
Comment: "Samian4:uniF4A7,D" 
EndChar

StartChar: uniF578
Encoding: 62840 62840 208
Width: 1710
VWidth: 1875
Flags: W
LayerCount: 2
Fore
SplineSet
93 0 m 1,0,-1
 93 97 l 1,1,-1
 250 97 l 1,2,-1
 250 1269 l 1,3,-1
 93 1269 l 1,4,-1
 93 1367 l 1,5,-1
 572 1367 l 1,6,-1
 572 1370 l 1,7,-1
 1149 1370 l 2,8,9
 1218 1361 1218 1361 1250 1348 c 0,10,11
 1285 1335 1285 1335 1341 1300 c 0,12,13
 1415 1254 1415 1254 1447 1203 c 0,14,15
 1481 1149 1481 1149 1502 1035 c 2,16,-1
 1674 0 l 1,17,-1
 1527 0 l 1,18,-1
 1435 692 l 1,19,-1
 1256 692 l 1,20,-1
 1256 685 l 2,21,22
 1256 362 1256 362 1078 181 c 128,-1,23
 900 0 900 0 582 0 c 2,24,-1
 93 0 l 1,0,-1
417 97 m 1,25,-1
 570 97 l 2,26,27
 810 97 810 97 938 249 c 0,28,29
 1067 400 1067 400 1067 685 c 0,30,31
 1067 968 1067 968 939 1119 c 0,32,33
 835 1241 835 1241 658 1263 c 2,34,-1
 578 1263 l 1,35,-1
 577 1269 l 1,36,-1
 570 1269 l 1,37,-1
 417 1269 l 1,38,-1
 417 97 l 1,25,-1
1250 797 m 1,39,40
 1424 797 l 1,41,-1
 1396 989 l 1,42,-1
 1358 1137 l 1,43,44
 1313 1203 1313 1203 1261 1234 c 0,45,46
 1212 1263 1212 1263 1144 1263 c 2,47,-1
 984 1263 l 1,48,49
 1039 1227 1039 1227 1078 1187 c 0,50,51
 1225 1037 1225 1037 1250 797 c 1,39,40
EndSplineSet
Validated: 1
Comment: "Samian4:uniF4AA,DA" 
EndChar

StartChar: uniF57A
Encoding: 62842 62842 209
Width: 1537
VWidth: 1875
Flags: W
LayerCount: 2
Fore
SplineSet
769 -27 m 0,0,1
 633 -27 633 -27 513 19 c 0,2,3
 397 65 397 65 308 154 c 0,4,5
 205 255 205 255 155 386 c 0,6,7
 105 518 105 518 105 682 c 128,-1,8
 105 846 105 846 155 978 c 0,9,10
 205 1109 205 1109 308 1211 c 0,11,12
 396 1300 396 1300 513 1346 c 0,13,14
 631 1392 631 1392 769 1392 c 0,15,16
 1067 1392 1067 1392 1250 1197 c 128,-1,17
 1433 1002 1433 1002 1433 682 c 0,18,19
 1433 518 1433 518 1382 387 c 0,20,21
 1332 256 1332 256 1230 154 c 0,22,23
 1138 63 1138 63 1024 19 c 0,24,25
 907 -27 907 -27 769 -27 c 0,0,1
705 75 m 1,26,-1
 705 1290 l 1,27,28
 526 1270 526 1270 429 1139 c 0,29,30
 315 986 315 986 315 682 c 0,31,32
 315 380.5 315 380.5 429 226 c 0,33,34
 526 95 526 95 705 75 c 1,26,-1
833 1290 m 1,35,-1
 833 75 l 1,36,37
 1011 95 1011 95 1108 226 c 0,38,39
 1222 380.5 1222 380.5 1222 682 c 0,40,41
 1222 986 1222 986 1108 1139 c 0,42,43
 1011 1270 1011 1270 833 1290 c 1,35,-1
EndSplineSet
Validated: 1
Comment: "Samian4:uniF4CA,DD" 
EndChar

StartChar: uniF57B
Encoding: 62843 62843 210
Width: 1537
VWidth: 1875
Flags: W
LayerCount: 2
Fore
SplineSet
769 -27 m 0,0,1
 633 -27 633 -27 513 19 c 0,2,3
 397 65 397 65 308 154 c 0,4,5
 205 255 205 255 155 386 c 0,6,7
 105 518 105 518 105 682 c 128,-1,8
 105 846 105 846 155 978 c 0,9,10
 205 1109 205 1109 308 1211 c 0,11,12
 396 1300 396 1300 513 1346 c 0,13,14
 631 1392 631 1392 769 1392 c 0,15,16
 1067 1392 1067 1392 1250 1197 c 128,-1,17
 1433 1002 1433 1002 1433 682 c 0,18,19
 1433 518 1433 518 1382 387 c 0,20,21
 1332 256 1332 256 1230 154 c 0,22,23
 1138 63 1138 63 1024 19 c 0,24,25
 907 -27 907 -27 769 -27 c 0,0,1
316 618 m 1,26,27
 316 378 316 378 429 226 c 0,28,29
 526 95 526 95 705 75 c 1,30,-1
 705 618 l 1,31,-1
 316 618 l 1,26,27
1221 618 m 1,32,-1
 833 618 l 1,33,-1
 833 75 l 1,34,35
 1011 95 1011 95 1108 226 c 0,36,37
 1221 378 1221 378 1221 618 c 1,32,-1
1221 737 m 1,38,39
 1221 985 1221 985 1108 1139 c 0,40,41
 1011 1270 1011 1270 833 1290 c 1,42,-1
 833 737 l 1,43,-1
 1221 737 l 1,38,39
316 737 m 1,44,-1
 705 737 l 1,45,-1
 705 1290 l 1,46,47
 526 1270 526 1270 429 1139 c 0,48,49
 316 985 316 985 316 737 c 1,44,-1
EndSplineSet
Validated: 1
Comment: "Samian4:uniF457,DD" 
EndChar

StartChar: uniF57C
Encoding: 62844 62844 211
Width: 1503
VWidth: 1875
Flags: W
LayerCount: 2
Fore
SplineSet
103 0 m 1,0,-1
 103 97 l 1,1,-1
 277 97 l 1,2,-1
 277 1269 l 1,3,-1
 103 1269 l 1,4,-1
 103 1367 l 1,5,-1
 647 1367 l 2,6,7
 1000 1367 1000 1367 1198 1187 c 0,8,9
 1395 1006 1395 1006 1395 685 c 0,10,11
 1395 363 1395 363 1198 181 c 0,12,13
 1001 0 1001 0 647 0 c 2,14,-1
 103 0 l 1,0,-1
463 97 m 1,15,-1
 634 97 l 2,16,17
 899 97 899 97 1042 249 c 0,18,19
 1183 399 1183 399 1183 618 c 1,20,-1
 463 618 l 1,21,-1
 463 97 l 1,15,-1
463 755 m 1,22,-1
 1182 755 l 1,23,24
 1182 971 1182 971 1043 1119 c 0,25,26
 900 1269 900 1269 634 1269 c 2,27,-1
 463 1269 l 1,28,-1
 463 755 l 1,22,-1
EndSplineSet
Validated: 1
Comment: "Samian4:uniF4A8,DD" 
EndChar

StartChar: uniF57D
Encoding: 62845 62845 212
Width: 1550
VWidth: 1875
Flags: W
LayerCount: 2
Fore
SplineSet
93 1357 m 1,0,-1
 1519 1357 l 1,1,-1
 1519 1053 l 1,2,-1
 1417 1053 l 1,3,-1
 1417 1244 l 1,4,-1
 1011 1244 l 1,5,6
 1052 1215 1052 1215 1078 1187 c 0,7,8
 1252 1010 1252 1010 1252 783 c 1,9,-1
 1508 783 l 1,10,-1
 1508 671 l 1,11,-1
 1256 671 l 1,12,13
 1256 362 1256 362 1078 181 c 0,14,15
 1038 141 1038 141 996 113 c 1,16,-1
 1406 113 l 1,17,-1
 1406 304 l 1,18,-1
 1508 304 l 1,19,-1
 1508 0 l 1,20,-1
 93 0 l 1,21,-1
 93 97 l 1,22,-1
 250 97 l 1,23,-1
 250 1269 l 1,24,-1
 93 1269 l 1,25,-1
 93 1357 l 1,0,-1
417 97 m 1,26,-1
 570 97 l 2,27,28
 810 97 810 97 938 249 c 0,29,30
 1067 400 1067 400 1067 685 c 0,31,32
 1067 968 1067 968 939 1119 c 0,33,34
 811.5 1269 811.5 1269 570 1269 c 2,35,-1
 417 1269 l 1,36,-1
 417 97 l 1,26,-1
EndSplineSet
Validated: 1
Comment: "Samian4:uniF4AC,DE" 
EndChar

StartChar: uniF57E
Encoding: 62846 62846 213
Width: 1864
VWidth: 1875
Flags: W
LayerCount: 2
Fore
SplineSet
1255 734 m 1,0,1
 1361 734 1361 734 1419 799 c 0,2,3
 1478 864 1478 864 1478 1002 c 0,4,5
 1478 1139 1478 1139 1419 1204 c 0,6,7
 1359 1269 1359 1269 1235 1269 c 2,8,-1
 992 1269 l 1,9,10
 1011.5 1255.5 1011.5 1255.5 1037 1230 c 2,11,-1
 1078 1187 l 2,12,13
 1255 1007 1255 1007 1255 734 c 1,0,1
1254 624 m 1,14,15
 1254 360 1254 360 1078 181 c 0,16,17
 1040 141 1040 141 992 109 c 0,18,19
 834.5 4 834.5 4 668 4 c 0,20,21
 664 0 664 0 626 0 c 128,-1,22
 588 0 588 0 582 0 c 2,23,-1
 93 0 l 1,24,-1
 93 97 l 1,25,-1
 250 97 l 1,26,-1
 250 1269 l 1,27,-1
 93 1269 l 1,28,-1
 93 1367 l 1,29,-1
 582 1367 l 1,30,-1
 587 1367 l 2,31,32
 592 1367 592 1367 603 1367 c 0,33,-1
 626 1367 l 0,34,35
 641 1367 641 1367 650 1367.22 c 128,-1,36
 659 1367.44 659 1367.44 663.5 1367.53 c 128,-1,37
 668 1367.62 668 1367.62 668 1367 c 1,38,-1
 1292 1367 l 2,39,40
 1471 1367 1471 1367 1569 1272 c 0,41,42
 1666 1176 1666 1176 1666 1002 c 0,43,44
 1666 860 1666 860 1595 780 c 0,45,46
 1525 699 1525 699 1383 678 c 1,47,48
 1440 662 1440 662 1483 619 c 0,49,50
 1524 578 1524 578 1557 503 c 2,51,-1
 1736 97 l 1,52,-1
 1886 97 l 1,53,-1
 1886 0 l 1,54,-1
 1596 0 l 1,55,-1
 1404 435 l 2,56,57
 1347 562 1347 562 1302 598 c 0,58,59
 1282 615 1282 615 1254 624 c 1,14,15
417 97 m 1,60,-1
 570 97 l 2,61,62
 717 97 717 97 825 155 c 0,63,64
 889 191 889 191 938 249 c 0,65,66
 969 286 969 286 992 328 c 0,67,68
 1066 472.5 1066 472.5 1066 635 c 2,69,-1
 1066 660 l 1,70,71
 1066 666 1066 666 1066.25 674.5 c 128,-1,72
 1066.5 683 1066.5 683 1066.5 685 c 128,-1,73
 1066.5 687 1066.5 687 1066.5 695 c 128,-1,74
 1066.5 703 1066.5 703 1066 709 c 2,75,-1
 1066 733 l 2,76,77
 1066 904 1066 904 992 1041 c 0,78,79
 968 1084 968 1084 939 1119 c 0,80,81
 889.5 1176 889.5 1176 825 1212 c 0,82,83
 718 1269 718 1269 570 1269 c 2,84,-1
 417 1269 l 1,85,-1
 417 97 l 1,60,-1
EndSplineSet
Validated: 1
Comment: "Samian4:uniF43D,DR" 
EndChar

StartChar: uniF580
Encoding: 62848 62848 214
Width: 1368
VWidth: 1875
Flags: W
LayerCount: 2
Fore
SplineSet
103 0 m 1,0,-1
 103 97 l 1,1,-1
 277 97 l 1,2,-1
 277 1269 l 1,3,-1
 103 1269 l 1,4,-1
 103 1367 l 1,5,-1
 1204 1367 l 1,6,-1
 1204 1063 l 1,7,-1
 1091 1063 l 1,8,-1
 1091 1254 l 1,9,-1
 463 1254 l 1,10,-1
 463 797 l 1,11,-1
 911 797 l 1,12,-1
 911 968 l 1,13,-1
 1024 968 l 1,14,-1
 1024 514 l 1,15,-1
 911 514 l 1,16,-1
 911 685 l 1,17,-1
 463 685 l 1,18,-1
 463 113 l 1,19,-1
 1106 113 l 1,20,-1
 1106 304 l 1,21,-1
 1219 304 l 1,22,-1
 1219 0 l 1,23,-1
 103 0 l 1,0,-1
EndSplineSet
Validated: 1
Comment: "Samian4:uniF43F,E" 
Colour: ff0000
EndChar

StartChar: uniF582
Encoding: 62850 62850 215
Width: 1231
VWidth: 1875
Flags: W
TeX: 117 0
LayerCount: 2
Fore
SplineSet
1097 0 m 1,0,-1
 93 0 l 1,1,-1
 93 304 l 1,2,-1
 195 304 l 1,3,-1
 195 113 l 1,4,-1
 774 113 l 1,5,-1
 774 685 l 1,6,-1
 370 685 l 1,7,-1
 370 514 l 1,8,-1
 269 514 l 1,9,-1
 269 968 l 1,10,-1
 370 968 l 1,11,-1
 370 797 l 1,12,-1
 774 797 l 1,13,-1
 774 1254 l 1,14,-1
 208 1254 l 1,15,-1
 208 1063 l 1,16,-1
 106 1063 l 1,17,-1
 106 1367 l 1,18,-1
 1097 1367 l 1,19,-1
 1097 1269 l 1,20,-1
 940 1269 l 1,21,-1
 940 97 l 1,22,-1
 1097 97 l 1,23,-1
 1097 0 l 1,0,-1
EndSplineSet
Validated: 1
Comment: "Samian4:uniF4AB,E" 
EndChar

StartChar: uniF583
Encoding: 62851 62851 216
Width: 1098
VWidth: 1875
Flags: W
TeX: 117 0
LayerCount: 2
Fore
SplineSet
0 1199 m 1,0,-1
 0 1506 l 1,1,-1
 192 1506 l 1,2,-1
 192 1367 l 1,3,-1
 1061 1367 l 1,4,-1
 1061 1063 l 1,5,-1
 948 1063 l 1,6,-1
 948 1254 l 1,7,-1
 193 1254 l 1,8,-1
 193 797 l 1,9,-1
 768 797 l 1,10,-1
 768 968 l 1,11,-1
 881 968 l 1,12,-1
 881 514 l 1,13,-1
 768 514 l 1,14,-1
 768 685 l 1,15,-1
 193 685 l 1,16,-1
 193 113 l 1,17,-1
 963 113 l 1,18,-1
 963 304 l 1,19,-1
 1076 304 l 1,20,-1
 1076 0 l 1,21,-1
 192 0 l 1,22,-1
 192 -142 l 1,23,-1
 0 -142 l 1,24,-1
 0 1199 l 1,0,-1
EndSplineSet
Validated: 1
Comment: "Samian4:uniF548,E" 
EndChar

StartChar: uniF584
Encoding: 62852 62852 217
Width: 1368
VWidth: 1875
Flags: W
TeX: 117 0
LayerCount: 2
Fore
SplineSet
103 0 m 1,0,-1
 103 97 l 1,1,-1
 277 97 l 1,2,-1
 277 691 l 1,3,-1
 0 691 l 1,4,-1
 0 792 l 1,5,-1
 277 792 l 1,6,-1
 277 1269 l 1,7,-1
 103 1269 l 1,8,-1
 103 1367 l 1,9,-1
 1204 1367 l 1,10,-1
 1204 1063 l 1,11,-1
 1091 1063 l 1,12,-1
 1091 1254 l 1,13,-1
 463 1254 l 1,14,-1
 463 797 l 1,15,-1
 911 797 l 1,16,-1
 911 968 l 1,17,-1
 1024 968 l 1,18,-1
 1024 514 l 1,19,-1
 911 514 l 1,20,-1
 911 685 l 1,21,-1
 463 685 l 1,22,-1
 463 113 l 1,23,-1
 1106 113 l 1,24,-1
 1106 304 l 1,25,-1
 1219 304 l 1,26,-1
 1219 0 l 1,27,-1
 103 0 l 1,0,-1
EndSplineSet
Validated: 1
Comment: "Samian4:uniF551,E" 
EndChar

StartChar: uniF585
Encoding: 62853 62853 218
Width: 1231
VWidth: 1875
Flags: W
LayerCount: 2
Fore
SplineSet
787 1346 m 1,0,-1
 980 1346 l 1,1,-1
 980 1241 l 1,2,-1
 787 1241 l 1,3,-1
 787 1346 l 1,0,-1
778 778 m 1,4,-1
 970 778 l 1,5,-1
 970 673 l 1,6,-1
 778 673 l 1,7,-1
 778 778 l 1,4,-1
783 105 m 1,8,-1
 975 105 l 1,9,-1
 975 0 l 1,10,-1
 783 0 l 1,11,-1
 783 105 l 1,8,-1
403 0 m 1,12,-1
 93 0 l 1,13,-1
 93 97 l 1,14,-1
 250 97 l 1,15,-1
 250 1269 l 1,16,-1
 93 1269 l 1,17,-1
 93 1360 l 1,18,-1
 403 1360 l 1,19,-1
 403 0 l 1,12,-1
EndSplineSet
Validated: 1
Comment: "Samian4:uniF554,E" 
EndChar

StartChar: uniF586
Encoding: 62854 62854 219
Width: 1065
VWidth: 1875
Flags: W
TeX: 117 0
LayerCount: 2
Fore
SplineSet
861 269 m 1,0,-1
 970 269 l 1,1,-1
 970 201 l 1,2,-1
 635 201 l 1,3,-1
 635 269 l 1,4,-1
 744 269 l 1,5,-1
 744 1089 l 1,6,-1
 635 1089 l 1,7,-1
 635 1158 l 1,8,-1
 970 1158 l 1,9,-1
 970 1089 l 1,10,-1
 861 1089 l 1,11,-1
 861 269 l 1,0,-1
392 273 m 1,12,-1
 501 273 l 1,13,-1
 501 205 l 1,14,-1
 165 205 l 1,15,-1
 165 273 l 1,16,-1
 275 273 l 1,17,-1
 275 1093 l 1,18,-1
 165 1093 l 1,19,-1
 165 1162 l 1,20,-1
 501 1162 l 1,21,-1
 501 1093 l 1,22,-1
 392 1093 l 1,23,-1
 392 273 l 1,12,-1
EndSplineSet
Validated: 1
Comment: "Samian4:uniF559,E" 
EndChar

StartChar: uniF588
Encoding: 62856 62856 220
Width: 1600
VWidth: 1875
Flags: W
TeX: 117 0
LayerCount: 2
Fore
SplineSet
1022 2 m 1,0,-1
 31 2 l 1,1,-1
 31 306 l 1,2,-1
 133 306 l 1,3,-1
 133 114 l 1,4,-1
 699 114 l 1,5,-1
 699 572 l 1,6,-1
 295 572 l 1,7,-1
 295 401 l 1,8,-1
 194 401 l 1,9,-1
 194 855 l 1,10,-1
 295 855 l 1,11,-1
 295 684 l 1,12,-1
 699 684 l 1,13,-1
 699 1256 l 1,14,-1
 120 1256 l 1,15,-1
 120 1065 l 1,16,-1
 18 1065 l 1,17,-1
 18 1369 l 1,18,-1
 1074 1369 l 1,19,-1
 1074 1272 l 1,20,-1
 883 1272 l 1,21,-1
 883 771 l 1,22,-1
 1142 771 l 2,23,24
 1325 771 1325 771 1434 667 c 0,25,26
 1542 562 1542 562 1542 386 c 128,-1,27
 1542 210 1542 210 1434 106 c 0,28,29
 1327 2 1327 2 1142 2 c 2,30,-1
 1022 2 l 1,0,-1
883 673 m 1,31,-1
 883 100 l 1,32,-1
 1101 100 l 2,33,34
 1225 100 1225 100 1289 173 c 128,-1,35
 1353 246 1353 246 1353 386 c 128,-1,36
 1353 526 1353 526 1289 599 c 0,37,38
 1224 673 1224 673 1101 673 c 2,39,-1
 883 673 l 1,31,-1
EndSplineSet
Validated: 1
Comment: "Samian4:uniF43E,ED" 
EndChar

StartChar: uniF589
Encoding: 62857 62857 221
Width: 1918
VWidth: 1875
Flags: W
LayerCount: 2
Fore
SplineSet
945 97 m 1,0,-1
 1099 97 l 2,1,2
 1338 97 1338 97 1467 249 c 0,3,4
 1595 403 1595 403 1595 687 c 0,5,6
 1595 968 1595 968 1467 1119 c 0,7,8
 1340 1269 1340 1269 1099 1269 c 2,9,-1
 945 1269 l 1,10,-1
 945 97 l 1,0,-1
98 0 m 1,11,-1
 98 304 l 1,12,-1
 199 304 l 1,13,-1
 199 113 l 1,14,-1
 778 113 l 1,15,-1
 778 685 l 1,16,-1
 373 685 l 1,17,-1
 373 514 l 1,18,-1
 273 514 l 1,19,-1
 273 968 l 1,20,-1
 373 968 l 1,21,-1
 373 797 l 1,22,-1
 778 797 l 1,23,-1
 778 1254 l 1,24,-1
 213 1254 l 1,25,-1
 213 1063 l 1,26,-1
 112 1063 l 1,27,-1
 112 1367 l 1,28,-1
 1111 1367 l 2,29,30
 1427.5 1367 1427.5 1367 1606 1187 c 0,31,32
 1783 1008 1783 1008 1783 687 c 0,33,34
 1783 362 1783 362 1605 181 c 0,35,36
 1428 0 1428 0 1111 0 c 2,37,-1
 98 0 l 1,11,-1
EndSplineSet
Validated: 1
Comment: "Samian4:uniF4ED,ED" 
EndChar

StartChar: uniF58A
Encoding: 62858 62858 222
Width: 1741
VWidth: 1875
Flags: W
TeX: 117 0
LayerCount: 2
Fore
SplineSet
695 0 m 2,0,1
 379 0 379 0 199 183 c 0,2,3
 21 364 21 364 21 687 c 0,4,5
 21 1009 21 1009 199 1188 c 0,6,7
 375 1367 375 1367 695 1367 c 2,8,-1
 1682 1367 l 1,9,-1
 1682 1066 l 1,10,-1
 1580 1066 l 1,11,-1
 1580 1257 l 1,12,-1
 1002 1257 l 1,13,-1
 1002 685 l 1,14,-1
 1405 685 l 1,15,-1
 1405 856 l 1,16,-1
 1506 856 l 1,17,-1
 1506 402 l 1,18,-1
 1405 402 l 1,19,-1
 1405 573 l 1,20,-1
 1002 573 l 1,21,-1
 1002 115 l 1,22,-1
 1567 115 l 1,23,-1
 1567 307 l 1,24,-1
 1669 307 l 1,25,-1
 1669 3 l 1,26,-1
 695 0 l 2,0,1
861 99 m 1,27,-1
 861 1271 l 1,28,-1
 707 1271 l 2,29,30
 465.5 1271 465.5 1271 338 1121 c 0,31,32
 211 972 211 972 211 687 c 0,33,34
 211 401 211 401 339 251 c 0,35,36
 467 99 467 99 707 99 c 2,37,-1
 861 99 l 1,27,-1
EndSplineSet
Validated: 1
Comment: "Samian4:uniF546,ED" 
EndChar

StartChar: uniF58B
Encoding: 62859 62859 223
Width: 1762
VWidth: 1875
Flags: W
LayerCount: 2
Fore
SplineSet
103 0 m 1,0,-1
 103 97 l 1,1,-1
 277 97 l 1,2,-1
 277 1269 l 1,3,-1
 103 1269 l 1,4,-1
 103 1367 l 1,5,-1
 1204 1367 l 1,6,-1
 1204 1063 l 1,7,-1
 1091 1063 l 1,8,-1
 1091 1254 l 1,9,-1
 463 1254 l 1,10,-1
 463 797 l 1,11,-1
 911 797 l 1,12,-1
 911 968 l 1,13,-1
 1024 968 l 1,14,-1
 1024 514 l 1,15,-1
 911 514 l 1,16,-1
 911 685 l 1,17,-1
 463 685 l 1,18,-1
 463 113 l 1,19,-1
 1563 113 l 1,20,-1
 1563 304 l 1,21,-1
 1675 304 l 1,22,-1
 1675 0 l 1,23,-1
 103 0 l 1,0,-1
EndSplineSet
Validated: 1
Comment: "Samian4:uniF547,EL" 
EndChar

StartChar: uniF58C
Encoding: 62860 62860 224
Width: 2329
VWidth: 1875
Flags: W
LayerCount: 2
Fore
SplineSet
1458 242 m 1,0,-1
 1745 1367 l 1,1,-1
 1880 1367 l 1,2,-1
 2203 98 l 1,3,-1
 2325 98 l 1,4,-1
 2325 0 l 1,5,-1
 1875 0 l 1,6,-1
 1875 98 l 1,7,-1
 2029 98 l 1,8,-1
 1772 1108 l 1,9,-1
 1492 0 l 1,10,-1
 1359 0 l 1,11,-1
 1111 975 l 1,12,-1
 883 97 l 1,13,-1
 1040 97 l 1,14,-1
 1014 0 l 1,15,-1
 24 0 l 1,16,-1
 103 303 l 1,17,-1
 204 303 l 1,18,-1
 155 112 l 1,19,-1
 720 112 l 1,20,-1
 839 569 l 1,21,-1
 435 569 l 1,22,-1
 391 398 l 1,23,-1
 290 398 l 1,24,-1
 408 852 l 1,25,-1
 509 852 l 1,26,-1
 464 681 l 1,27,-1
 868 681 l 1,28,-1
 1016 1253 l 1,29,-1
 438 1253 l 1,30,-1
 388 1062 l 1,31,-1
 286 1062 l 1,32,-1
 365 1367 l 1,33,-1
 1214 1367 l 1,34,-1
 1458 242 l 1,0,-1
EndSplineSet
Validated: 1
Comment: "Samian4:uniF556,EM" 
EndChar

StartChar: uniF58D
Encoding: 62861 62861 225
Width: 2025
VWidth: 1875
Flags: W
LayerCount: 2
Fore
SplineSet
82 1367 m 1,0,-1
 930 1367 l 1,1,-1
 1718 242 l 1,2,-1
 1718 1270 l 1,3,-1
 1553 1270 l 1,4,-1
 1553 1367 l 1,5,-1
 1985 1367 l 1,6,-1
 1985 1270 l 1,7,-1
 1819 1270 l 1,8,-1
 1819 98 l 1,9,-1
 1985 98 l 1,10,-1
 1985 0 l 1,11,-1
 1669 0 l 1,12,-1
 932 1078 l 1,13,-1
 932 98 l 1,14,-1
 1086 98 l 1,15,-1
 1097 98 l 1,16,-1
 1097 0 l 1,17,-1
 1086 0 l 1,18,-1
 665 0 l 1,19,-1
 95 0 l 1,20,-1
 95 304 l 1,21,-1
 197 304 l 1,22,-1
 197 113 l 1,23,-1
 763 113 l 1,24,-1
 763 570 l 1,25,-1
 359 570 l 1,26,-1
 359 399 l 1,27,-1
 258 399 l 1,28,-1
 258 853 l 1,29,-1
 359 853 l 1,30,-1
 359 682 l 1,31,-1
 763 682 l 1,32,-1
 763 1254 l 1,33,-1
 184 1254 l 1,34,-1
 184 1063 l 1,35,-1
 82 1063 l 1,36,-1
 82 1367 l 1,0,-1
EndSplineSet
Validated: 1
Comment: "Samian4:uniF4AD,EN" 
EndChar

StartChar: uniF58E
Encoding: 62862 62862 226
Width: 1702
VWidth: 1875
Flags: W
LayerCount: 2
Fore
SplineSet
82 0 m 1,0,-1
 82 97 l 1,1,-1
 93 97 l 1,2,-1
 248 97 l 1,3,-1
 248 1269 l 1,4,-1
 93 1269 l 1,5,-1
 82 1269 l 1,6,-1
 82 1367 l 1,7,-1
 93 1367 l 1,8,-1
 983 1367 l 1,9,-1
 983 1063 l 1,10,-1
 882 1063 l 1,11,-1
 882 1254 l 1,12,-1
 576 1254 l 1,13,-1
 1442 211 l 1,14,-1
 1436 1291 l 1,15,-1
 1271 1291 l 1,16,-1
 1271 1389 l 1,17,-1
 1703 1389 l 1,18,-1
 1703 1291 l 1,19,-1
 1537 1291 l 1,20,-1
 1537 -5 l 1,21,-1
 1437 -5 l 1,22,-1
 417 1254 l 1,23,-1
 417 797 l 1,24,-1
 613 797 l 1,25,-1
 613 685 l 1,26,-1
 417 685 l 1,27,-1
 417 113 l 1,28,-1
 894 113 l 1,29,-1
 894 304 l 1,30,-1
 996 304 l 1,31,-1
 996 0 l 1,32,-1
 515 0 l 1,33,-1
 93 0 l 1,34,-1
 82 0 l 1,0,-1
EndSplineSet
Validated: 1
Comment: "Samian4:uniF549,EN" 
EndChar

StartChar: uniF590
Encoding: 62864 62864 227
Width: 1713
VWidth: 1875
Flags: W
LayerCount: 2
Fore
SplineSet
851 99 m 1,0,-1
 1003 96 l 1,1,-1
 1003 0 l 1,2,-1
 -1 0 l 1,3,-1
 -1 306 l 1,4,-1
 101 306 l 1,5,-1
 101 114 l 1,6,-1
 679 114 l 1,7,-1
 679 687 l 1,8,-1
 276 687 l 1,9,-1
 276 515 l 1,10,-1
 175 515 l 1,11,-1
 175 970 l 1,12,-1
 276 970 l 1,13,-1
 276 798 l 1,14,-1
 679 798 l 1,15,-1
 679 1256 l 1,16,-1
 114 1256 l 1,17,-1
 114 1065 l 1,18,-1
 12 1065 l 1,19,-1
 12 1367 l 1,20,-1
 1003 1367 l 1,21,-1
 1151 1367 l 2,22,23
 1329 1367 1329 1367 1428 1271 c 0,24,25
 1525 1175 1525 1175 1525 1001 c 0,26,27
 1525 859 1525 859 1454 779 c 0,28,29
 1384 698 1384 698 1242 677 c 1,30,31
 1299 661 1299 661 1342 618 c 0,32,33
 1383 577 1383 577 1416 502 c 2,34,-1
 1595 96 l 1,35,-1
 1745 96 l 1,36,-1
 1745 0 l 1,37,-1
 1455 0 l 1,38,-1
 1263 434 l 2,39,40
 1206 561 1206 561 1161 597 c 0,41,42
 1117 634 1117 634 1035 634 c 2,43,-1
 851 634 l 1,44,-1
 851 99 l 1,0,-1
1094 1268 m 2,45,-1
 847 1268 l 1,46,-1
 847 732 l 1,47,-1
 1094 732 l 2,48,49
 1218 732 1218 732 1278 798 c 0,50,51
 1337 865 1337 865 1337 1001 c 0,52,53
 1337 1138 1337 1138 1278 1203 c 0,54,55
 1218 1268 1218 1268 1094 1268 c 2,45,-1
EndSplineSet
Validated: 1
Comment: "Samian4:uniF4E8,ER" 
EndChar

StartChar: uniF591
Encoding: 62865 62865 228
Width: 2000
VWidth: 1875
Flags: W
LayerCount: 2
Fore
SplineSet
1309 1254 m 2,0,-1
 417 1254 l 1,1,-1
 417 797 l 1,2,-1
 820 797 l 1,3,-1
 820 968 l 1,4,-1
 921 968 l 1,5,-1
 921 514 l 1,6,-1
 820 514 l 1,7,-1
 820 685 l 1,8,-1
 417 685 l 1,9,-1
 417 113 l 1,10,-1
 995 113 l 1,11,-1
 995 304 l 1,12,-1
 1097 304 l 1,13,-1
 1097 0 l 1,14,-1
 93 0 l 1,15,-1
 93 97 l 1,16,-1
 250 97 l 1,17,-1
 250 1269 l 1,18,-1
 93 1269 l 1,19,-1
 93 1367 l 1,20,-1
 743 1367 l 1,21,-1
 743 1371 l 1,22,-1
 1367 1371 l 2,23,24
 1546 1371 1546 1371 1644 1275 c 0,25,26
 1741 1181 1741 1181 1741 1005 c 0,27,28
 1741 863 1741 863 1670 783 c 0,29,30
 1599 702 1599 702 1458 682 c 1,31,32
 1517 664 1517 664 1558 623 c 0,33,34
 1599 580 1599 580 1632 506 c 2,35,-1
 1811 101 l 1,36,-1
 1961 101 l 1,37,-1
 1961 4 l 1,38,-1
 1671 4 l 1,39,-1
 1479 439 l 2,40,41
 1422 566 1422 566 1377 602 c 0,42,43
 1333 639 1333 639 1251 639 c 2,44,-1
 1223 639 l 1,45,-1
 1207 737 l 1,46,-1
 1310 737 l 2,47,48
 1434 737 1434 737 1494 802 c 0,49,50
 1553 869 1553 869 1553 1005 c 128,-1,51
 1553 1141 1553 1141 1494 1208 c 0,52,53
 1466 1237 1466 1237 1425 1246 c 0,54,55
 1380 1254 1380 1254 1309 1254 c 2,0,-1
EndSplineSet
Validated: 1
Comment: "Samian4:uniF553,ER" 
EndChar

StartChar: uniF592
Encoding: 62866 62866 229
Width: 1688
VWidth: 1875
Flags: W
LayerCount: 2
Fore
SplineSet
1042 677 m 1,0,1
 1104 661 1104 661 1152 618 c 0,2,3
 1196 579 1196 579 1235 502 c 2,4,-1
 1434 96 l 1,5,-1
 1600 96 l 1,6,-1
 1600 -1 l 1,7,-1
 1278 -1 l 1,8,-1
 1065 434 l 2,9,10
 1002 562 1002 562 952 597 c 0,11,12
 902 634 902 634 811 634 c 2,13,-1
 607 634 l 1,14,-1
 607 626 l 1,15,-1
 607 96 l 1,16,-1
 800 96 l 1,17,-1
 800 -1 l 1,18,-1
 247 -1 l 1,19,-1
 247 96 l 1,20,-1
 421 96 l 1,21,-1
 421 626 l 1,22,-1
 61 626 l 1,23,-1
 61 732 l 1,24,-1
 421 732 l 1,25,-1
 421 1268 l 1,26,-1
 247 1268 l 1,27,-1
 247 1366 l 1,28,-1
 940 1366 l 2,29,30
 1139 1366 1139 1366 1248 1271 c 0,31,32
 1357 1175 1357 1175 1357 1001 c 0,33,34
 1357 861 1357 861 1278 779 c 0,35,36
 1199 698 1199 698 1042 677 c 1,0,1
607 732 m 1,37,-1
 877 732 l 2,38,39
 1015 732 1015 732 1081 798 c 128,-1,40
 1147 864 1147 864 1147 1001 c 128,-1,41
 1147 1138 1147 1138 1081 1203 c 0,42,43
 1014 1268 1014 1268 877 1268 c 2,44,-1
 607 1268 l 1,45,-1
 607 732 l 1,37,-1
EndSplineSet
Validated: 1
Comment: "Samian4:uniF5E7,ER" 
EndChar

StartChar: uniF593
Encoding: 62867 62867 230
Width: 1880
VWidth: 1875
Flags: W
LayerCount: 2
Fore
SplineSet
941 731 m 1,0,-1
 1185 731 l 2,1,2
 1310 731 1310 731 1368 796 c 0,3,4
 1427 861 1427 861 1427 999 c 0,5,6
 1427 1138 1427 1138 1368 1201 c 0,7,8
 1310 1266 1310 1266 1185 1266 c 2,9,-1
 941 1266 l 1,10,-1
 941 731 l 1,0,-1
1836 1367 m 1,11,-1
 1836 1273 l 1,12,-1
 1836 1169 l 1,13,-1
 1742 1169 l 1,14,-1
 1742 1273 l 1,15,-1
 1515 1273 l 1,16,-1
 1518 1269 l 1,17,18
 1616 1173 1616 1173 1616 999 c 0,19,20
 1616 859 1616 859 1545 777 c 0,21,22
 1474 696 1474 696 1333 676 c 1,23,24
 1391 658 1391 658 1432 617 c 0,25,26
 1474 575 1474 575 1507 500 c 2,27,-1
 1685 94 l 1,28,-1
 1836 94 l 1,29,-1
 1836 -3 l 1,30,-1
 1545 -3 l 1,31,-1
 1353 432 l 2,32,33
 1297 560 1297 560 1252 596 c 0,34,35
 1204 633 1204 633 1125 633 c 2,36,-1
 941 633 l 1,37,-1
 941 98 l 1,38,-1
 1097 98 l 1,39,-1
 1097 0 l 1,40,-1
 106 0 l 1,41,-1
 106 304 l 1,42,-1
 208 304 l 1,43,-1
 208 113 l 1,44,-1
 774 113 l 1,45,-1
 774 570 l 1,46,-1
 370 570 l 1,47,-1
 370 399 l 1,48,-1
 269 399 l 1,49,-1
 269 853 l 1,50,-1
 370 853 l 1,51,-1
 370 682 l 1,52,-1
 774 682 l 1,53,-1
 774 1254 l 1,54,-1
 195 1254 l 1,55,-1
 195 1063 l 1,56,-1
 93 1063 l 1,57,-1
 93 1367 l 1,58,-1
 1836 1367 l 1,11,-1
EndSplineSet
Validated: 1
Comment: "Samian4:uniF557,ERT/TER" 
EndChar

StartChar: uniF595
Encoding: 62869 62869 231
Width: 1652
VWidth: 1875
Flags: W
LayerCount: 2
Fore
SplineSet
1611 1392 m 1,0,-1
 1609 1069 l 1,1,-1
 1506 1069 l 1,2,-1
 1506 1263 l 1,3,-1
 940 1263 l 1,4,-1
 940 97 l 1,5,-1
 1097 97 l 1,6,-1
 1097 0 l 1,7,-1
 93 0 l 1,8,-1
 93 304 l 1,9,-1
 195 304 l 1,10,-1
 195 113 l 1,11,-1
 774 113 l 1,12,-1
 774 685 l 1,13,-1
 370 685 l 1,14,-1
 370 514 l 1,15,-1
 269 514 l 1,16,-1
 269 968 l 1,17,-1
 370 968 l 1,18,-1
 370 797 l 1,19,-1
 774 797 l 1,20,-1
 774 1254 l 1,21,-1
 208 1254 l 1,22,-1
 208 1063 l 1,23,-1
 88 1063 l 1,24,-1
 88 1390 l 1,25,-1
 1611 1392 l 1,0,-1
EndSplineSet
Validated: 1
Comment: "Samian4:uniF440,ET/TE" 
EndChar

StartChar: uniF5A0
Encoding: 62880 62880 232
Width: 1300
VWidth: 1875
Flags: W
LayerCount: 2
Fore
SplineSet
103 0 m 1,0,-1
 103 97 l 1,1,-1
 277 97 l 1,2,-1
 277 1269 l 1,3,-1
 103 1269 l 1,4,-1
 103 1367 l 1,5,-1
 1222 1367 l 1,6,-1
 1222 1063 l 1,7,-1
 1110 1063 l 1,8,-1
 1110 1254 l 1,9,-1
 463 1254 l 1,10,-1
 463 797 l 1,11,-1
 930 797 l 1,12,-1
 930 968 l 1,13,-1
 1043 968 l 1,14,-1
 1043 514 l 1,15,-1
 930 514 l 1,16,-1
 930 685 l 1,17,-1
 463 685 l 1,18,-1
 463 97 l 1,19,-1
 682 97 l 1,20,-1
 682 0 l 1,21,-1
 103 0 l 1,0,-1
EndSplineSet
Validated: 1
Comment: "Samian4:uniF4AE,F" 
Colour: ff0000
EndChar

StartChar: uniF5A1
Encoding: 62881 62881 233
Width: 860
VWidth: 1875
Flags: W
LayerCount: 2
Fore
SplineSet
417 804 m 1,0,-1
 417 97 l 1,1,-1
 573 97 l 1,2,-1
 573 0 l 1,3,-1
 93 0 l 1,4,-1
 93 97 l 1,5,-1
 250 97 l 1,6,-1
 250 1269 l 1,7,-1
 93 1269 l 1,8,-1
 93 1367 l 1,9,-1
 573 1367 l 1,10,-1
 573 1269 l 1,11,-1
 417 1269 l 1,12,-1
 417 1012 l 1,13,-1
 684 1242 l 1,14,-1
 835 1242 l 1,15,-1
 421 906 l 1,16,-1
 835 603 l 1,17,-1
 666 603 l 1,18,-1
 417 804 l 1,0,-1
EndSplineSet
Validated: 1
Comment: "Samian4:uniF443,F" 
EndChar

StartChar: uniF5A2
Encoding: 62882 62882 234
Width: 860
VWidth: 1875
Flags: W
TeX: 117 0
LayerCount: 2
Fore
SplineSet
511 804 m 1,0,-1
 263 603 l 1,1,-1
 93 603 l 1,2,-1
 507 906 l 1,3,-1
 93 1242 l 1,4,-1
 244 1242 l 1,5,-1
 512 1012 l 1,6,-1
 512 1269 l 1,7,-1
 355 1269 l 1,8,-1
 355 1367 l 1,9,-1
 835 1367 l 1,10,-1
 835 1269 l 1,11,-1
 678 1269 l 1,12,-1
 678 97 l 1,13,-1
 835 97 l 1,14,-1
 835 0 l 1,15,-1
 355 0 l 1,16,-1
 355 97 l 1,17,-1
 512 97 l 1,18,-1
 511 804 l 1,0,-1
EndSplineSet
Validated: 1
Comment: "Samian4:uniF444,F" 
EndChar

StartChar: uniF5A3
Encoding: 62883 62883 235
Width: 1260
VWidth: 1875
Flags: W
LayerCount: 2
Fore
SplineSet
417 623 m 1,0,-1
 417 97 l 1,1,-1
 573 97 l 1,2,-1
 573 0 l 1,3,-1
 93 0 l 1,4,-1
 93 97 l 1,5,-1
 250 97 l 1,6,-1
 250 1269 l 1,7,-1
 93 1269 l 1,8,-1
 93 1367 l 1,9,-1
 573 1367 l 1,10,-1
 573 1269 l 1,11,-1
 417 1269 l 1,12,-1
 417 752 l 1,13,-1
 947 1269 l 1,14,-1
 813 1269 l 1,15,-1
 813 1367 l 1,16,-1
 1222 1367 l 1,17,-1
 1222 1269 l 1,18,-1
 1084 1269 l 1,19,-1
 417 623 l 1,0,-1
EndSplineSet
Validated: 1
Comment: "Samian4:uniF4B3,F" 
EndChar

StartChar: uniF5A4
Encoding: 62884 62884 236
Width: 1260
VWidth: 1875
Flags: W
LayerCount: 2
Fore
SplineSet
899 623 m 1,0,-1
 232 1269 l 1,1,-1
 93 1269 l 1,2,-1
 93 1367 l 1,3,-1
 503 1367 l 1,4,-1
 503 1269 l 1,5,-1
 369 1269 l 1,6,-1
 899 752 l 1,7,-1
 899 1269 l 1,8,-1
 742 1269 l 1,9,-1
 742 1367 l 1,10,-1
 1222 1367 l 1,11,-1
 1222 1269 l 1,12,-1
 1066 1269 l 1,13,-1
 1066 97 l 1,14,-1
 1222 97 l 1,15,-1
 1222 0 l 1,16,-1
 742 0 l 1,17,-1
 742 97 l 1,18,-1
 899 97 l 1,19,-1
 899 623 l 1,0,-1
EndSplineSet
Validated: 1
Comment: "Samian4:uniF4B4,F" 
EndChar

StartChar: uniF5A5
Encoding: 62885 62885 237
Width: 1056
VWidth: 1875
Flags: W
LayerCount: 2
Fore
SplineSet
906 723 m 1,0,-1
 993 723 l 1,1,-1
 993 675 l 1,2,-1
 726 675 l 1,3,-1
 726 723 l 1,4,-1
 813 723 l 1,5,-1
 813 1309 l 1,6,-1
 726 1309 l 1,7,-1
 726 1358 l 1,8,-1
 993 1358 l 1,9,-1
 993 1309 l 1,10,-1
 906 1309 l 1,11,-1
 906 723 l 1,0,-1
463 97 m 1,12,-1
 637 97 l 1,13,-1
 637 0 l 1,14,-1
 103 0 l 1,15,-1
 103 97 l 1,16,-1
 277 97 l 1,17,-1
 277 1269 l 1,18,-1
 103 1269 l 1,19,-1
 103 1367 l 1,20,-1
 637 1367 l 1,21,-1
 637 1269 l 1,22,-1
 463 1269 l 1,23,-1
 463 97 l 1,12,-1
EndSplineSet
Validated: 1
Comment: "Samian4:uniF4B1,F" 
EndChar

StartChar: uniF5A6
Encoding: 62886 62886 238
Width: 1245
VWidth: 1875
Flags: W
LayerCount: 2
Fore
SplineSet
103 1367 m 1,0,-1
 1200 1367 l 1,1,-1
 1200 1025 l 1,2,-1
 1088 1025 l 1,3,-1
 1088 1254 l 1,4,-1
 463 1254 l 1,5,-1
 463 98 l 1,6,-1
 637 98 l 1,7,-1
 637 0 l 1,8,-1
 103 0 l 1,9,-1
 103 98 l 1,10,-1
 277 98 l 1,11,-1
 277 1270 l 1,12,-1
 103 1270 l 1,13,-1
 103 1367 l 1,0,-1
EndSplineSet
Validated: 1
Comment: "Samian4:uniF4E0,F" 
EndChar

StartChar: uniF5A7
Encoding: 62887 62887 239
Width: 857
VWidth: 1875
Flags: W
TeX: 117 0
LayerCount: 2
Fore
SplineSet
765 689 m 1,0,-1
 324 689 l 1,1,-1
 324 102 l 1,2,-1
 481 102 l 1,3,-1
 481 5 l 1,4,-1
 0 5 l 1,5,-1
 0 102 l 1,6,-1
 157 102 l 1,7,-1
 157 1273 l 1,8,-1
 0 1273 l 1,9,-1
 0 1371 l 1,10,-1
 481 1371 l 1,11,-1
 481 1273 l 1,12,-1
 324 1273 l 1,13,-1
 324 801 l 1,14,-1
 765 801 l 1,15,-1
 765 689 l 1,0,-1
EndSplineSet
Validated: 1
Comment: "Samian4:uniF4F2,F" 
EndChar

StartChar: uniF5A8
Encoding: 62888 62888 240
Width: 1300
VWidth: 1875
Flags: W
TeX: 117 0
LayerCount: 2
Fore
SplineSet
103 0 m 1,0,-1
 103 97 l 1,1,-1
 277 97 l 1,2,-1
 277 1269 l 1,3,-1
 103 1269 l 1,4,-1
 103 1367 l 1,5,-1
 1222 1367 l 1,6,-1
 1222 1063 l 1,7,-1
 1110 1063 l 1,8,-1
 1110 1254 l 1,9,-1
 463 1254 l 1,10,-1
 463 829 l 1,11,-1
 856 568 l 1,12,-1
 867 641 l 1,13,-1
 980 641 l 1,14,-1
 980 343 l 1,15,-1
 872 343 l 1,16,-1
 872 431 l 1,17,-1
 463 685 l 1,18,-1
 463 97 l 1,19,-1
 682 97 l 1,20,-1
 682 0 l 1,21,-1
 103 0 l 1,0,-1
EndSplineSet
Validated: 1
Comment: "Samian4:uniF562,F" 
EndChar

StartChar: uniF5A9
Encoding: 62889 62889 241
Width: 963
VWidth: 1444
Flags: W
LayerCount: 2
Fore
SplineSet
100 392 m 1,0,-1
 100 454 l 1,1,-1
 200 454 l 1,2,-1
 200 1204 l 1,3,-1
 110 1176 l 1,4,-1
 100 1267 l 1,5,-1
 705 1442 l 1,6,-1
 705 1282 l 1,7,-1
 644 1282 l 1,8,-1
 644 1347 l 1,9,-1
 302 1241 l 1,10,-1
 302 961 l 1,11,-1
 553 1049 l 1,12,-1
 548 1089 l 1,13,-1
 613 1089 l 1,14,-1
 613 920 l 1,15,-1
 553 920 l 1,16,-1
 553 977 l 1,17,-1
 302 890 l 1,18,-1
 302 454 l 1,19,-1
 433 454 l 1,20,-1
 433 392 l 1,21,-1
 100 392 l 1,0,-1
EndSplineSet
Validated: 1
Comment: "Samian4:uniF564,F" 
EndChar

StartChar: uniF5AA
Encoding: 62890 62890 242
Width: 772
VWidth: 1875
Flags: W
LayerCount: 2
Fore
SplineSet
513 1373 m 1,0,-1
 634 1258 l 1,1,-1
 293 979 l 1,2,-1
 293 0 l 1,3,-1
 139 0 l 1,4,-1
 139 1049 l 1,5,-1
 513 1373 l 1,0,-1
EndSplineSet
Validated: 1
Comment: "Samian4:uniF565,F" 
EndChar

StartChar: uniF5AB
Encoding: 62891 62891 243
Width: 1245
VWidth: 1875
Flags: W
LayerCount: 2
Fore
SplineSet
1076 1367 m 1,0,-1
 1076 1243 l 1,1,-1
 463 1111 l 1,2,-1
 463 121 l 1,3,-1
 637 121 l 1,4,-1
 637 23 l 1,5,-1
 103 23 l 1,6,-1
 103 121 l 1,7,-1
 277 121 l 1,8,-1
 277 1067 l 1,9,-1
 192 1042 l 1,10,-1
 192 1175 l 1,11,-1
 1076 1367 l 1,0,-1
EndSplineSet
Validated: 1
Comment: "Samian4:uniF673,F" 
EndChar

StartChar: uniF5AC
Encoding: 62892 62892 244
Width: 921
VWidth: 1875
Flags: W
LayerCount: 2
Fore
SplineSet
92 0 m 1,0,-1
 92 97 l 1,1,-1
 276 97 l 1,2,-1
 276 1269 l 1,3,-1
 92 1269 l 1,4,-1
 92 1367 l 1,5,-1
 442 1367 l 1,6,-1
 797 901 l 1,7,-1
 797 588 l 1,8,-1
 388 1125 l 1,9,-1
 388 97 l 1,10,-1
 572 97 l 1,11,-1
 572 0 l 1,12,-1
 92 0 l 1,0,-1
EndSplineSet
Validated: 1
Comment: "Samian4:uniF441,F" 
EndChar

StartChar: uniF5AD
Encoding: 62893 62893 245
Width: 1159
VWidth: 1875
Flags: W
TeX: 117 0
LayerCount: 2
Fore
SplineSet
1098 896 m 1,0,-1
 487 558 l 1,1,-1
 1098 213 l 1,2,-1
 1098 98 l 1,3,-1
 377 513 l 1,4,-1
 109 514 l 1,5,-1
 111 113 l 1,6,-1
 324 113 l 1,7,-1
 324 0 l 1,8,-1
 2 0 l 1,9,-1
 2 1214 l 1,10,-1
 324 1214 l 1,11,-1
 324 1101 l 1,12,-1
 111 1101 l 1,13,-1
 109 699 l 1,14,-1
 359 698 l 1,15,-1
 1098 1116 l 1,16,-1
 1098 896 l 1,0,-1
EndSplineSet
Validated: 1
Comment: "Samian4:uniF571,F" 
EndChar

StartChar: uniF5B2
Encoding: 62898 62898 246
Width: 1300
VWidth: 1875
Flags: W
LayerCount: 2
Fore
SplineSet
1000 120 m 128,-1,1
 1000 172 1000 172 1035 207 c 0,2,3
 1069.5 243 1069.5 243 1122 243 c 0,4,5
 1172 243 1172 243 1208 207 c 0,6,7
 1243 170 1243 170 1243 120 c 0,8,9
 1243 71 1243 71 1208 34 c 0,10,11
 1172 -2 1172 -2 1122 -2 c 0,12,13
 1070 -2 1070 -2 1035 33 c 128,-1,0
 1000 68 1000 68 1000 120 c 128,-1,1
103 0 m 1,14,-1
 103 97 l 1,15,-1
 277 97 l 1,16,-1
 277 1269 l 1,17,-1
 103 1269 l 1,18,-1
 103 1367 l 1,19,-1
 1222 1367 l 1,20,-1
 1222 1063 l 1,21,-1
 1110 1063 l 1,22,-1
 1110 1254 l 1,23,-1
 463 1254 l 1,24,-1
 463 797 l 1,25,-1
 930 797 l 1,26,-1
 930 968 l 1,27,-1
 1043 968 l 1,28,-1
 1043 514 l 1,29,-1
 930 514 l 1,30,-1
 930 685 l 1,31,-1
 463 685 l 1,32,-1
 463 97 l 1,33,-1
 682 97 l 1,34,-1
 682 0 l 1,35,-1
 103 0 l 1,14,-1
EndSplineSet
Validated: 1
Comment: "Samian4:uniF4AF,F" 
EndChar

StartChar: uniF5B3
Encoding: 62899 62899 247
Width: 1509
VWidth: 1875
Flags: W
LayerCount: 2
Fore
SplineSet
103 0 m 1,0,-1
 103 97 l 1,1,-1
 277 97 l 1,2,-1
 277 1269 l 1,3,-1
 103 1269 l 1,4,-1
 103 1367 l 1,5,-1
 279 1367 l 1,6,-1
 279 1501 l 1,7,-1
 462 1501 l 1,8,-1
 462 1367 l 1,9,-1
 1428 1368 l 1,10,-1
 1428 1064 l 1,11,-1
 1316 1064 l 1,12,-1
 1316 1255 l 1,13,-1
 463 1254 l 1,14,-1
 463 797 l 1,15,-1
 930 797 l 1,16,-1
 930 968 l 1,17,-1
 1043 968 l 1,18,-1
 1043 514 l 1,19,-1
 930 514 l 1,20,-1
 930 685 l 1,21,-1
 463 685 l 1,22,-1
 463 97 l 1,23,-1
 682 97 l 1,24,-1
 682 0 l 1,25,-1
 103 0 l 1,0,-1
EndSplineSet
Validated: 1
Comment: "Samian4:uniF567,F" 
EndChar

StartChar: uniF5B4
Encoding: 62900 62900 248
Width: 1387
VWidth: 1875
Flags: W
LayerCount: 2
Fore
SplineSet
-155 0 m 1,0,-1
 -120 97 l 1,1,-1
 37 97 l 1,2,-1
 463 1269 l 1,3,-1
 306 1269 l 1,4,-1
 342 1367 l 1,5,-1
 1349 1367 l 1,6,-1
 1239 1063 l 1,7,-1
 1137 1063 l 1,8,-1
 1207 1254 l 1,9,-1
 624 1254 l 1,10,-1
 458 797 l 1,11,-1
 878 797 l 1,12,-1
 940 968 l 1,13,-1
 1042 968 l 1,14,-1
 877 514 l 1,15,-1
 775 514 l 1,16,-1
 837 685 l 1,17,-1
 417 685 l 1,18,-1
 203 97 l 1,19,-1
 400 97 l 1,20,-1
 365 0 l 1,21,-1
 -155 0 l 1,0,-1
EndSplineSet
Validated: 1
Comment: "Samian4:uniF442,F" 
EndChar

StartChar: uniF5B6
Encoding: 62902 62902 249
Width: 1300
VWidth: 1875
Flags: W
LayerCount: 2
Fore
SplineSet
1222 0 m 1,0,-1
 644 0 l 1,1,-1
 644 97 l 1,2,-1
 862 97 l 1,3,-1
 862 685 l 1,4,-1
 396 685 l 1,5,-1
 396 514 l 1,6,-1
 283 514 l 1,7,-1
 283 968 l 1,8,-1
 396 968 l 1,9,-1
 396 797 l 1,10,-1
 862 797 l 1,11,-1
 862 1254 l 1,12,-1
 216 1254 l 1,13,-1
 216 1063 l 1,14,-1
 103 1063 l 1,15,-1
 103 1367 l 1,16,-1
 1222 1367 l 1,17,-1
 1222 1269 l 1,18,-1
 1048 1269 l 1,19,-1
 1048 97 l 1,20,-1
 1222 97 l 1,21,-1
 1222 0 l 1,0,-1
EndSplineSet
Validated: 1
Comment: "Samian4:uniF4E1,F" 
EndChar

StartChar: uniF5B7
Encoding: 62903 62903 250
Width: 1245
VWidth: 1875
Flags: W
LayerCount: 2
Fore
SplineSet
103 0 m 1,0,-1
 103 97 l 1,1,-1
 277 97 l 1,2,-1
 277 1269 l 1,3,-1
 103 1269 l 1,4,-1
 103 1367 l 1,5,-1
 637 1367 l 1,6,-1
 637 1269 l 1,7,-1
 463 1269 l 1,8,-1
 463 751 l 1,9,-1
 897 751 l 1,10,-1
 897 650 l 1,11,-1
 463 650 l 1,12,-1
 463 113 l 1,13,-1
 1088 113 l 1,14,-1
 1088 341 l 1,15,-1
 1200 341 l 1,16,-1
 1200 0 l 1,17,-1
 103 0 l 1,0,-1
EndSplineSet
Validated: 1
Comment: "Samian4:uniF4B0,F" 
EndChar

StartChar: uniF5BA
Encoding: 62906 62906 251
Width: 1749
VWidth: 1875
Flags: W
LayerCount: 2
Fore
SplineSet
946 114 m 1,0,-1
 1587 114 l 1,1,-1
 1587 305 l 1,2,-1
 1699 305 l 1,3,-1
 1699 1 l 1,4,-1
 1120 1 l 1,5,-1
 1120 -2 l 1,6,-1
 541 -2 l 1,7,-1
 541 95 l 1,8,-1
 584 95 l 1,9,-1
 584 98 l 1,10,-1
 758 98 l 1,11,-1
 758 683 l 1,12,-1
 293 683 l 1,13,-1
 293 512 l 1,14,-1
 180 512 l 1,15,-1
 180 966 l 1,16,-1
 293 966 l 1,17,-1
 293 795 l 1,18,-1
 758 795 l 1,19,-1
 758 1252 l 1,20,-1
 114 1252 l 1,21,-1
 114 1061 l 1,22,-1
 1 1061 l 1,23,-1
 1 1365 l 1,24,-1
 584 1365 l 1,25,-1
 584 1368 l 1,26,-1
 1685 1368 l 1,27,-1
 1685 1064 l 1,28,-1
 1572 1064 l 1,29,-1
 1572 1255 l 1,30,-1
 946 1255 l 1,31,-1
 946 797 l 1,32,-1
 1392 797 l 1,33,-1
 1392 969 l 1,34,-1
 1504 969 l 1,35,-1
 1504 515 l 1,36,-1
 1392 515 l 1,37,-1
 1392 686 l 1,38,-1
 946 686 l 1,39,-1
 946 114 l 1,0,-1
EndSplineSet
Validated: 1
Comment: "Samian4:uniF4B6,FE" 
EndChar

StartChar: uniF5BB
Encoding: 62907 62907 252
Width: 1659
VWidth: 1875
Flags: W
LayerCount: 2
Fore
SplineSet
1107 0 m 1,0,-1
 55 0 l 1,1,-1
 55 304 l 1,2,-1
 157 304 l 1,3,-1
 157 113 l 1,4,-1
 740 113 l 1,5,-1
 740 1269 l 1,6,-1
 583 1269 l 1,7,-1
 583 1367 l 1,8,-1
 1590 1367 l 1,9,-1
 1590 1063 l 1,10,-1
 1489 1063 l 1,11,-1
 1489 1254 l 1,12,-1
 906 1254 l 1,13,-1
 906 797 l 1,14,-1
 1327 797 l 1,15,-1
 1327 968 l 1,16,-1
 1428 968 l 1,17,-1
 1428 514 l 1,18,-1
 1327 514 l 1,19,-1
 1327 685 l 1,20,-1
 906 685 l 1,21,-1
 906 96 l 1,22,-1
 1107 96 l 1,23,-1
 1107 0 l 1,0,-1
EndSplineSet
Validated: 1
Comment: "Samian4:uniF4B7,FL" 
EndChar

StartChar: uniF5BC
Encoding: 62908 62908 253
Width: 1812
VWidth: 1875
Flags: W
LayerCount: 2
Fore
SplineSet
949 99 m 1,0,-1
 1115 99 l 1,1,-1
 1115 0 l 1,2,-1
 580 0 l 1,3,-1
 580 97 l 1,4,-1
 777 97 l 1,5,-1
 777 685 l 1,6,-1
 357 685 l 1,7,-1
 357 514 l 1,8,-1
 255 514 l 1,9,-1
 255 968 l 1,10,-1
 357 968 l 1,11,-1
 357 797 l 1,12,-1
 777 797 l 1,13,-1
 777 1254 l 1,14,-1
 195 1254 l 1,15,-1
 195 1063 l 1,16,-1
 93 1063 l 1,17,-1
 93 1367 l 1,18,-1
 626 1367 l 1,19,-1
 1100 1367 l 1,20,-1
 1250 1367 l 2,21,22
 1429 1367 1429 1367 1527 1272 c 0,23,24
 1624 1176 1624 1176 1624 1002 c 0,25,26
 1624 862 1624 862 1553 780 c 0,27,28
 1483 699 1483 699 1341 678 c 1,29,30
 1398 662 1398 662 1441 619 c 0,31,32
 1482 578 1482 578 1515 503 c 2,33,-1
 1694 97 l 1,34,-1
 1844 97 l 1,35,-1
 1844 0 l 1,36,-1
 1554 0 l 1,37,-1
 1361 435 l 2,38,39
 1306 561 1306 561 1260 598 c 128,-1,40
 1214 635 1214 635 1133 635 c 2,41,-1
 949 635 l 1,42,-1
 949 99 l 1,0,-1
949 733 m 1,43,-1
 1193 733 l 2,44,45
 1317.5 733 1317.5 733 1376 799 c 0,46,47
 1436 864 1436 864 1436 1002 c 128,-1,48
 1436 1140 1436 1140 1376 1204 c 0,49,50
 1317 1269 1317 1269 1193 1269 c 2,51,-1
 1100 1269 l 1,52,-1
 949 1269 l 1,53,-1
 949 733 l 1,43,-1
EndSplineSet
Validated: 1
Comment: "Samian4:uniF4B8,FR" 
EndChar

StartChar: uniF5C0
Encoding: 62912 62912 254
Width: 1497
VWidth: 1875
Flags: W
LayerCount: 2
Fore
SplineSet
1200 959 m 1,0,1
 1169 1128 1169 1128 1067 1212 c 0,2,3
 964 1294 964 1294 784 1294 c 0,4,5
 548 1294 548 1294 431 1142 c 0,6,7
 315 988 315 988 315 682 c 0,8,9
 315 380.5 315 380.5 435 226 c 0,10,11
 555 71 555 71 787 71 c 0,12,13
 889 71 889 71 985 97 c 0,14,15
 1078 122 1078 122 1165 174 c 1,16,-1
 1165 526 l 1,17,-1
 907 526 l 1,18,-1
 907 624 l 1,19,-1
 1350 624 l 1,20,-1
 1350 114 l 1,21,22
 1228 43 1228 43 1088 9 c 0,23,24
 947 -27 947 -27 787 -27 c 0,25,26
 478 -27 478 -27 292 167 c 0,27,28
 105 360 105 360 105 682 c 128,-1,29
 105 1004 105 1004 292 1199 c 0,30,31
 480 1392 480 1392 795 1392 c 0,32,33
 912 1392 912 1392 1037 1365 c 0,34,35
 1157 1339 1157 1339 1303 1283 c 1,36,-1
 1303 959 l 1,37,-1
 1200 959 l 1,0,1
EndSplineSet
Validated: 1
Comment: "Samian4:uniF4B9,G" 
Colour: ff0000
EndChar

StartChar: uniF5C1
Encoding: 62913 62913 255
Width: 1497
VWidth: 1875
Flags: W
TeX: 117 0
LayerCount: 2
Fore
SplineSet
641 778 m 0,0,1
 685 778 685 778 716 747 c 0,2,3
 748 715 748 715 748 671 c 0,4,5
 748 624 748 624 718 594 c 128,-1,6
 688 564 688 564 641 564 c 128,-1,7
 594 564 594 564 564 594 c 128,-1,8
 534 624 534 624 534 671 c 0,9,10
 534 716 534 716 565 747 c 128,-1,11
 596 778 596 778 641 778 c 0,0,1
1200 959 m 1,12,13
 1169 1128 1169 1128 1067 1212 c 0,14,15
 964 1294 964 1294 784 1294 c 0,16,17
 548 1294 548 1294 431 1142 c 0,18,19
 315 988 315 988 315 682 c 0,20,21
 315 380.5 315 380.5 435 226 c 0,22,23
 555 71 555 71 787 71 c 0,24,25
 889 71 889 71 985 97 c 0,26,27
 1078 122 1078 122 1165 174 c 1,28,-1
 1165 526 l 1,29,-1
 907 526 l 1,30,-1
 907 624 l 1,31,-1
 1350 624 l 1,32,-1
 1350 114 l 1,33,34
 1228 43 1228 43 1088 9 c 0,35,36
 947 -27 947 -27 787 -27 c 0,37,38
 478 -27 478 -27 292 167 c 0,39,40
 105 360 105 360 105 682 c 128,-1,41
 105 1004 105 1004 292 1199 c 0,42,43
 480 1392 480 1392 795 1392 c 0,44,45
 918 1392 918 1392 1037 1367 c 0,46,47
 1149 1343 1149 1343 1303 1283 c 1,48,-1
 1303 959 l 1,49,-1
 1200 959 l 1,12,13
EndSplineSet
Validated: 1
Comment: "Samian4:uniF446,G" 
EndChar

StartChar: uniF5C2
Encoding: 62914 62914 256
Width: 1423
VWidth: 1875
Flags: W
TeX: 117 0
LayerCount: 2
Fore
SplineSet
1313 362 m 1,0,-1
 1322 362 l 1,1,-1
 1319 353 l 1,2,3
 1335 332 1335 332 1354 301 c 0,4,5
 1453 128.5 1453 128.5 1453 16 c 0,6,7
 1453 -20 1453 -20 1442 -53 c 1,8,-1
 1343 -53 l 1,9,10
 1344.88 -38.6471 1344.88 -38.6471 1344.88 -23.0208 c 0,11,12
 1344.88 27.7647 1344.88 27.7647 1325 92 c 0,13,14
 1299 178 1299 178 1267 234 c 1,15,16
 1208 133 1208 133 1119 72 c 0,17,18
 976.5 -27 976.5 -27 759 -27 c 0,19,20
 628 -27 628 -27 511 19 c 0,21,22
 396 66 396 66 308 154 c 0,23,24
 205 256 205 256 155 387 c 0,25,26
 105 519 105 519 105 682 c 0,27,28
 105 1000 105 1000 289 1196 c 0,29,30
 474 1392 474 1392 775 1392 c 0,31,32
 886 1392 886 1392 1013 1362 c 0,33,34
 1135 1334 1135 1334 1284 1273 c 1,35,-1
 1284 959 l 1,36,-1
 1181 959 l 1,37,38
 1146 1132 1146 1132 1045 1212 c 0,39,40
 942 1294 942 1294 759 1294 c 0,41,42
 540 1294 540 1294 428 1138 c 0,43,44
 315 985 315 985 315 682 c 0,45,46
 315 380 315 380 428 227 c 0,47,48
 540 71 540 71 759 71 c 0,49,50
 911 71 911 71 1011 144 c 0,51,52
 1110 217 1110 217 1153 361 c 1,53,54
 1042 463 1042 463 920 499 c 1,55,-1
 920 696 l 1,56,57
 1183 534 1183 534 1313 362 c 1,0,-1
EndSplineSet
Validated: 1
Comment: "Samian4:uniF445,G" 
EndChar

StartChar: uniF5C3
Encoding: 62915 62915 257
Width: 1434
VWidth: 1875
Flags: W
TeX: 117 0
LayerCount: 2
Fore
SplineSet
1149 362 m 1,0,-1
 1291 449 l 1,1,-1
 1501 137 l 1,2,-1
 1369 46 l 1,3,-1
 1253 212 l 1,4,5
 1199 127 1199 127 1119 72 c 0,6,7
 976.5 -27 976.5 -27 759 -27 c 0,8,9
 628 -27 628 -27 511 19 c 0,10,11
 396 66 396 66 308 154 c 0,12,13
 205 256 205 256 155 387 c 0,14,15
 105 519 105 519 105 682 c 0,16,17
 105 1000 105 1000 289 1196 c 0,18,19
 474 1392 474 1392 775 1392 c 0,20,21
 886 1392 886 1392 1013 1362 c 0,22,23
 1135 1334 1135 1334 1284 1273 c 1,24,-1
 1284 959 l 1,25,-1
 1181 959 l 1,26,27
 1146 1132 1146 1132 1045 1212 c 0,28,29
 942 1294 942 1294 759 1294 c 0,30,31
 540 1294 540 1294 428 1138 c 0,32,33
 315 985 315 985 315 682 c 0,34,35
 315 380 315 380 428 227 c 0,36,37
 540 71 540 71 759 71 c 0,38,39
 911 71 911 71 1011 144 c 0,40,41
 1108.5 216 1108.5 216 1152 357 c 1,42,-1
 1149 362 l 1,0,-1
EndSplineSet
Validated: 1
Comment: "Samian4:uniF575,G" 
EndChar

StartChar: uniF5C4
Encoding: 62916 62916 258
Width: 1300
VWidth: 1875
Flags: W
TeX: 117 0
LayerCount: 2
Fore
SplineSet
463 97 m 1,0,-1
 682 97 l 1,1,-1
 682 0 l 1,2,-1
 103 0 l 1,3,-1
 103 97 l 1,4,-1
 277 97 l 1,5,-1
 276 903 l 1,6,-1
 103 903 l 1,7,-1
 103 1001 l 1,8,-1
 1221 1001 l 1,9,-1
 1221 696 l 1,10,-1
 1109 696 l 1,11,-1
 1109 888 l 1,12,-1
 462 888 l 1,13,-1
 463 97 l 1,0,-1
EndSplineSet
Validated: 1
Comment: "Samian4:uniF599,G" 
EndChar

StartChar: uniF5C5
Encoding: 62917 62917 259
Width: 1434
VWidth: 1875
Flags: W
LayerCount: 2
Fore
SplineSet
458 362 m 1,0,-1
 455 357 l 1,1,2
 498.5 216 498.5 216 596 144 c 0,3,4
 696 71 696 71 848 71 c 0,5,6
 1066 71 1066 71 1179 227 c 0,7,8
 1292 382 1292 382 1292 682 c 0,9,10
 1292 983 1292 983 1179 1138 c 0,11,12
 1066 1294 1066 1294 848 1294 c 0,13,14
 665 1294 665 1294 562 1212 c 128,-1,15
 459 1130 459 1130 426 959 c 1,16,-1
 322 959 l 1,17,-1
 322 1273 l 1,18,19
 470 1334 470 1334 594 1362 c 0,20,21
 720 1392 720 1392 832 1392 c 0,22,23
 1133 1392 1133 1392 1317 1196 c 0,24,25
 1501 1002 1501 1002 1501 682 c 0,26,27
 1501 516 1501 516 1452 387 c 0,28,29
 1401 256 1401 256 1299 154 c 0,30,31
 1211 66 1211 66 1096 19 c 0,32,33
 979 -27 979 -27 848 -27 c 0,34,35
 629 -27 629 -27 488 72 c 0,36,37
 409 126 409 126 353 212 c 1,38,-1
 238 46 l 1,39,-1
 105 137 l 1,40,-1
 316 449 l 1,41,-1
 458 362 l 1,0,-1
EndSplineSet
Validated: 1
Comment: "Samian4:uniF573,G" 
EndChar

StartChar: uniF5C6
Encoding: 62918 62918 260
Width: 1497
VWidth: 1875
Flags: W
TeX: 117 0
LayerCount: 2
Fore
SplineSet
255 959 m 1,0,1
 153 959 l 1,2,-1
 153 1283 l 1,3,4
 299 1339 299 1339 419 1365 c 0,5,6
 544 1392 544 1392 661 1392 c 0,7,8
 976 1392 976 1392 1164 1199 c 0,9,10
 1350 1006 1350 1006 1350 682 c 0,11,12
 1350 360 1350 360 1164 167 c 0,13,14
 978 -27 978 -27 668 -27 c 0,15,16
 508 -27 508 -27 368 9 c 0,17,18
 226 44 226 44 105 114 c 1,19,-1
 105 624 l 1,20,-1
 548 624 l 1,21,-1
 548 526 l 1,22,-1
 291 526 l 1,23,-1
 291 174 l 1,24,25
 378 122 378 122 471 97 c 0,26,27
 566 71 566 71 668 71 c 0,28,29
 901 71 901 71 1021 226 c 0,30,31
 1141 380.5 1141 380.5 1141 682 c 0,32,33
 1141 989 1141 989 1024 1142 c 0,34,35
 908 1294 908 1294 672 1294 c 0,36,37
 492 1294 492 1294 389 1212 c 0,38,39
 288 1130 288 1130 255 959 c 1,0,1
EndSplineSet
Validated: 1
Comment: "Samian4:uniF4BA,G" 
EndChar

StartChar: uniF5C7
Encoding: 62919 62919 261
Width: 1497
VWidth: 1875
Flags: W
TeX: 117 0
LayerCount: 2
Fore
SplineSet
255 406 m 1,0,1
 288 235 288 235 389 153 c 0,2,3
 492 71 492 71 672 71 c 0,4,5
 908 71 908 71 1024 223 c 0,6,7
 1141 376 1141 376 1141 683 c 0,8,9
 1141 984.5 1141 984.5 1021 1139 c 0,10,11
 901 1294 901 1294 668 1294 c 0,12,13
 566 1294 566 1294 471 1268 c 0,14,15
 378 1243 378 1243 291 1191 c 1,16,-1
 291 839 l 1,17,-1
 548 839 l 1,18,-1
 548 741 l 1,19,-1
 105 741 l 1,20,-1
 105 1251 l 1,21,22
 226 1321 226 1321 368 1356 c 0,23,24
 508 1392 508 1392 668 1392 c 0,25,26
 978 1392 978 1392 1164 1198 c 128,-1,27
 1350 1004 1350 1004 1350 683 c 0,28,29
 1350 360 1350 360 1164 166 c 0,30,31
 976 -27 976 -27 661 -27 c 0,32,33
 544 -27 544 -27 419 0 c 0,34,35
 299 26 299 26 153 82 c 1,36,-1
 153 406 l 1,37,-1
 255 406 l 1,0,1
EndSplineSet
Validated: 1
Comment: "Samian4:uniF572,G" 
EndChar

StartChar: uniF5D0
Encoding: 62928 62928 262
Width: 1635
VWidth: 1875
Flags: W
LayerCount: 2
Fore
SplineSet
103 0 m 1,0,-1
 103 97 l 1,1,-1
 277 97 l 1,2,-1
 277 1269 l 1,3,-1
 103 1269 l 1,4,-1
 103 1367 l 1,5,-1
 637 1367 l 1,6,-1
 637 1269 l 1,7,-1
 463 1269 l 1,8,-1
 463 797 l 1,9,-1
 1172 797 l 1,10,-1
 1172 1269 l 1,11,-1
 998 1269 l 1,12,-1
 998 1367 l 1,13,-1
 1532 1367 l 1,14,-1
 1532 1269 l 1,15,-1
 1358 1269 l 1,16,-1
 1358 97 l 1,17,-1
 1532 97 l 1,18,-1
 1532 0 l 1,19,-1
 998 0 l 1,20,-1
 998 97 l 1,21,-1
 1172 97 l 1,22,-1
 1172 685 l 1,23,-1
 463 685 l 1,24,-1
 463 97 l 1,25,-1
 637 97 l 1,26,-1
 637 0 l 1,27,-1
 103 0 l 1,0,-1
EndSplineSet
Validated: 1
Comment: "Samian4:uniF447,H" 
Colour: ff0000
EndChar

StartChar: uniF5D3
Encoding: 62931 62931 263
Width: 2185
VWidth: 1875
Flags: W
LayerCount: 2
Fore
SplineSet
998 1361 m 1,0,-1
 2092 1361 l 1,1,-1
 2092 1057 l 1,2,-1
 1979 1057 l 1,3,-1
 1979 1249 l 1,4,-1
 1358 1249 l 1,5,-1
 1358 791 l 1,6,-1
 1799 791 l 1,7,-1
 1799 962 l 1,8,-1
 1912 962 l 1,9,-1
 1912 508 l 1,10,-1
 1799 508 l 1,11,-1
 1799 679 l 1,12,-1
 1358 679 l 1,13,-1
 1358 107 l 1,14,-1
 1994 107 l 1,15,-1
 1994 298 l 1,16,-1
 2107 298 l 1,17,-1
 2107 -5 l 1,18,-1
 992 -5 l 1,19,-1
 992 92 l 1,20,-1
 998 92 l 1,21,-1
 998 97 l 1,22,-1
 1165 97 l 1,23,-1
 1165 685 l 1,24,-1
 463 685 l 1,25,-1
 463 97 l 1,26,-1
 637 97 l 1,27,-1
 637 0 l 1,28,-1
 103 0 l 1,29,-1
 103 97 l 1,30,-1
 277 97 l 1,31,-1
 277 1269 l 1,32,-1
 103 1269 l 1,33,-1
 103 1367 l 1,34,-1
 637 1367 l 1,35,-1
 637 1269 l 1,36,-1
 463 1269 l 1,37,-1
 463 797 l 1,38,-1
 1165 797 l 1,39,-1
 1165 1263 l 1,40,-1
 998 1263 l 1,41,-1
 998 1361 l 1,0,-1
EndSplineSet
Validated: 1
Comment: "Samian4:uniF5F8,HE" 
EndChar

StartChar: uniF5D5
Encoding: 62933 62933 264
Width: 2152
VWidth: 1875
Flags: W
LayerCount: 2
Fore
SplineSet
1379 1367 m 1,0,-1
 1523 1367 l 2,1,2
 1701 1367 1701 1367 1799 1272 c 0,3,4
 1897 1176 1897 1176 1897 1002 c 0,5,6
 1897 862 1897 862 1826 780 c 0,7,8
 1756 699 1756 699 1614 678 c 1,9,10
 1672 662 1672 662 1713 619 c 0,11,12
 1755 579 1755 579 1788 503 c 2,13,-1
 1967 97 l 1,14,-1
 2117 97 l 1,15,-1
 2117 0 l 1,16,-1
 1826 0 l 1,17,-1
 1634 435 l 2,18,19
 1579 561 1579 561 1533 598 c 128,-1,20
 1487 635 1487 635 1406 635 c 2,21,-1
 1222 635 l 1,22,-1
 1222 97 l 1,23,-1
 1396 97 l 1,24,-1
 1396 0 l 1,25,-1
 898 0 l 1,26,-1
 898 97 l 1,27,-1
 1055 97 l 1,28,-1
 1055 685 l 1,29,-1
 417 685 l 1,30,-1
 417 97 l 1,31,-1
 573 97 l 1,32,-1
 573 0 l 1,33,-1
 93 0 l 1,34,-1
 93 97 l 1,35,-1
 250 97 l 1,36,-1
 250 1269 l 1,37,-1
 93 1269 l 1,38,-1
 93 1367 l 1,39,-1
 573 1367 l 1,40,-1
 573 1269 l 1,41,-1
 417 1269 l 1,42,-1
 417 797 l 1,43,-1
 1055 797 l 1,44,-1
 1055 1269 l 1,45,-1
 898 1269 l 1,46,-1
 898 1367 l 1,47,-1
 1379 1367 l 1,0,-1
1222 1269 m 1,48,-1
 1222 733 l 1,49,-1
 1466 733 l 2,50,51
 1590.5 733 1590.5 733 1649 799 c 0,52,53
 1708 862 1708 862 1708 1002 c 0,54,55
 1708 1141 1708 1141 1649 1204 c 0,56,57
 1590 1269 1590 1269 1466 1269 c 2,58,-1
 1379 1269 l 1,59,-1
 1222 1269 l 1,48,-1
EndSplineSet
Validated: 1
Comment: "Samian4:uniF448,HR" 
EndChar

StartChar: uniF5D8
Encoding: 62936 62936 265
Width: 740
VWidth: 1875
Flags: W
TeX: 117 0
LayerCount: 2
Fore
SplineSet
463 97 m 1,0,-1
 637 97 l 1,1,-1
 637 0 l 1,2,-1
 103 0 l 1,3,-1
 103 97 l 1,4,-1
 277 97 l 1,5,-1
 277 1269 l 1,6,-1
 103 1269 l 1,7,-1
 103 1367 l 1,8,-1
 637 1367 l 1,9,-1
 637 1269 l 1,10,-1
 463 1269 l 1,11,-1
 463 97 l 1,0,-1
EndSplineSet
Validated: 1
Comment: "Samian4:uniF449,I" 
Colour: ff0000
EndChar

StartChar: uniF5D9
Encoding: 62937 62937 266
Width: 495
VWidth: 1517
Flags: W
LayerCount: 2
Fore
SplineSet
302 69 m 1,0,-1
 424 69 l 1,1,-1
 424 1 l 1,2,-1
 50 1 l 1,3,-1
 50 69 l 1,4,-1
 172 69 l 1,5,-1
 172 889 l 1,6,-1
 50 889 l 1,7,-1
 50 958 l 1,8,-1
 424 958 l 1,9,-1
 424 889 l 1,10,-1
 302 889 l 1,11,-1
 302 69 l 1,0,-1
EndSplineSet
Validated: 1
Comment: "Samian4:uniF4BB,I" 
EndChar

StartChar: uniF5DA
Encoding: 62938 62938 267
Width: 428
VWidth: 1875
Flags: W
LayerCount: 2
Fore
SplineSet
252 419 m 1,0,-1
 346 419 l 1,1,-1
 346 380 l 1,2,-1
 58 380 l 1,3,-1
 58 419 l 1,4,-1
 152 419 l 1,5,-1
 152 888 l 1,6,-1
 58 888 l 1,7,-1
 58 927 l 1,8,-1
 346 927 l 1,9,-1
 346 888 l 1,10,-1
 252 888 l 1,11,-1
 252 419 l 1,0,-1
EndSplineSet
Validated: 1
Comment: "Samian4:uniF4F1,I" 
EndChar

StartChar: uniF5DC
Encoding: 62940 62940 268
Width: 1245
VWidth: 1875
Flags: W
LayerCount: 2
Fore
SplineSet
103 0 m 1,0,-1
 103 97 l 1,1,-1
 277 97 l 1,2,-1
 277 952 l 5,3,-1
 101 952 l 5,4,-1
 101 1053 l 5,5,-1
 277 1053 l 5,6,-1
 277 1269 l 1,7,-1
 103 1269 l 1,8,-1
 103 1367 l 1,9,-1
 637 1367 l 1,10,-1
 637 1269 l 1,11,-1
 463 1269 l 1,12,-1
 463 1053 l 5,13,-1
 636 1053 l 5,14,-1
 636 952 l 5,15,-1
 463 952 l 5,16,-1
 463 113 l 1,17,-1
 1088 113 l 1,18,-1
 1088 341 l 1,19,-1
 1200 341 l 1,20,-1
 1200 0 l 1,21,-1
 103 0 l 1,0,-1
EndSplineSet
Validated: 1
Comment: "Samian4:uniF4BF,IL/LI" 
EndChar

StartChar: uniF5DD
Encoding: 62941 62941 269
Width: 1245
VWidth: 1875
Flags: W
LayerCount: 2
Fore
SplineSet
103 0 m 5,0,-1
 103 97 l 5,1,-1
 277 97 l 5,2,-1
 277 590.6 l 5,3,-1
 103.5 589.5 l 5,4,-1
 103.5 714.301 l 5,5,-1
 277 715.4 l 5,6,-1
 277 1269 l 5,7,-1
 103 1269 l 5,8,-1
 103 1367 l 5,9,-1
 637 1367 l 5,10,-1
 637 1269 l 5,11,-1
 463 1269 l 5,12,-1
 463 715.4 l 5,13,-1
 630 714.301 l 5,14,-1
 630 589.5 l 5,15,-1
 463 590.6 l 5,16,-1
 463 113 l 5,17,-1
 1088 113 l 5,18,-1
 1088 341 l 5,19,-1
 1200 341 l 5,20,-1
 1200 0 l 5,21,-1
 103 0 l 5,0,-1
EndSplineSet
Validated: 1
Comment: "Samian4:uniF582,IL/LI" 
EndChar

StartChar: uniF5E0
Encoding: 62944 62944 270
Width: 1919
VWidth: 1875
Flags: W
LayerCount: 2
Fore
SplineSet
895 1367 m 1,0,-1
 1049 1367 l 1,1,-1
 1049 879 l 1,2,-1
 895 879 l 1,3,-1
 895 1367 l 1,0,-1
103 0 m 1,4,-1
 103 97 l 1,5,-1
 277 97 l 1,6,-1
 277 1269 l 1,7,-1
 93 1269 l 1,8,-1
 93 1367 l 1,9,-1
 492 1367 l 1,10,-1
 971 394 l 1,11,-1
 1451 1367 l 1,12,-1
 1825 1367 l 1,13,-1
 1825 1269 l 1,14,-1
 1642 1269 l 1,15,-1
 1642 97 l 1,16,-1
 1817 97 l 1,17,-1
 1817 0 l 1,18,-1
 1283 0 l 1,19,-1
 1283 97 l 1,20,-1
 1457 97 l 1,21,-1
 1457 1154 l 1,22,-1
 988 200 l 1,23,-1
 859 200 l 1,24,-1
 390 1154 l 1,25,-1
 390 97 l 1,26,-1
 564 97 l 1,27,-1
 564 0 l 1,28,-1
 103 0 l 1,4,-1
EndSplineSet
Validated: 1
Comment: "Samian4:uniF451,IM" 
EndChar

StartChar: uniF5E1
Encoding: 62945 62945 271
Width: 1927
VWidth: 1875
Flags: W
TeX: 117 0
LayerCount: 2
Fore
SplineSet
340 1371 m 1,0,-1
 807 1371 l 1,1,-1
 807 1237 l 1,2,-1
 688 1237 l 1,3,-1
 965 255 l 1,4,-1
 1278 1367 l 1,5,-1
 1428 1367 l 1,6,-1
 1786 98 l 1,7,-1
 1922 98 l 1,8,-1
 1922 0 l 1,9,-1
 1423 0 l 1,10,-1
 1423 98 l 1,11,-1
 1593 98 l 1,12,-1
 1308 1108 l 1,13,-1
 997 0 l 1,14,-1
 849 0 l 1,15,-1
 532 1120 l 1,16,-1
 245 98 l 1,17,-1
 403 98 l 1,18,-1
 403 0 l 1,19,-1
 9 0 l 1,20,-1
 9 98 l 1,21,-1
 144 98 l 1,22,-1
 465 1237 l 1,23,-1
 340 1237 l 1,24,-1
 340 1371 l 1,0,-1
EndSplineSet
Validated: 1
Comment: "Samian4:uniF581,IM" 
EndChar

StartChar: uniF5E2
Encoding: 62946 62946 272
Width: 1640
VWidth: 1875
Flags: W
TeX: 117 0
LayerCount: 2
Fore
SplineSet
276 1269 m 1,0,-1
 0 1269 l 1,1,-1
 0 1367 l 1,2,-1
 764 1367 l 1,3,-1
 764 1269 l 1,4,-1
 517 1269 l 1,5,-1
 1262 288 l 1,6,-1
 1262 1269 l 1,7,-1
 1078 1269 l 1,8,-1
 1078 1367 l 1,9,-1
 1558 1367 l 1,10,-1
 1558 1269 l 1,11,-1
 1374 1269 l 1,12,-1
 1374 -27 l 1,13,-1
 1263 -27 l 1,14,-1
 388 1125 l 1,15,-1
 388 97 l 1,16,-1
 572 97 l 1,17,-1
 572 0 l 1,18,-1
 92 0 l 1,19,-1
 92 97 l 1,20,-1
 276 97 l 1,21,-1
 276 1269 l 1,0,-1
EndSplineSet
Validated: 1
Comment: "Samian4:uniF44A,IN" 
EndChar

StartChar: uniF5E3
Encoding: 62947 62947 273
Width: 1640
VWidth: 1875
Flags: W
LayerCount: 2
Fore
SplineSet
1375 1279 m 1,0,-1
 1557 1279 l 1,1,-1
 1557 1181 l 1,2,-1
 1373 1181 l 1,3,-1
 1374 -27 l 1,4,-1
 1263 -27 l 1,5,-1
 388 1125 l 1,6,-1
 388 97 l 1,7,-1
 572 97 l 1,8,-1
 572 0 l 1,9,-1
 92 0 l 1,10,-1
 92 97 l 1,11,-1
 276 97 l 1,12,-1
 276 1269 l 1,13,-1
 92 1269 l 1,14,-1
 92 1367 l 1,15,-1
 442 1367 l 1,16,-1
 1262 288 l 1,17,-1
 1261 1181 l 1,18,-1
 1078 1181 l 1,19,-1
 1078 1279 l 1,20,-1
 1263 1279 l 1,21,-1
 1263 1413 l 1,22,-1
 1079 1413 l 1,23,-1
 1079 1511 l 1,24,-1
 1559 1511 l 1,25,-1
 1559 1413 l 1,26,-1
 1375 1413 l 1,27,-1
 1375 1279 l 1,0,-1
EndSplineSet
Validated: 1
Comment: "Samian4:uniF454,INTI" 
EndChar

